<svg width="127" height="32" viewBox="0 0 127 32" fill="none" xmlns="http://www.w3.org/2000/svg">
<path fill-rule="evenodd" clip-rule="evenodd" d="M2.36039 4.81194L1.27777 4.75469L1.27286 5.84608L1.27231 6.07363C1.27199 6.25078 1.27156 6.55675 1.27114 7.07216C1.27026 8.103 1.26941 9.97234 1.26941 13.3269V13.7578L2.55218 15.0492C2.04426 15.3709 1.53394 15.6889 1.02128 16.0032L0.525748 16.307L0.521729 23.5014L6.43854 29.4617L6.82706 29.4872C14.0872 29.9647 21.5539 29.435 28.5496 27.0053L29.246 26.7634V18.1183L27.7325 16.5947C27.9904 16.3384 28.2476 16.08 28.503 15.8199L28.8016 15.5159V15.0885C28.8016 14.7934 28.8025 13.2482 28.8033 11.7761L28.8053 8.47515L22.711 2.33997L22.1044 2.54454C15.8058 4.66868 9.05046 5.1655 2.36039 4.81194ZM22.4327 3.53094L27.7717 8.90579C27.7717 8.90579 27.7683 14.4976 27.7683 15.0885C27.5145 15.3468 27.2585 15.604 27.0018 15.8591C26.7559 16.1034 26.5092 16.346 26.2627 16.5863L28.2126 18.5492V26.0218C21.3851 28.3931 14.0648 28.9208 6.89435 28.4491L1.55533 23.0709L1.55878 16.8916C2.14263 16.5338 2.72353 16.171 3.30144 15.8034C3.59963 15.6137 3.89697 15.4227 4.19357 15.2304L2.30276 13.3269C2.30276 9.76632 2.30375 7.87936 2.30465 6.89245C2.30546 6.0198 2.30622 5.85073 2.30622 5.85073C2.65033 5.86896 2.99479 5.88498 3.33943 5.89856C9.77676 6.15364 16.3003 5.59908 22.4327 3.53094Z" fill="white" style="fill:white;fill-opacity:1;"/>
<path fill-rule="evenodd" clip-rule="evenodd" d="M22.4327 3.53094C15.972 5.70982 9.07702 6.20869 2.30622 5.85073C2.30622 5.85073 2.30276 6.61816 2.30276 13.3269L4.19357 15.2304C3.3224 15.7953 2.44393 16.349 1.55878 16.8916L1.55533 23.0709L6.89435 28.4491C14.0648 28.9208 21.3851 28.3931 28.2126 26.0218V18.5492L26.2627 16.5863C26.7665 16.0951 27.2714 15.5943 27.7683 15.0885C27.7683 14.4976 27.7717 8.90579 27.7717 8.90579L22.4327 3.53094ZM25.7014 14.6204V11.6244L25.698 11.6209C21.0478 12.9282 16.3977 13.424 11.7476 13.424C11.0656 13.424 10.387 13.4136 9.70494 13.3928V16.7079C10.3939 16.7287 11.0794 16.7391 11.7683 16.7391C14.1622 16.7391 16.5562 16.6073 18.9502 16.2986C15.6227 18.993 12.2919 21.3475 8.96099 23.4801V26.4761C9.89099 26.5142 10.821 26.535 11.751 26.535C16.5493 26.535 21.3475 26.0046 26.1492 24.6036V21.2886C22.6667 22.3011 19.1913 22.8593 15.7123 23.0918C19.0396 20.6055 22.3705 17.8175 25.7014 14.6204Z" fill="#0D0D0D" style="fill:#0D0D0D;fill:color(display-p3 0.0510 0.0510 0.0510);fill-opacity:1;"/>
<path d="M25.7014 11.6244V14.6204C22.3705 17.8175 19.0396 20.6055 15.7123 23.0918C19.1913 22.8593 22.6667 22.3011 26.1492 21.2886C26.1492 22.3948 26.1492 23.4975 26.1492 24.6036C21.3475 26.0046 16.5493 26.535 11.751 26.535C10.821 26.535 9.89099 26.5142 8.96099 26.4761V23.4801C12.2919 21.3475 15.6227 18.993 18.9502 16.2986C16.5562 16.6073 14.1622 16.7391 11.7683 16.7391C11.0794 16.7391 10.3939 16.7287 9.70494 16.7079C9.70494 15.6017 9.70494 14.499 9.70494 13.3928C10.387 13.4136 11.0656 13.424 11.7476 13.424C16.3977 13.424 21.0478 12.9282 25.698 11.6209L25.7014 11.6244Z" fill="white" style="fill:white;fill-opacity:1;"/>
<path d="M58.4695 22.6526V18.8078H48.5255L57.815 13.003V9.33413H41.527V13.1789H50.1619L40.8724 18.9838V22.6526H58.4695Z" fill="white" style="fill:white;fill-opacity:1;"/>
<path d="M78.1393 18.3554H72.4498C71.9463 19.1094 71.2917 19.3606 68.7994 19.3606C66.0554 19.3606 65.0988 19.0842 65.0233 16.898H78.24V15.541C78.24 10.5654 75.2693 9.08279 68.9001 9.08279H68.4974C62.1281 9.08279 59.3589 10.5654 59.3589 15.541V16.4457C59.3589 21.4212 62.1281 22.9038 68.4974 22.9038H68.9505C75.4205 22.9038 77.4093 21.6473 78.1393 18.3554ZM68.7994 12.2993C71.4428 12.2993 72.5757 12.7015 72.5757 14.3096V14.4102H65.0484C65.2246 12.5758 66.282 12.2993 68.7994 12.2993Z" fill="white" style="fill:white;fill-opacity:1;"/>
<path d="M98.02 22.6526V14.762C98.02 10.4147 96.1823 9.08279 89.6369 9.08279H89.1585C82.8649 9.08279 80.9264 10.6157 79.9949 13.405H85.8858C86.2886 12.6512 86.9431 12.3244 89.0578 12.3244C91.5501 12.3244 92.3557 12.7015 92.3557 14.2343V14.4353L84.1488 14.7117C81.2285 14.8122 79.416 15.7922 79.416 18.4057V18.6067C79.416 21.4463 81.3292 22.9038 85.9361 22.9038C89.662 22.9038 91.525 21.9741 92.2047 20.2904H92.3557V22.6526H98.02ZM85.1305 18.5062V18.4057C85.1305 17.6267 85.6844 17.3 87.069 17.2498L92.3557 17.0739V17.2498C92.3557 18.9082 90.669 19.8632 87.8998 19.8632C85.8858 19.8632 85.1305 19.4863 85.1305 18.5062Z" fill="white" style="fill:white;fill-opacity:1;"/>
<path d="M105.322 22.6526V5.06225H99.6573V22.6526H105.322Z" fill="white" style="fill:white;fill-opacity:1;"/>
<path d="M116.489 26.9245L125.677 9.33413H119.887L116.262 17.2499H116.086L112.309 9.33413H106.217L113.04 22.728L110.547 26.9245H116.489Z" fill="white" style="fill:white;fill-opacity:1;"/>
</svg>
