<svg width="121" height="32" viewBox="0 0 121 32" fill="none" xmlns="http://www.w3.org/2000/svg">
<path d="M90.6224 18.9148C90.5557 18.9771 90.5216 18.9897 90.4186 18.9875C90.0966 19.0272 89.8425 19.1122 89.5874 19.1151C88.5637 19.1268 87.5397 19.1131 86.5159 19.1087C86.1445 18.9856 85.773 18.8625 85.3457 18.6964C85.1747 18.591 85.0595 18.5287 84.9443 18.4664C84.9443 18.4664 84.9226 18.4919 84.9218 18.4412C84.6722 18.1635 84.4215 17.9386 84.1749 17.7093C83.3169 16.9116 82.8287 15.8917 82.439 14.8131C82.3688 14.0298 82.2986 13.2466 82.2247 12.3604C82.2076 12.1651 82.1941 12.0728 82.1806 11.9805C82.5806 9.63026 83.8095 7.85853 86.0894 7.10345C89.8422 5.8605 93.8756 7.43098 94.5357 11.8627C94.9471 14.6246 93.9665 16.8623 91.6474 18.4614C91.3596 18.6598 90.9889 18.7381 90.6224 18.9148ZM85.1095 11.2831C84.7842 12.195 84.7391 13.123 84.939 14.068C85.4986 16.7127 88.461 17.9191 90.5115 16.3355C91.8165 15.3276 92.3517 13.4496 91.8431 11.6626C91.3814 10.0402 90.1843 8.99164 88.6898 8.90063C87.0489 8.80069 85.8439 9.57981 85.1095 11.2831Z" fill="white" style="fill:white;fill-opacity:1;"/>
<path d="M97.1314 18.961C97.1314 14.9667 97.1314 10.9724 97.1314 6.90354C97.6615 6.90354 98.1266 6.89929 98.5917 6.90434C100.006 6.91969 101.424 6.87484 102.833 6.97167C104.771 7.10493 105.928 8.39524 105.975 10.324C106.023 12.3558 105.589 13.1549 103.816 14.2296C104.947 15.7921 106.076 17.3518 107.264 18.9938C106.246 18.9938 105.349 19.0297 104.458 18.967C104.253 18.9525 104.071 18.6007 103.835 18.3333C103.051 17.1489 102.311 16.0353 101.556 14.8688C100.964 14.7566 100.386 14.6924 99.8065 14.6563C99.7831 14.6548 99.7432 14.9187 99.6947 15.1099C99.6892 15.3734 99.7001 15.5858 99.6952 15.8431C99.69 15.9811 99.7005 16.0742 99.6946 16.2202C99.6894 16.5662 99.7005 16.8595 99.6958 17.2083C99.68 17.8246 99.68 18.3853 99.68 18.9618C98.7816 18.9618 97.9568 18.9618 97.1291 18.962L97.1314 18.961ZM100.495 9.01497C100.235 9.01497 99.975 9.01497 99.6991 9.01497C99.6991 10.2003 99.6991 11.3173 99.6991 12.4964C100.477 12.4964 101.23 12.5204 101.981 12.4903C102.914 12.4529 103.382 11.8274 103.378 10.6921C103.374 9.68759 102.859 9.06808 101.968 9.02326C101.518 9.00064 101.067 9.01651 100.495 9.01497Z" fill="white" style="fill:white;fill-opacity:1;"/>
<path d="M50.4573 13.2119C50.3274 14.4647 50.1361 15.7002 49.4296 16.7865C49.3654 16.8854 49.2784 16.9694 49.1527 17.1196C48.2636 18.1311 47.2456 18.7504 45.9601 18.8913C45.7985 18.909 45.6475 19.0225 45.4915 19.0917C45.4017 19.0993 45.3118 19.107 45.1267 19.1155C44.3272 19.0834 43.6229 19.0506 42.8665 19.0077C42.6028 19.0042 42.3912 19.0108 42.1265 19.0072C41.8215 19.0037 41.5696 19.0103 41.2771 19.0069C41.1815 19.0037 41.1265 19.0104 41.0267 19.0072C40.8094 19.0314 40.6368 19.0658 40.4639 19.0737C40.4636 19.0473 40.4419 18.9992 40.4419 18.9992C40.4487 15.2117 40.4555 11.4241 40.4622 7.6366C40.4626 7.41321 40.4623 7.18981 40.4623 6.83681C42.4203 6.90721 44.3553 6.82843 46.2454 7.08312C48.498 7.38665 49.9724 9.08698 50.3114 11.3387C50.351 11.6016 50.3892 11.8647 50.4418 12.1772C50.4488 12.282 50.4421 12.3373 50.4376 12.485C50.4457 12.7889 50.4515 13.0004 50.4573 13.2119ZM46.7375 9.81844C45.6525 8.81266 44.3261 9.01412 43.0439 9.03524C43.0439 11.6835 43.0439 14.2899 43.0439 16.9164C43.6652 16.9164 44.238 16.9442 44.8071 16.9104C45.9058 16.8452 46.756 16.3412 47.3146 15.379C48.186 13.8782 47.9341 11.194 46.7375 9.81844Z" fill="white" style="fill:white;fill-opacity:1;"/>
<path d="M110.215 14.8319C111.009 12.6644 111.81 10.4994 112.595 8.32872C113.106 6.91568 113.096 6.912 114.583 6.90831C116.1 6.90454 116.09 6.90825 116.616 8.35667C117.871 11.8152 119.136 15.2698 120.444 18.7788C120.452 18.8903 120.414 18.949 120.318 19.002C119.424 18.9963 118.588 18.9963 117.793 18.9963C117.472 18.0841 117.171 17.2317 116.849 16.3188C115.556 16.3188 114.228 16.3625 112.905 16.2996C112.28 16.2699 112.046 16.5262 111.894 17.0549C111.704 17.7127 111.466 18.3566 111.263 18.9647C110.387 18.9647 109.598 18.9647 108.778 18.9647C109.266 17.562 109.74 16.1969 110.215 14.8319ZM115.538 12.3212C115.231 11.4593 114.923 10.5973 114.558 9.57332C113.972 11.2311 113.457 12.6879 112.928 14.1845C114.033 14.1845 115.065 14.1845 116.178 14.1845C115.965 13.5629 115.768 12.988 115.538 12.3212Z" fill="white" style="fill:white;fill-opacity:1;"/>
<path d="M55.7535 9.64069C55.7465 9.77256 55.7394 9.90443 55.733 10.1388C55.7406 10.5337 55.7476 10.826 55.7546 11.1183C55.7546 11.3189 55.7546 11.5194 55.7546 11.7895C57.3602 11.7895 58.9468 11.7895 60.5712 11.7895C60.5712 12.5036 60.5712 13.1475 60.5712 13.8463C58.9633 13.8463 57.3742 13.8463 55.7578 13.8463C55.7578 14.8765 55.7578 15.8524 55.7578 16.897C57.5721 16.897 59.3821 16.897 61.2283 16.897C61.2283 17.6117 61.2283 18.2598 61.2283 18.9518C58.6013 18.9518 55.95 18.9518 53.2248 18.9518C53.2248 17.6957 53.2248 16.4336 53.2115 15.1152C53.2072 12.5827 53.2164 10.1066 53.2253 7.63047C53.2261 7.41049 53.2254 7.19051 53.2254 6.93687C55.8107 6.93687 58.3378 6.93687 60.9526 6.93687C60.9526 7.39343 60.9526 7.83595 60.9515 8.38313C60.9306 8.66619 60.9108 8.84459 60.891 9.02299C60.891 9.02299 60.8303 9.01838 60.7449 9.01815C59.0557 9.02603 57.452 9.03416 55.8054 9.04765C55.7595 9.16533 55.7564 9.27766 55.7431 9.43136C55.7398 9.52873 55.7467 9.58471 55.7535 9.64069Z" fill="white" style="fill:white;fill-opacity:1;"/>
<path d="M74.9357 9.02739C73.8529 9.02739 72.7701 9.02739 71.65 9.02739C71.65 8.30452 71.65 7.63979 71.65 6.93757C74.7798 6.93757 77.9036 6.93757 81.0836 6.93757C81.0836 7.59826 81.0836 8.248 81.047 8.94902C81.0103 9.00029 80.9701 9.02826 80.913 9.01924C79.7967 9.01022 78.7376 9.01021 77.6611 9.01021C77.6611 12.1348 77.6611 15.2063 77.6502 18.3259C77.6393 18.5718 77.6393 18.7697 77.6393 18.9547C76.7657 18.9547 75.9469 18.9547 75.121 18.9547C75.0989 18.6555 75.0798 18.3966 75.0745 18.0817C75.0788 17.3612 75.0692 16.6967 75.0732 15.9822C75.0783 15.7262 75.0697 15.5201 75.0752 15.2671C75.0731 14.8498 75.0571 14.4794 75.0428 14.066C75.0195 13.8678 74.9945 13.7127 75.0214 13.5073C75.0689 12.103 75.0644 10.7488 75.0734 9.34876C75.0364 9.21108 74.9861 9.11924 74.9357 9.02739Z" fill="white" style="fill:white;fill-opacity:1;"/>
<path d="M63.6922 13.3352C63.7033 13.2418 63.7144 13.1484 63.7091 13.0103C63.6926 10.9811 63.6926 8.99659 63.6926 6.9573C64.5444 6.9573 65.3316 6.9573 66.2212 6.9573C66.2212 8.49333 66.2212 10.0614 66.2209 11.7346C66.2288 12.338 66.2368 12.8364 66.2324 13.3912C66.2282 14.108 66.2365 14.7684 66.2323 15.477C66.2283 15.657 66.2369 15.7887 66.2327 15.9732C66.22 16.3011 66.22 16.5764 66.22 16.8992C66.6678 16.8733 67.0458 16.8514 67.4238 16.8295C68.4475 16.8415 69.4712 16.8534 70.5971 16.8789C70.8663 16.9128 71.0332 16.9332 71.2002 16.9536C71.2036 17.3969 71.2069 17.8402 71.2034 18.3467C71.2175 18.4824 71.2385 18.5548 71.2596 18.6273C71.2459 18.6469 71.2322 18.6665 71.2305 18.7504C71.2453 18.8365 71.2481 18.8583 71.2509 18.8801C71.1813 18.9171 71.1117 18.9864 71.0419 18.9865C68.6294 18.9921 66.217 18.9912 63.7242 18.9912C63.7242 17.6925 63.7242 16.4314 63.7237 15.0594C63.7129 14.4107 63.7025 13.8729 63.6922 13.3352Z" fill="white" style="fill:white;fill-opacity:1;"/>
<path d="M31.4601 19.1394C31.4966 19.1918 31.5331 19.2442 31.5308 19.3426C31.477 19.4914 31.4619 19.5942 31.4469 19.6971C31.1661 20.354 30.8815 21.0092 30.6068 21.6686C30.5134 21.8926 30.4451 22.127 30.3348 22.425C30.283 22.56 30.2617 22.6265 30.2218 22.7063C30.2032 22.7196 30.2065 22.7652 30.1733 22.7946C29.0408 25.2395 27.3765 27.2029 25.2948 28.8876C25.0367 29.1104 24.8026 29.2973 24.5346 29.4757C24.4832 29.4828 24.4657 29.4982 24.4111 29.5233C24.2664 29.5854 24.1588 29.6379 24.0615 29.6972C24.0718 29.704 24.0552 29.6857 24.0138 29.6979C20.8229 31.6282 17.4089 32.3659 13.7691 31.8302C12.3825 31.6261 11.0353 31.1544 9.67011 30.8046C9.67011 30.8046 9.65423 30.7867 9.6127 30.7546C8.56847 30.1501 7.56642 29.5765 6.56244 29.0064C6.37397 28.8993 6.17779 28.8059 5.96925 28.6699C5.84341 28.565 5.7335 28.4965 5.62453 28.3995C5.59794 28.337 5.56366 28.3277 5.52264 28.3433C4.64889 27.3216 3.77514 26.2998 2.84794 25.2303C2.67021 25.0336 2.54592 24.8847 2.42164 24.7358C2.42164 24.7358 2.43667 24.6956 2.42175 24.6802C2.00323 23.7828 1.59964 22.9009 1.17052 21.9906C0.84414 20.7967 0.543291 19.6312 0.222106 18.3834C0.189795 18.2467 0.17782 18.1923 0.165845 18.1379C0.166339 18.0385 0.166831 17.9392 0.151869 17.8055C-0.224213 14.0872 0.42576 10.6068 2.40751 7.45819C5.12398 3.14229 9.08101 0.740168 14.1322 0.120248C14.2951 0.100266 14.4574 0.0762774 14.7104 0.0470929C14.8557 0.0266863 14.9105 0.0133428 14.9654 0C15.6664 0.0257213 16.3675 0.0514424 17.162 0.088723C17.312 0.0938298 17.3685 0.0873767 17.425 0.0809232C18.4206 0.292872 19.4162 0.50482 20.4603 0.711841C22.9079 1.56898 25.1094 2.7698 26.919 4.59187C29.7345 7.42665 31.4285 10.7878 31.6038 14.837C31.6197 15.2056 31.6481 15.5737 31.6863 15.9935C31.6933 16.0655 31.6846 16.0859 31.6745 16.1865C31.6808 16.4387 31.6886 16.6108 31.6788 16.8305C31.6386 17.2982 31.6161 17.7181 31.5937 18.138C31.5789 18.1902 31.5641 18.2424 31.5311 18.3696C31.4999 18.5887 31.4868 18.7327 31.4738 18.8768C31.4738 18.8768 31.4477 18.9181 31.4181 18.9575C31.4123 19.0444 31.4362 19.0919 31.4601 19.1394ZM3.51474 16.6419C3.56126 17.0993 3.60778 17.5568 3.63828 18.1134C3.86844 18.9073 4.09858 19.7013 4.33972 20.5874C4.77464 21.7504 5.42674 22.7764 6.23446 23.748C6.61161 22.5389 6.96261 21.4137 7.37072 20.2299C8.00309 18.9988 8.63547 17.7676 9.30435 16.4585C10.2893 15.2645 11.2743 14.0704 12.288 12.8416C10.9964 10.6829 9.68981 8.49906 8.35964 6.27587C8.05443 6.5469 7.79012 6.76895 7.53985 7.00583C5.15863 9.25961 3.67577 11.9452 3.53478 15.384C3.53667 15.7683 3.53857 16.1527 3.51474 16.6419ZM17.6381 21.874C17.6381 21.874 17.625 21.855 17.6058 21.7761C16.2996 19.6135 14.9933 17.4509 13.6423 15.2142C11.8628 17.2175 10.4108 19.3061 9.62266 21.9059C9.36266 23.1636 9.08193 24.4177 8.86335 25.6826C8.82753 25.8899 9.00219 26.2566 9.18623 26.3603C11.6985 27.7748 14.3607 28.6491 17.2837 28.2359C18.5182 28.0614 19.7253 27.6919 21.0532 27.386C20.2494 26.1098 19.5544 25.0063 18.8362 23.8154C18.4399 23.1753 18.0437 22.5352 17.6381 21.874ZM27.0976 20.9133C27.4052 19.7678 27.8458 18.6398 27.9988 17.4741C28.9623 10.1363 22.9029 2.85872 14.6727 3.75572C13.6657 3.86547 12.6866 4.23263 11.6162 4.50011C13.345 7.37272 14.9651 10.0794 16.6001 12.7772C18.1281 15.2983 19.6719 17.8098 21.2233 20.4039C22.1818 21.9909 23.1404 23.5779 24.1276 25.2122C25.3577 23.9313 26.4502 22.6287 27.0976 20.9133Z" fill="white" style="fill:white;fill-opacity:1;"/>
<path d="M57.7537 27.0464C57.812 27.1616 57.8352 27.2509 57.8839 27.4069C57.923 27.5637 57.9366 27.6537 57.9502 27.7438C57.9349 27.8898 57.9196 28.0358 57.8771 28.2548C57.6662 28.5812 57.4826 28.8346 57.299 29.0879C57.299 29.0879 57.2411 29.0921 57.1794 29.1283C56.8283 29.2466 56.542 29.3848 56.2491 29.4004C55.3836 29.4465 54.5156 29.444 53.6486 29.4606C53.6278 28.1119 53.604 26.7632 53.5876 25.4144C53.5798 24.7843 53.5862 24.154 53.5862 23.5139C54.5049 23.5139 55.3603 23.4839 56.2125 23.5234C56.8973 23.5553 57.4469 23.8847 57.6453 24.577C57.8475 25.2826 57.7101 25.9173 57.1603 26.2532C57.3407 26.5012 57.5297 26.7609 57.7537 27.0464ZM55.1782 28.7222C55.5058 28.7157 55.8362 28.7339 56.1604 28.6972C56.6633 28.6404 57.0815 28.4586 57.1029 27.8498C57.1228 27.2822 56.814 26.8595 56.2124 26.7974C55.632 26.7374 55.0406 26.7844 54.4249 26.7844C54.4249 27.4299 54.4249 28.052 54.4249 28.7221C54.6609 28.7221 54.8615 28.7221 55.1782 28.7222ZM56.8776 24.8201C56.6381 24.6297 56.4177 24.3149 56.1552 24.2747C55.6018 24.1899 55.0263 24.2489 54.4257 24.2489C54.4257 24.8453 54.4257 25.4295 54.4257 26.0595C54.9674 26.0595 55.4993 26.1083 56.0184 26.0477C56.7276 25.9648 56.9208 25.6743 56.8776 24.8201Z" fill="white" style="fill:white;fill-opacity:1;"/>
<path d="M46.5571 27.6499C46.8998 26.8077 47.2425 25.9656 47.5865 25.079C47.7371 24.6798 47.9148 24.3339 48.0276 23.9679C48.1463 23.5826 48.3354 23.4405 48.7628 23.4337C49.2115 23.4265 49.3574 23.6203 49.4808 23.9865C49.6623 24.5253 49.8923 25.0477 50.1435 25.585C50.6303 26.776 51.0752 27.959 51.5444 29.1811C51.2658 29.5793 50.6841 29.5679 50.6203 29.1646C50.4386 28.0152 49.723 27.8214 48.7493 27.9825C48.7094 27.9891 48.6665 27.9896 48.6269 27.9824C47.6941 27.8141 47.0688 28.0894 46.8994 29.1128C46.8039 29.6898 46.3122 29.3645 45.9517 29.4044C46.121 28.7893 46.339 28.2196 46.5571 27.6499ZM49.4715 26.1858C49.2481 25.6037 49.0247 25.0216 48.7517 24.3103C48.3512 25.3588 48.001 26.2757 47.6359 27.2316C48.4213 27.2316 49.1046 27.2316 49.8586 27.2316C49.7289 26.8782 49.6183 26.5769 49.4715 26.1858Z" fill="white" style="fill:white;fill-opacity:1;"/>
<path d="M61.127 24.2331C60.9286 24.5237 60.6222 24.7929 60.559 25.1104C60.4785 25.5148 60.7754 25.8045 61.2035 25.8929C61.6106 25.9769 62.0221 26.0439 62.4238 26.1484C63.0589 26.3136 63.6394 26.561 63.8184 27.3891C63.9102 27.6047 63.9837 27.7318 64.058 27.8626C64.058 27.8626 64.0611 27.871 64.0224 27.8708C63.8751 28.1697 63.7663 28.4688 63.6553 28.7753C63.6532 28.7828 63.6449 28.7961 63.6215 28.8084C63.5733 28.8659 63.5487 28.9109 63.4986 28.9687C63.4732 28.9815 63.4509 29.0338 63.4206 29.0453C63.287 29.1427 63.1836 29.2286 63.0882 29.3185C63.0961 29.3226 63.0873 29.3071 63.0409 29.3175C62.2961 29.4098 61.5976 29.4919 60.8994 29.5791C60.8997 29.5844 60.91 29.5824 60.8921 29.5423C60.7603 29.4841 60.6463 29.4659 60.5322 29.4523C60.5321 29.4568 60.5405 29.4532 60.5405 29.4532C60.1978 29.0658 59.8551 28.6784 59.4341 28.2025C59.804 28.0529 60.0372 27.9587 60.2624 27.8676C60.8877 28.7177 61.4576 28.9912 62.3017 28.7033C62.6091 28.5985 62.9739 28.2355 63.0255 27.9402C63.0678 27.6977 62.7446 27.2818 62.4765 27.1211C62.1037 26.8977 61.6208 26.8672 61.2041 26.7048C60.8286 26.5585 60.479 26.3459 60.0569 26.1361C59.9959 26.1098 59.9405 26.1032 59.9405 26.1032L59.9382 26.1051C59.7094 25.6224 59.6236 25.1231 59.8085 24.6094C59.8831 24.402 59.974 24.1827 60.1165 24.0208C60.7376 23.3153 61.5706 23.3209 62.3845 23.4744C63.1069 23.6107 63.602 24.0853 63.8657 24.9012C63.5311 24.9012 63.252 24.9012 62.9272 24.843C62.8026 24.6766 62.7238 24.5685 62.6233 24.4327C62.5395 24.3765 62.4774 24.3479 62.3712 24.3013C61.927 24.2665 61.527 24.2498 61.127 24.2331Z" fill="white" style="fill:white;fill-opacity:1;"/>
<path d="M40.4806 23.4515C40.728 23.4552 40.9734 23.4552 41.3188 23.4552C41.3188 24.9413 41.3188 26.4065 41.3176 27.9699C41.3228 28.124 41.3292 28.1801 41.3255 28.2909C41.4263 28.4377 41.5354 28.6065 41.6486 28.6094C42.3591 28.6272 43.0704 28.608 43.8268 28.6129C43.9647 28.6172 44.0574 28.6096 44.1818 28.6189C44.2694 28.6769 44.3254 28.718 44.3769 28.8047C44.2975 29.0596 44.2226 29.2688 44.0911 29.4669C42.8842 29.4621 41.7338 29.4685 40.5566 29.4603C40.5298 29.4457 40.4693 29.4366 40.4647 29.3815C40.4511 28.7982 40.4421 28.2701 40.4426 27.6919C40.4631 26.2455 40.474 24.8492 40.485 23.4529C40.485 23.4529 40.4785 23.4478 40.4806 23.4515Z" fill="white" style="fill:white;fill-opacity:1;"/>
</svg>
