<svg width="91" height="32" viewBox="0 0 91 32" fill="none" xmlns="http://www.w3.org/2000/svg">
<g clip-path="url(#clip0_5_4116)">
<path d="M6.60745 3.89624H0.776611V28.3938H6.54859C10.8891 28.3938 22.0079 27.9531 22.0079 16.1435C22.008 12.4201 20.4212 3.89624 6.60745 3.89624ZM7.82296 22.773H6.55843V9.5166H7.82296C10.2982 9.5166 12.9916 10.0823 14.1875 11.19C15.5415 12.4539 16.1987 14.0777 16.1987 16.1435C16.1987 18.1881 15.5365 19.7898 14.1739 21.0454C13.5091 21.6472 12.7606 22.0915 11.9675 22.3608C11.1138 22.6332 9.16884 22.773 7.82296 22.773Z" fill="white" style="fill:white;fill-opacity:1;"/>
<path d="M61.3688 8.88091C67.0344 8.88091 69.3697 12.3826 69.3697 12.3826V5.27893L68.6812 4.90535C66.4296 3.69411 64.0519 3.07959 61.6231 3.07959C57.195 3.07959 53.5333 4.63252 50.738 7.69656C48.4701 10.1898 47.322 13.0736 47.322 16.2625C47.322 19.8248 48.6981 22.9114 51.4242 25.4438C54.1484 27.9438 57.4838 29.2104 61.3355 29.2104C63.8902 29.2104 66.3589 28.5911 68.6669 27.3737L69.3699 27.0009V20.2608C69.3699 20.2608 65.7358 23.4078 61.386 23.4078C59.2426 23.4078 57.4889 22.7349 56.0148 21.3421C54.5363 19.9451 53.818 18.2644 53.818 16.2181C53.818 14.135 54.539 12.4267 56.0308 10.9934C57.4889 9.57087 59.2349 8.88091 61.3688 8.88091Z" fill="white" style="fill:white;fill-opacity:1;"/>
<path d="M82.8975 8.88091C88.3547 8.88091 90.6011 12.3826 90.6011 12.3826V5.27893L89.9364 4.90535C87.7659 3.69411 85.4795 3.07959 83.1383 3.07959C78.8781 3.07959 75.355 4.63252 72.6561 7.69656C70.4749 10.1898 69.3699 13.0736 69.3699 16.2625C69.3699 19.8248 70.6982 22.9114 73.319 25.4438C75.9449 27.9438 79.1546 29.2104 82.8664 29.2104C85.3243 29.2104 87.6973 28.5911 89.9242 27.3737L90.6011 27.0009V20.2608C90.6011 20.2608 87.1021 23.4078 82.9138 23.4078C80.85 23.4078 79.157 22.7349 77.7428 21.3421C76.3183 19.9451 75.6276 18.2644 75.6276 16.2181C75.6276 14.135 76.3218 12.4267 77.7555 10.9934C79.1571 9.57087 80.8396 8.88091 82.8975 8.88091Z" fill="white" style="fill:white;fill-opacity:1;"/>
<path d="M35.0533 17.5397L29.0269 3.89624H22.8245V28.3938H29.0269V18.1028L33.8626 28.3938H36.0844L41.0437 18.1524V28.3938H47.3221V3.89624H41.4427L35.0533 17.5397Z" fill="white" style="fill:white;fill-opacity:1;"/>
</g>
<defs>
<clipPath id="clip0_5_4116">
<rect width="90.1053" height="32" fill="white" style="fill:white;fill-opacity:1;" transform="translate(0.394531)"/>
</clipPath>
</defs>
</svg>
