<svg width="184" height="32" viewBox="0 0 184 32" fill="none" xmlns="http://www.w3.org/2000/svg">
<g clip-path="url(#clip0_5_4055)">
<path d="M6.15875 4.90147L14.6505 0L23.1422 4.90147L20.0202 6.7122L14.6505 3.62147L9.28071 6.7122L6.15875 4.90147ZM23.1422 11.0829L20.0202 9.2722L14.6505 12.3629L9.28071 9.2722L6.15875 11.0829V14.7044L11.5285 17.7951V23.9765L14.6505 25.7873L17.7725 23.9765V17.7951L23.1422 14.7044V11.0829ZM23.1422 20.8859V17.2644L20.0202 19.0751V22.6965L23.1422 20.8859ZM25.3587 22.1659L19.989 25.2565V28.878L28.4807 23.9765V14.1736L25.3587 15.9844V22.1659ZM22.2369 7.9922L25.3587 9.80292V13.4244L28.4807 11.6137V7.9922L25.3587 6.18147L22.2369 7.9922ZM11.5285 26.5679V30.1893L14.6505 32L17.7725 30.1893V26.5679L14.6505 28.3785L11.5285 26.5679ZM6.15875 20.8859L9.28071 22.6965V19.0751L6.15875 17.2644V20.8859ZM11.5285 7.9922L14.6505 9.80292L17.7725 7.9922L14.6505 6.18147L11.5285 7.9922ZM3.94214 9.80292L7.0641 7.9922L3.94214 6.18147L0.82019 7.9922V11.6137L3.94214 13.4244V9.80292ZM3.94214 15.9844L0.82019 14.1736V23.9765L9.31188 28.878V25.2565L3.94214 22.1659V15.9844Z" fill="white" style="fill:white;fill-opacity:1;"/>
<path d="M53.0935 20.0822V20.0313C53.0935 17.6398 51.8214 16.4441 49.7607 15.6554C51.0327 14.9431 52.1013 13.8237 52.1013 11.8138V11.7629C52.1013 8.96435 49.8625 7.15802 46.2243 7.15802H37.9559V24.967H46.4279C50.4477 24.967 53.0935 23.3387 53.0935 20.0822ZM48.2087 12.4753C48.2087 13.7982 47.1149 14.3579 45.3849 14.3579H41.7722V10.5926H45.6393C47.2929 10.5926 48.2087 11.2541 48.2087 12.4244V12.4753ZM49.201 19.5989C49.201 20.9218 48.1579 21.5323 46.4279 21.5323H41.7722V17.6145H46.3007C48.3106 17.6145 49.201 18.3522 49.201 19.5479V19.5989Z" fill="white" style="fill:white;fill-opacity:1;"/>
<path d="M72.3953 24.967V7.15802H68.5281V18.1233L60.1835 7.15802H56.5708V24.967H60.4379V13.6455L69.0624 24.967H72.3953Z" fill="white" style="fill:white;fill-opacity:1;"/>
<path d="M92.0624 20.0822V20.0313C92.0624 17.6398 90.7903 16.4441 88.7296 15.6554C90.0016 14.9431 91.0701 13.8237 91.0701 11.8138V11.7629C91.0701 8.96435 88.8313 7.15802 85.1932 7.15802H76.9248V24.967H85.3968C89.4165 24.967 92.0624 23.3387 92.0624 20.0822ZM87.1777 12.4753C87.1777 13.7982 86.0837 14.3579 84.3537 14.3579H80.7411V10.5926H84.6081C86.2617 10.5926 87.1777 11.2541 87.1777 12.4244V12.4753ZM88.1699 19.5989C88.1699 20.9218 87.1268 21.5323 85.3968 21.5323H80.7411V17.6145H85.2696C87.2795 17.6145 88.1699 18.3522 88.1699 19.5479V19.5989Z" fill="white" style="fill:white;fill-opacity:1;"/>
<path d="M115.675 21.8207L113.665 19.7855C112.139 21.2102 110.74 22.1006 108.552 22.1006C105.142 22.1006 102.675 19.2512 102.675 15.7403C102.675 12.2294 105.142 9.43084 108.552 9.43084C110.587 9.43084 112.113 10.3213 113.538 11.6442L115.548 9.32908C113.843 7.70084 111.859 6.55597 108.577 6.55597C103.184 6.55597 99.3927 10.7029 99.3927 15.7912C99.3927 20.9303 103.26 24.9755 108.45 24.9755C111.783 24.9755 113.818 23.7543 115.675 21.8207Z" fill="white" style="fill:white;fill-opacity:1;"/>
<path d="M130.845 17.165V24.6702H133.975V6.86133H130.845V14.2648H122.348V6.86133H119.219V24.6702H122.348V17.165H130.845Z" fill="white" style="fill:white;fill-opacity:1;"/>
<path d="M148.012 6.73419H145.112L137.276 24.6703H140.482L142.314 20.3707H150.735L152.542 24.6703H155.848L148.012 6.73419ZM149.59 17.5976H143.459L146.511 10.4741L149.59 17.5976Z" fill="white" style="fill:white;fill-opacity:1;"/>
<path d="M159.335 6.86133V24.6702H162.464V6.86133H159.335Z" fill="white" style="fill:white;fill-opacity:1;"/>
<path d="M179.927 19.1749L170.386 6.86133H167.486V24.6702H170.564V12.0005L180.384 24.6702H183.006V6.86133H179.927V19.1749Z" fill="white" style="fill:white;fill-opacity:1;"/>
</g>
<defs>
<clipPath id="clip0_5_4055">
<rect width="182.667" height="32" fill="white" style="fill:white;fill-opacity:1;" transform="translate(0.82019)"/>
</clipPath>
</defs>
</svg>
