<svg width="100" height="32" viewBox="0 0 100 32" fill="none" xmlns="http://www.w3.org/2000/svg">
<path d="M75.7377 16.0375C75.2844 16.774 74.868 17.5367 74.369 18.2408C73.6771 19.217 72.7 19.8108 71.5286 20.0394C71.0233 20.138 70.4975 20.165 69.9808 20.1668C66.8787 20.178 63.7765 20.1726 60.6744 20.1721C60.0804 20.172 59.5989 19.9156 59.2904 19.428C58.9448 18.8818 58.9218 18.3039 59.2727 17.7171C60.4764 15.7046 61.6673 13.6846 62.8576 11.6642C63.5059 10.5637 64.1432 9.45681 64.8088 8.34223C65.0449 8.79406 65.2577 9.25647 65.4625 9.70139C65.9065 9.53119 66.3124 9.35264 66.7328 9.21935C67.5201 8.96966 68.3198 8.87746 69.124 9.15511C69.7057 9.35591 70.0852 10.0857 69.8709 10.551C69.2613 10.551 68.6424 10.5305 68.0254 10.5567C67.41 10.5829 66.7848 10.5976 66.1849 10.7201C64.8819 10.9862 64.1253 11.8852 64.0582 13.1398C63.9865 14.4799 64.6994 15.5557 65.9395 15.9773C66.6846 16.2306 67.4413 16.1989 68.1981 16.0517C68.8831 15.9185 69.462 15.5854 69.9774 14.9792C69.9774 15.3838 69.9774 15.6949 69.9774 16.0063C70.9482 16.0063 71.8798 16.0063 72.8299 16.0063C72.8299 14.3578 72.8343 12.7302 72.8274 11.1027C72.8251 10.5688 72.8358 10.0294 72.7659 9.50247C72.6408 8.5589 72.1669 7.83669 71.3164 7.35147C70.2181 6.72479 69.0289 6.71359 67.8482 6.8612C67.0002 6.96723 66.1764 7.26776 65.3418 7.48151C65.8048 6.68226 66.2627 5.88007 66.7319 5.08451C67.3148 4.09616 67.8743 3.09179 68.5038 2.13372C69.2314 1.02638 70.2853 0.35587 71.5957 0.133579C72.0947 0.048938 72.6071 0.01061 73.1136 0.00876162C76.164 -0.00236111 79.2144 -0.00294258 82.2648 0.00729648C83.0954 0.0100833 83.6787 0.408844 83.9217 1.17512C84.0939 1.71817 83.9212 2.23295 83.6357 2.71166C82.8416 4.04283 82.0511 5.37613 81.2584 6.70812C80.502 7.97913 79.7414 9.24768 78.9884 10.5207C78.2814 11.7162 77.5819 12.916 76.8791 14.114C76.8286 14.2 76.778 14.286 76.7025 14.377C76.6737 14.2588 76.6665 14.1355 76.6664 14.0123C76.6657 11.7673 76.6659 9.5224 76.6659 7.27747C76.6659 7.16762 76.6659 7.05777 76.6659 6.94557C75.6791 6.94557 74.7289 6.94557 73.7786 6.94557C73.7786 9.98082 73.7786 12.9925 73.7786 16.0272C74.1149 16.0272 74.4324 16.0258 74.7498 16.0275C75.0791 16.0293 75.4084 16.034 75.7377 16.0375ZM74.3028 3.04937C73.748 3.48443 73.5412 4.21727 73.7876 4.87581C74.0213 5.50074 74.6359 5.94737 75.2967 5.87192C76.4859 5.73613 76.9217 4.90508 76.6895 3.82945C76.4598 2.76563 75.128 2.50373 74.3028 3.04937Z" fill="white" style="fill:white;fill-opacity:1;"/>
<path d="M20.9946 7.49127C21.8211 7.26774 22.6123 6.98392 23.4281 6.8397C24.6007 6.63241 25.7864 6.67961 26.8849 7.19748C28.0381 7.7411 28.5837 8.7113 28.591 9.97393C28.602 11.8709 28.5939 13.768 28.5939 15.665C28.5939 15.7758 28.5939 15.8865 28.5939 16.012C27.6217 16.012 26.677 16.012 25.6983 16.012C25.6983 15.7253 25.6983 15.4341 25.6983 15.1967C25.2586 15.4543 24.8304 15.7251 24.3825 15.958C24.1923 16.0569 23.9638 16.0977 23.7475 16.1281C22.756 16.2674 21.7669 16.2514 20.9276 15.6397C20.5239 15.3454 20.2378 14.8897 19.9617 14.5783C20.0311 14.8241 20.1332 15.1859 20.2393 15.5616C19.5715 15.9091 18.8707 16.0998 18.1101 16.1667C17.3555 16.2331 16.659 16.119 16.0102 15.7651C15.2018 15.3242 14.7618 14.6084 14.7432 13.6928C14.7137 12.2355 14.7353 10.7772 14.7353 9.28743C14.2568 9.28743 13.8608 9.28743 13.4509 9.28743C13.4509 8.62005 13.4509 7.98461 13.4509 7.31688C13.8431 7.31688 14.2391 7.31688 14.6735 7.31688C14.6735 6.64006 14.671 5.99462 14.6741 5.34921C14.6773 4.69072 14.5926 4.77024 15.243 4.76783C16.0264 4.76493 16.8098 4.76714 17.6254 4.76714C17.6254 5.60312 17.6254 6.43174 17.6254 7.29224C18.444 7.29224 19.2316 7.29224 20.0373 7.29224C20.0373 7.96686 20.0373 8.60957 20.0373 9.27361C19.2497 9.27361 18.4697 9.27361 17.6432 9.27361C17.6432 9.40236 17.6432 9.51053 17.6432 9.61871C17.6432 10.5672 17.6388 11.5158 17.6461 12.4642C17.648 12.7177 17.6711 12.9732 17.7103 13.2238C17.7706 13.6081 18.2223 13.8812 18.6131 13.7789C18.9521 13.6902 19.2882 13.5908 19.6437 13.4911C19.6834 13.6163 19.7239 13.7437 19.7645 13.8712C19.7792 13.8699 19.7939 13.8686 19.8086 13.8673C19.8086 13.5346 19.779 13.1988 19.8149 12.8701C19.8825 12.2522 20.1177 11.7277 20.6288 11.3126C21.3759 10.7058 22.2471 10.559 23.1531 10.5271C23.9857 10.4978 24.8201 10.5209 25.6503 10.5209C25.7566 9.78749 25.2205 9.2318 24.6728 9.1046C23.7899 8.89957 22.9344 9.06459 22.1023 9.37595C21.8016 9.48845 21.5121 9.63078 21.1885 9.77219C20.9022 9.10975 20.6183 8.45269 20.3371 7.80201C20.5737 7.68665 20.772 7.58999 20.9946 7.49127ZM22.8406 12.4692C22.3758 12.9474 22.5694 13.8169 23.201 14.039C23.5447 14.1599 23.8913 14.1968 24.2679 14.1189C25.1313 13.9402 25.9084 13.2315 25.6443 12.1295C25.1471 12.1295 24.6446 12.1295 24.142 12.1295C24.0802 12.1295 24.0145 12.1159 23.9574 12.1323C23.5971 12.2361 23.1812 12.1432 22.8406 12.4692Z" fill="white" style="fill:white;fill-opacity:1;"/>
<path d="M32.4297 15.769C32.4385 15.9308 32.4392 16.0328 32.2468 16.0309C31.331 16.0221 30.415 16.027 29.4796 16.027C29.4796 12.9742 29.4796 9.93983 29.4796 6.88803C30.4555 6.88803 31.4281 6.88803 32.4279 6.88803C32.4279 7.34488 32.4279 7.79133 32.4279 8.27854C33.8661 6.07791 37.5634 6.27634 38.4662 8.70087C38.6291 8.46252 38.7833 8.21536 38.9587 7.98424C39.5026 7.26748 40.2459 6.92661 41.1245 6.8008C41.6904 6.71978 42.2328 6.75458 42.7763 6.90958C43.7525 7.18799 44.405 7.83067 44.7279 8.76745C44.8894 9.23617 44.9697 9.75366 44.9776 10.2508C45.0064 12.0543 44.989 13.8585 44.989 15.6624C44.989 15.7734 44.989 15.8843 44.989 16.011C43.9981 16.011 43.0329 16.011 42.0193 16.011C42.0193 15.91 42.0193 15.8021 42.0193 15.6941C42.0193 14.1376 42.0311 12.581 42.0134 11.0246C42.0065 10.4187 41.8252 9.8769 41.2276 9.56746C40.7261 9.30783 40.2157 9.32148 39.7363 9.56794C39.0176 9.93733 38.7652 10.6198 38.7492 11.3683C38.7185 12.8005 38.7403 14.2338 38.7403 15.6666C38.7403 15.7772 38.7403 15.8878 38.7403 16.0125C37.7464 16.0125 36.7811 16.0125 35.7706 16.0125C35.7706 15.9066 35.7706 15.7983 35.7706 15.6899C35.7706 14.2468 35.7827 12.8035 35.7621 11.3606C35.7569 10.9934 35.6759 10.62 35.5795 10.263C35.4521 9.79122 34.9036 9.44626 34.4176 9.40086C33.2236 9.28932 32.5439 10.2221 32.5045 11.1148C32.4365 12.6543 32.4502 14.1975 32.4297 15.769Z" fill="white" style="fill:white;fill-opacity:1;"/>
<path d="M10.157 8.17331C10.157 7.9473 10.157 7.75157 10.157 7.55584C10.141 7.55067 10.1249 7.5455 10.1088 7.54033C9.04442 10.3647 7.98001 13.189 6.91044 16.0271C5.93967 16.0271 4.97117 16.0304 4.0028 16.0203C3.92942 16.0196 3.81687 15.9384 3.79016 15.8687C3.29787 14.584 2.81636 13.2951 2.33163 12.0075C1.73376 10.4194 1.13454 8.83173 0.537653 7.2432C0.496078 7.13255 0.469053 7.01644 0.425781 6.871C1.41643 6.871 2.37386 6.8675 3.33112 6.87833C3.40022 6.87912 3.5087 6.97191 3.53063 7.04297C3.95385 8.41501 4.36545 9.79063 4.78262 11.1646C4.98919 11.8449 5.20215 12.5233 5.42088 13.2306C5.70653 12.2988 5.98144 11.398 6.25893 10.4979C6.60803 9.36565 6.96057 8.23444 7.30778 7.10159C7.34861 6.96836 7.37821 6.86629 7.55971 6.86701C9.38474 6.87429 11.2098 6.8729 13.0348 6.87478C13.0536 6.8748 13.0723 6.886 13.1087 6.89764C13.1087 9.92772 13.1087 12.9627 13.1087 16.0125C12.133 16.0125 11.1675 16.0125 10.157 16.0125C10.157 13.4109 10.157 10.8072 10.157 8.17331Z" fill="white" style="fill:white;fill-opacity:1;"/>
<path d="M59.144 16.027C58.2101 16.0271 57.306 16.0271 56.3728 16.0271C56.3728 15.8886 56.3728 15.7781 56.3728 15.6676C56.3728 14.1836 56.3786 12.6996 56.3672 11.2157C56.3653 10.9573 56.3091 10.6949 56.246 10.4424C56.0997 9.85771 55.6698 9.52634 55.1202 9.42319C54.5347 9.3133 53.9651 9.44801 53.5303 9.90224C53.1269 10.3238 52.9629 10.839 52.9669 11.4234C52.9765 12.8352 52.97 14.2471 52.97 15.659C52.97 15.7702 52.97 15.8815 52.97 16.0098C51.9538 16.0098 50.9608 16.0098 49.9384 16.0098C49.9384 15.8885 49.9384 15.778 49.9384 15.6675C49.9384 14.3072 49.9384 12.9468 49.9384 11.5865C49.9384 10.6474 49.9384 9.70836 49.9384 8.7693C49.9385 8.24282 49.939 7.71634 49.9384 7.18986C49.9382 6.96982 49.9977 6.85655 50.2666 6.86281C51.1518 6.88339 52.0378 6.87055 52.9502 6.87055C52.9502 7.30839 52.9502 7.73624 52.9502 8.17747C53.2787 7.88446 53.5589 7.57064 53.8979 7.34522C54.6846 6.82207 55.5557 6.6639 56.5007 6.79555C57.2074 6.894 57.8346 7.12686 58.3348 7.633C58.9074 8.21236 59.2607 8.91499 59.2755 9.73799C59.312 11.7636 59.3235 13.7896 59.3352 15.8155C59.3356 15.8857 59.2301 15.9564 59.144 16.027Z" fill="white" style="fill:white;fill-opacity:1;"/>
<path d="M65.3184 7.48596C66.1764 7.26766 67.0002 6.96723 67.8482 6.8612C69.0289 6.71359 70.2181 6.72479 71.3164 7.35147C72.1669 7.83669 72.6408 8.5589 72.7659 9.50247C72.8358 10.0294 72.8251 10.5688 72.8274 11.1027C72.8343 12.7302 72.8299 14.3578 72.8299 16.0063C71.8798 16.0063 70.9482 16.0063 69.9774 16.0063C69.9774 15.6949 69.9774 15.3838 69.9774 14.9792C69.462 15.5854 68.8831 15.9185 68.1981 16.0517C67.4413 16.1989 66.6846 16.2306 65.9395 15.9773C64.6994 15.5557 63.9865 14.4799 64.0582 13.1398C64.1253 11.8852 64.8819 10.9862 66.1849 10.7201C66.7848 10.5976 67.41 10.5829 68.0254 10.5567C68.6424 10.5305 69.2613 10.551 69.8709 10.551C70.0852 10.0857 69.7057 9.35591 69.124 9.15511C68.3198 8.87746 67.5201 8.96966 66.7328 9.21935C66.3124 9.35264 65.9065 9.53119 65.4625 9.70139C65.2577 9.25647 65.0449 8.79396 64.8147 8.32115C64.7341 8.15689 64.671 8.00302 64.5877 7.79996C64.8196 7.69849 65.0573 7.5945 65.3184 7.48596ZM68.7797 14.0555C69.7198 13.7526 70.1009 13.0897 69.884 12.1847C69.1148 12.1847 68.3547 12.1555 67.5981 12.1953C67.1175 12.2206 66.911 12.4731 66.7941 12.9785C66.7207 13.2956 66.9005 13.7341 67.203 13.9392C67.6862 14.2668 68.2093 14.2235 68.7797 14.0555Z" fill="black" style="fill:black;fill-opacity:1;"/>
<path d="M73.2818 27.1182C73.5846 26.4195 74.1303 26.0323 74.8184 25.877C75.468 25.7304 76.1196 25.7702 76.7528 26.0441C77.4251 26.3349 77.9636 27.0901 77.9644 27.8255C77.9649 28.2516 78.004 28.6808 77.8091 29.0859C77.4277 29.8791 76.7791 30.2972 75.926 30.3723C75.3307 30.4247 74.7376 30.4004 74.1857 30.0778C73.6771 29.7805 73.3475 29.3691 73.1627 28.754C72.6716 30.1807 71.5718 30.5167 70.2858 30.3626C69.3871 30.2549 68.8187 29.8988 68.3735 28.8056C68.1733 29.5621 67.7679 30.108 67.0292 30.3055C66.323 30.4943 65.6441 30.4281 65.0421 29.8734C65.0421 30.0445 65.0421 30.1633 65.0421 30.3006C64.545 30.3006 64.0657 30.3006 63.5679 30.3006C63.5679 28.2731 63.5679 26.2487 63.5679 24.209C64.0475 24.209 64.518 24.209 65.0228 24.209C65.0228 24.9083 65.0228 25.6118 65.0228 26.3955C65.6104 25.7523 66.2917 25.6967 66.9943 25.8916C67.7216 26.0934 68.1474 26.6266 68.3725 27.3957C68.7937 26.2418 69.6612 25.8048 70.7794 25.8079C71.8995 25.8111 72.7523 26.2605 73.1572 27.4619C73.1855 27.3503 73.192 27.3111 73.2057 27.2746C73.2233 27.2275 73.2467 27.1827 73.2818 27.1182ZM70.1067 28.9254C70.4427 29.2615 70.8911 29.3125 71.2597 29.0765C71.8068 28.7262 71.8534 27.8846 71.494 27.3477C71.3347 27.1096 70.8816 26.9338 70.6394 26.9883C69.6773 27.2048 69.6103 28.3881 70.1067 28.9254ZM66.9004 28.4255C67.0361 28.016 66.9373 27.644 66.6925 27.3118C66.4708 27.011 66.1402 26.9067 65.7927 26.9882C65.3957 27.0814 65.1725 27.3791 65.0717 27.7726C64.9492 28.2509 65.1159 28.9819 65.7282 29.1775C66.142 29.3096 66.696 29.1486 66.9004 28.4255ZM74.5623 28.0672C74.5823 28.1653 74.6038 28.263 74.6221 28.3614C74.7135 28.8522 74.9807 29.1591 75.3577 29.2046C75.8854 29.2684 76.2036 29.1083 76.4048 28.5905C76.4925 28.3651 76.5066 28.0851 76.4704 27.8424C76.3727 27.1898 75.7138 26.7601 75.107 27.1098C74.7691 27.3045 74.6293 27.6434 74.5623 28.0672Z" fill="white" style="fill:white;fill-opacity:1;"/>
<path d="M91.6531 10.8761C92.2562 11.435 92.4675 12.1335 92.5045 12.9057C92.5402 13.648 92.4682 14.3658 92.0242 14.996C91.5544 15.663 90.9364 16.0586 90.0959 16.0951C89.5868 16.1172 89.0947 16.1007 88.6482 15.8321C88.4689 15.7243 88.3128 15.578 88.1245 15.4325C88.1245 16.3246 88.1245 17.2043 88.1245 18.1072C87.4788 18.1072 86.8567 18.1072 86.2139 18.1072C86.2139 15.4919 86.2139 12.8702 86.2139 10.23C86.8364 10.23 87.4586 10.23 88.1013 10.23C88.1013 10.418 88.1013 10.6 88.1013 10.8409C88.6342 10.3556 89.2153 10.1143 89.8904 10.1511C90.5519 10.1872 91.1638 10.3564 91.6531 10.8761ZM89.2156 11.6348C89.0175 11.7224 88.7978 11.7798 88.6253 11.9032C88.1133 12.2695 88.0866 12.8159 88.1075 13.3842C88.1338 14.0946 88.9579 14.9246 89.8725 14.47C90.4032 14.2064 90.7317 13.3989 90.5638 12.7573C90.3669 12.005 89.9431 11.6375 89.2156 11.6348Z" fill="white" style="fill:white;fill-opacity:1;"/>
<path d="M96.0655 10.1627C96.6964 10.1275 97.2768 10.1959 97.8136 10.5155C98.492 10.9193 98.899 11.5228 99.0498 12.2719C99.2074 13.0549 99.1988 13.8492 98.872 14.6033C98.5345 15.3819 97.7149 16.054 96.7806 16.094C96.2533 16.1166 95.7376 16.1161 95.2711 15.8342C95.0915 15.7257 94.9345 15.5798 94.737 15.4277C94.737 16.3296 94.737 17.2162 94.737 18.1164C94.0875 18.1164 93.473 18.1164 92.8359 18.1164C92.8359 15.4969 92.8359 12.876 92.8359 10.2332C93.4492 10.2332 94.0711 10.2332 94.7271 10.2332C94.7271 10.4162 94.7271 10.6035 94.7271 10.8522C95.1277 10.4603 95.5529 10.2529 96.0655 10.1627ZM94.7313 13.4345C94.7549 13.542 94.7661 13.654 94.8038 13.7562C95.1407 14.6685 96.2756 14.8932 96.8775 14.1484C97.2266 13.7165 97.2846 13.2012 97.1479 12.6582C97.0048 12.0894 96.5697 11.6689 96.0566 11.6343C95.4879 11.596 94.9585 11.9798 94.8029 12.5326C94.7276 12.7999 94.752 13.0953 94.7313 13.4345Z" fill="white" style="fill:white;fill-opacity:1;"/>
<path d="M79.9498 14.5996C79.869 13.4547 80.4117 12.8033 81.4475 12.5933C81.8932 12.5029 82.3621 12.5217 82.8209 12.5029C83.1154 12.4909 83.4107 12.5007 83.707 12.5007C83.6618 11.6701 82.9132 11.5018 82.3884 11.5991C81.8707 11.6949 81.3691 11.8782 80.8363 12.0299C80.6767 11.6586 80.4998 11.2471 80.2913 10.762C80.8536 10.5804 81.3989 10.3418 81.9688 10.2357C82.7376 10.0925 83.523 10.0523 84.288 10.3316C85.0632 10.6145 85.5566 11.2748 85.5699 12.1056C85.5891 13.3113 85.5748 14.5176 85.5748 15.7237C85.5748 15.8141 85.5748 15.9045 85.5748 16.0109C84.9474 16.0109 84.3454 16.0109 83.7234 16.0109C83.7234 15.8373 83.7234 15.6766 83.7234 15.4426C83.1723 16.0554 82.4962 16.1771 81.785 16.1458C81.0521 16.1134 80.4723 15.786 80.0941 15.1028C80.0019 15.9299 79.6108 16.1376 79.1575 16.1494C78.7299 16.1606 78.3446 15.8885 78.2245 15.505C78.1039 15.1198 78.2868 14.6183 78.623 14.4127C78.9603 14.2063 79.4769 14.2604 79.7794 14.5339C79.8098 14.5614 79.8396 14.5896 79.8977 14.6465C79.9415 14.7073 79.9573 14.739 79.9732 14.7707C79.9872 14.7655 80.0012 14.7603 80.0152 14.7551C79.9934 14.7033 79.9716 14.6515 79.9498 14.5996ZM81.8005 14.3782C82.0077 14.7737 82.2494 14.8784 82.7943 14.7888C83.4015 14.689 83.8499 14.2227 83.6657 13.5046C83.1466 13.5609 82.6125 13.5954 82.0879 13.6853C81.8074 13.7333 81.7008 14.032 81.8005 14.3782Z" fill="white" style="fill:white;fill-opacity:1;"/>
<path d="M45.8552 9.71655C45.8552 8.75962 45.8552 7.83362 45.8552 6.88918C46.8485 6.88918 47.821 6.88918 48.8093 6.88918C48.8093 9.92457 48.8093 12.9518 48.8093 16.0031C47.8428 16.0031 46.8702 16.0031 45.8552 16.0031C45.8552 13.9235 45.8552 11.8355 45.8552 9.71655Z" fill="white" style="fill:white;fill-opacity:1;"/>
<path d="M75.7663 16.0327C75.4084 16.034 75.0791 16.0293 74.7498 16.0275C74.4324 16.0258 74.1149 16.0272 73.7786 16.0272C73.7786 12.9925 73.7786 9.98082 73.7786 6.94557C74.7289 6.94557 75.6791 6.94557 76.6659 6.94557C76.6659 7.05777 76.6659 7.16762 76.6659 7.27747C76.6659 9.5224 76.6657 11.7673 76.6664 14.0123C76.6665 14.1355 76.6737 14.2588 76.6975 14.3989C76.7173 14.9441 76.7173 15.4725 76.7173 16.0279C76.402 16.0279 76.0985 16.0279 75.7663 16.0327Z" fill="black" style="fill:black;fill-opacity:1;"/>
<path d="M52.5393 26.1789C51.9173 27.7824 51.3044 29.3641 50.6742 30.9389C50.4627 31.4674 49.8249 32.0072 49.1652 31.9971C48.7096 31.9902 48.2831 31.9428 47.8813 31.7063C47.6968 31.5977 47.6256 31.5294 47.7755 31.3262C47.9594 31.0769 48.1014 30.7967 48.2392 30.5671C48.4885 30.6331 48.7116 30.7384 48.9359 30.7412C49.3064 30.7458 49.5425 30.3256 49.3993 29.9888C48.8686 28.7407 48.3405 27.4914 47.8095 26.2434C47.796 26.2117 47.7607 26.1893 47.7148 26.1405C47.7148 27.5364 47.7148 28.9036 47.7148 30.2948C47.2245 30.2948 46.7467 30.2948 46.2475 30.2948C46.2475 28.2794 46.2475 26.2559 46.2475 24.2131C46.7231 24.2131 47.2007 24.2131 47.6994 24.2131C47.6994 24.7508 47.6994 25.2831 47.6994 25.8643C48.1256 25.8643 48.5329 25.8724 48.9396 25.8605C49.1177 25.8553 49.2021 25.9038 49.2647 26.0851C49.5432 26.891 49.8428 27.6897 50.1368 28.4903C50.1551 28.5401 50.1914 28.5834 50.2483 28.6777C50.4642 28.0256 50.6655 27.4187 50.8652 26.8113C50.8777 26.7733 50.8735 26.73 50.8847 26.6915C51.1261 25.8642 51.1263 25.8642 51.9963 25.8642C52.2022 25.8642 52.4081 25.8642 52.6411 25.8642C52.6042 25.9719 52.573 26.0632 52.5393 26.1789Z" fill="white" style="fill:white;fill-opacity:1;"/>
<path d="M84.5764 29.0855C84.701 29.4128 84.7998 29.737 84.8974 30.0575C84.3365 30.5452 82.957 30.56 82.4864 29.9321C82.2877 29.667 82.1781 29.3904 82.174 29.0705C82.1657 28.4214 82.1693 27.7721 82.1668 27.1229C82.1667 27.1047 82.1527 27.0867 82.1339 27.0416C81.9536 27.0416 81.7619 27.0416 81.5632 27.0416C81.5563 26.9161 81.5508 26.8174 81.5418 26.6528C81.4119 26.8984 81.3105 27.0901 81.2472 27.2098C80.7298 27.0873 80.2382 26.9651 79.7434 26.8573C79.579 26.8215 79.4069 26.8754 79.4029 27.0642C79.4009 27.1563 79.5206 27.298 79.6176 27.3373C80.0719 27.5216 80.5512 27.6485 80.995 27.8533C81.3963 28.0385 81.663 28.3438 81.6862 28.8422C81.7132 29.4225 81.543 29.8818 81.0083 30.125C79.8764 30.6399 78.8061 30.4214 77.7662 29.7941C77.9075 29.5082 78.0444 29.2396 78.1731 28.9672C78.2425 28.8204 78.3088 28.7964 78.4463 28.907C78.8366 29.221 79.3163 29.3077 79.7924 29.3829C79.9134 29.4021 80.0583 29.3604 80.1735 29.3065C80.3603 29.219 80.307 28.9458 80.0665 28.8388C79.8295 28.7333 79.5701 28.6792 79.3295 28.5806C79.0337 28.4595 78.7225 28.3522 78.4614 28.1749C77.7253 27.6749 77.8703 26.2604 78.9681 25.9265C79.7602 25.6855 80.5295 25.782 81.2833 26.0735C81.4172 26.1253 81.4963 26.1412 81.6384 26.0667C81.7676 25.999 81.9603 26.0524 82.1564 26.0524C82.1564 25.6464 82.1564 25.2502 82.1564 24.8335C82.665 24.8335 83.1426 24.8335 83.6526 24.8335C83.6526 25.2288 83.6526 25.6247 83.6526 26.0407C84.0513 26.0407 84.419 26.0407 84.8093 26.0407C84.8093 26.3735 84.8093 26.6865 84.8093 27.0318C84.4403 27.0318 84.0651 27.0318 83.6577 27.0318C83.6577 27.6781 83.6491 28.2931 83.6623 28.9077C83.6669 29.1231 83.9314 29.257 84.1761 29.1936C84.302 29.161 84.4258 29.1198 84.5764 29.0855Z" fill="white" style="fill:white;fill-opacity:1;"/>
<path d="M38.9877 27.4109C38.9877 28.3884 38.9877 29.3349 38.9877 30.3C38.4892 30.3 38.0108 30.3 37.5135 30.3C37.5135 30.1542 37.5135 30.0135 37.5135 29.9029C37.2233 30.0494 36.9518 30.2601 36.6485 30.3272C35.2609 30.6345 34.1877 29.8058 34.1023 28.3932C34.0632 27.7467 34.1142 27.1244 34.5223 26.5661C34.8735 26.0857 35.3463 25.8676 35.9058 25.8063C36.4965 25.7416 37.0312 25.8861 37.4876 26.37C37.4876 25.6292 37.4876 24.9355 37.4876 24.2179C37.9894 24.2179 38.4673 24.2179 38.9877 24.2179C38.9877 25.266 38.9877 26.323 38.9877 27.4109ZM36.3016 29.206C36.5857 29.3228 36.841 29.2322 37.0568 29.0579C37.5058 28.6951 37.5751 28.2003 37.4178 27.6868C37.3025 27.3104 37.0168 27.0397 36.6131 26.9875C36.2416 26.9395 35.9227 27.1241 35.7354 27.4313C35.4466 27.905 35.4674 28.9356 36.3016 29.206Z" fill="white" style="fill:white;fill-opacity:1;"/>
<path d="M54.5949 27.6204C54.9918 26.7041 55.3826 25.8113 55.7581 24.9121C55.8784 24.6242 56.0204 24.445 56.3782 24.4949C56.6714 24.5358 56.9766 24.4844 57.2727 24.5128C57.3852 24.5236 57.5438 24.6188 57.5856 24.7165C58.1232 25.9721 58.6421 27.2357 59.1688 28.496C59.4156 29.0868 59.6692 29.6747 59.9429 30.3185C59.3993 30.3185 58.9102 30.3258 58.4218 30.31C58.3551 30.3078 58.267 30.2018 58.2321 30.1243C58.1084 29.8502 58.0036 29.5676 57.8831 29.2672C57.134 29.2672 56.3723 29.2621 55.6108 29.275C55.5333 29.2763 55.4307 29.37 55.3864 29.4475C55.2922 29.6126 55.1955 29.7887 55.1601 29.972C55.1029 30.2682 54.9445 30.3401 54.666 30.3244C54.2762 30.3025 53.8842 30.3189 53.4449 30.3189C53.6747 29.7866 53.8934 29.2848 54.1078 28.7813C54.269 28.4025 54.4248 28.0215 54.5949 27.6204ZM56.3511 28.0916C56.7047 28.0916 57.0583 28.0916 57.4377 28.0916C57.1781 27.422 56.9371 26.8004 56.6735 26.1208C56.4028 26.8138 56.1607 27.4338 55.9037 28.0916C56.0687 28.0916 56.1806 28.0916 56.3511 28.0916Z" fill="white" style="fill:white;fill-opacity:1;"/>
<path d="M17.4487 31.8053C16.8388 32.1416 15.7415 32.0421 15.2249 31.508C15.4271 31.183 15.6322 30.8532 15.8421 30.5158C15.9805 30.5907 16.0943 30.6715 16.2208 30.7167C16.4454 30.7969 16.6789 30.7887 16.8355 30.591C16.9697 30.4216 17.0806 30.2407 16.9631 29.9835C16.6541 29.307 16.3751 28.6168 16.0844 27.932C15.7984 27.2584 15.5128 26.5847 15.2154 25.8836C15.7444 25.8836 16.243 25.8836 16.7546 25.8836C17.0956 26.806 17.4393 27.7359 17.7984 28.7073C18.1196 27.7419 18.428 26.8151 18.7394 25.8796C19.2048 25.8796 19.6851 25.8796 20.2143 25.8796C20.0168 26.3936 19.8329 26.8794 19.6437 27.3632C19.2048 28.4856 18.7652 29.6078 18.322 30.7285C18.1474 31.1701 17.9087 31.5649 17.4487 31.8053Z" fill="white" style="fill:white;fill-opacity:1;"/>
<path d="M24.8819 29.1288C24.8611 28.7873 24.8264 28.4729 24.8227 28.158C24.814 27.4072 24.8199 26.6561 24.8199 25.8848C25.314 25.8848 25.7916 25.8848 26.3047 25.8848C26.3047 26.6661 26.2965 27.4457 26.3091 28.225C26.3136 28.5069 26.3738 28.7864 26.6375 28.9618C27.1907 29.3296 27.8345 28.8758 27.8486 28.1763C27.8618 27.5171 27.8514 26.8574 27.8514 26.1978C27.8514 26.0972 27.8514 25.9966 27.8514 25.8803C28.3473 25.8803 28.8177 25.8803 29.3122 25.8803C29.3122 27.3409 29.3122 28.808 29.3122 30.297C28.8447 30.297 28.3669 30.297 27.8648 30.297C27.8566 30.1343 27.8482 29.9679 27.8371 29.7473C27.3501 30.4518 26.6526 30.4667 25.9823 30.3542C25.3612 30.25 25.0266 29.7606 24.8819 29.1288Z" fill="white" style="fill:white;fill-opacity:1;"/>
<path d="M20.9675 30.0913C20.3053 29.7662 19.9951 29.2337 19.8626 28.5466C19.7475 27.9497 19.8267 27.3886 20.1306 26.8877C20.4928 26.2907 21.0406 25.9542 21.7587 25.8521C22.5355 25.7417 23.2422 25.8327 23.8859 26.2961C24.3954 26.6629 24.6627 27.1682 24.6912 27.7865C24.7116 28.2304 24.7344 28.6769 24.5286 29.1029C24.1493 29.8878 23.5056 30.2933 22.6694 30.3707C22.0975 30.4236 21.5096 30.4298 20.9675 30.0913ZM21.4387 28.7007C21.6407 29.0848 21.9555 29.2469 22.3888 29.2075C22.7526 29.1745 23.0092 28.9912 23.1048 28.6524C23.1801 28.3855 23.2264 28.0916 23.1977 27.819C23.1615 27.476 22.9506 27.1918 22.6222 27.059C22.2567 26.9112 21.9165 26.9776 21.6338 27.2837C21.2522 27.6969 21.2347 28.1586 21.4387 28.7007Z" fill="white" style="fill:white;fill-opacity:1;"/>
<path d="M39.7993 30.1343C39.1639 29.6241 39.0912 28.7863 39.4927 28.2012C39.7489 27.8278 40.1614 27.6949 40.5978 27.6608C41.1054 27.621 41.6144 27.5983 42.1223 27.5683C41.9959 27.042 41.6026 26.8046 41.0313 26.9211C40.8446 26.9592 40.6586 27.0071 40.4785 27.0687C40.3086 27.1269 40.1468 27.2092 39.9469 27.2958C39.8096 26.9789 39.6723 26.6622 39.5046 26.2753C39.9246 26.1437 40.317 26 40.7201 25.8992C41.3197 25.7492 41.9244 25.7456 42.5241 25.9239C43.1664 26.115 43.5793 26.689 43.5696 27.3541C43.5555 28.3309 43.566 29.308 43.566 30.3018C43.0834 30.3018 42.6246 30.3018 42.1543 30.3018C42.1477 30.196 42.1415 30.0952 42.1336 29.9679C41.3917 30.491 40.6236 30.5824 39.7993 30.1343ZM42.0797 28.903C42.107 28.7688 42.1343 28.6346 42.1651 28.4831C42.0671 28.474 42.0075 28.464 41.9478 28.4636C41.6605 28.4621 41.3657 28.4247 41.0887 28.4783C40.9307 28.5089 40.7355 28.6623 40.6755 28.809C40.5911 29.015 40.7001 29.2115 40.9337 29.3188C41.3076 29.4906 41.8348 29.3254 42.0797 28.903Z" fill="white" style="fill:white;fill-opacity:1;"/>
<path d="M59.9899 30.2894C59.9692 28.3618 59.9692 26.4554 59.9692 24.5261C60.4505 24.5261 60.9284 24.5261 61.4263 24.5261C61.4263 26.4427 61.4263 28.3638 61.4263 30.3105C60.9518 30.3105 60.4812 30.3106 59.9899 30.2894Z" fill="white" style="fill:white;fill-opacity:1;"/>
<path d="M32.7944 25.808C32.8418 26.2506 32.861 26.6891 32.8804 27.1315C32.0569 27.0581 31.3837 27.4573 31.4324 28.3177C31.4694 28.9727 31.4397 29.6314 31.4397 30.3034C30.9422 30.3034 30.4718 30.3034 29.9781 30.3034C29.9781 28.84 29.9781 27.3726 29.9781 25.8846C30.4495 25.8846 30.9274 25.8846 31.4303 25.8846C31.4303 26.0655 31.4303 26.2459 31.4303 26.4801C31.8035 26.0315 32.2311 25.8042 32.7944 25.808Z" fill="white" style="fill:white;fill-opacity:1;"/>
<path d="M45.7933 4.44389C45.6982 3.40604 46.5335 2.68328 47.4212 2.72137C48.2324 2.75619 48.7302 3.20038 48.8904 4.07323C49.0049 4.69668 48.8307 5.23862 48.3206 5.59244C47.7739 5.97161 47.1385 6.02989 46.5468 5.68742C46.1007 5.4292 45.8393 5.00447 45.7933 4.44389Z" fill="white" style="fill:white;fill-opacity:1;"/>
<path d="M12.4822 5.68062C11.6756 6.12742 10.6114 5.82699 10.2598 5.03304C9.99508 4.43521 10.0333 3.84879 10.3975 3.3424C10.7803 2.81014 11.3473 2.62733 12.0113 2.78009C12.7296 2.94531 13.1491 3.36045 13.2423 4.11487C13.3078 4.64474 13.0985 5.343 12.4822 5.68062Z" fill="white" style="fill:white;fill-opacity:1;"/>
<path d="M44.061 26.7926C44.061 26.4748 44.061 26.188 44.061 25.8829C44.5592 25.8829 45.0368 25.8829 45.5459 25.8829C45.5459 26.6192 45.5459 27.3478 45.5459 28.0764C45.5459 28.8078 45.5459 29.5392 45.5459 30.2947C45.0592 30.2947 44.5814 30.2947 44.061 30.2947C44.061 29.1434 44.061 27.9834 44.061 26.7926Z" fill="white" style="fill:white;fill-opacity:1;"/>
<path d="M44.7032 23.8244C45.3949 23.8252 45.7648 24.334 45.5422 24.9419C45.4094 25.3048 45.0525 25.4615 44.5725 25.3676C44.306 25.3155 44.0644 24.9963 44.0609 24.6917C44.0548 24.153 44.1372 24.0373 44.7032 23.8244Z" fill="white" style="fill:white;fill-opacity:1;"/>
<path d="M74.3217 3.03668C75.128 2.50364 76.4598 2.76563 76.6895 3.82945C76.9217 4.90508 76.4859 5.73613 75.2967 5.87192C74.6359 5.94737 74.0213 5.50074 73.7876 4.87581C73.5412 4.21727 73.748 3.48434 74.3217 3.03668Z" fill="black" style="fill:black;fill-opacity:1;"/>
<path d="M22.8576 12.4528C23.1812 12.1431 23.5971 12.2361 23.9574 12.1323C24.0145 12.1159 24.0802 12.1295 24.142 12.1295C24.6446 12.1295 25.1471 12.1295 25.6443 12.1295C25.9084 13.2315 25.1313 13.9402 24.2679 14.1189C23.8913 14.1968 23.5447 14.1599 23.201 14.039C22.5694 13.8169 22.3758 12.9473 22.8576 12.4528Z" fill="black" style="fill:black;fill-opacity:1;"/>
<path d="M68.7595 14.0707C68.2094 14.2234 67.6862 14.2668 67.203 13.9392C66.9005 13.7341 66.7207 13.2956 66.7941 12.9785C66.911 12.4731 67.1175 12.2206 67.5981 12.1953C68.3547 12.1555 69.1148 12.1847 69.884 12.1847C70.1009 13.0897 69.7198 13.7525 68.7595 14.0707Z" fill="white" style="fill:white;fill-opacity:1;"/>
<path d="M70.0899 28.9093C69.6103 28.3881 69.6773 27.2048 70.6394 26.9883C70.8816 26.9338 71.3347 27.1096 71.494 27.3477C71.8534 27.8846 71.8068 28.7262 71.2597 29.0765C70.8911 29.3125 70.4427 29.2615 70.0899 28.9093Z" fill="black" style="fill:black;fill-opacity:1;"/>
<path d="M66.896 28.4508C66.696 29.1486 66.142 29.3096 65.7282 29.1775C65.1159 28.9819 64.9492 28.2509 65.0717 27.7726C65.1725 27.3791 65.3957 27.0814 65.7927 26.9882C66.1402 26.9067 66.4708 27.011 66.6925 27.3118C66.9373 27.644 67.0361 28.0161 66.896 28.4508Z" fill="black" style="fill:black;fill-opacity:1;"/>
<path d="M74.5625 28.0408C74.6293 27.6434 74.7691 27.3045 75.107 27.1098C75.7138 26.7601 76.3727 27.1898 76.4704 27.8424C76.5066 28.0851 76.4925 28.3651 76.4048 28.5905C76.2036 29.1083 75.8854 29.2684 75.3577 29.2046C74.9807 29.1591 74.7135 28.8522 74.6221 28.3614C74.6038 28.263 74.5823 28.1653 74.5625 28.0408Z" fill="black" style="fill:black;fill-opacity:1;"/>
<path d="M89.2421 11.6347C89.943 11.6376 90.3669 12.005 90.5638 12.7573C90.7317 13.3989 90.4032 14.2064 89.8725 14.47C88.9579 14.9246 88.1338 14.0946 88.1075 13.3842C88.0866 12.8159 88.1133 12.2695 88.6253 11.9032C88.7978 11.7798 89.0174 11.7225 89.2421 11.6347Z" fill="black" style="fill:black;fill-opacity:1;"/>
<path d="M94.7314 13.4062C94.7521 13.0953 94.7276 12.7999 94.8029 12.5326C94.9585 11.9798 95.4879 11.596 96.0566 11.6343C96.5697 11.6689 97.0048 12.0894 97.1479 12.6582C97.2846 13.2012 97.2266 13.7165 96.8775 14.1484C96.2756 14.8932 95.1407 14.6685 94.8038 13.7562C94.7661 13.654 94.7549 13.542 94.7314 13.4062Z" fill="black" style="fill:black;fill-opacity:1;"/>
<path d="M81.7977 14.3536C81.7007 14.032 81.8074 13.7333 82.0879 13.6853C82.6125 13.5954 83.1466 13.5609 83.6657 13.5046C83.8499 14.2227 83.4015 14.689 82.7943 14.7888C82.2494 14.8784 82.0077 14.7737 81.7977 14.3536Z" fill="black" style="fill:black;fill-opacity:1;"/>
<path d="M79.9376 14.6111C79.9716 14.6515 79.9934 14.7033 80.0152 14.7551C80.0012 14.7603 79.9872 14.7655 79.9732 14.7707C79.9573 14.739 79.9415 14.7073 79.9136 14.6606C79.9095 14.6378 79.9175 14.6302 79.9376 14.6111Z" fill="black" style="fill:black;fill-opacity:1;"/>
<path d="M36.2767 29.2054C35.4675 28.9355 35.4466 27.905 35.7354 27.4313C35.9227 27.1241 36.2416 26.9395 36.6131 26.9875C37.0168 27.0397 37.3025 27.3104 37.4178 27.6868C37.5751 28.2003 37.5058 28.6951 37.0568 29.0579C36.841 29.2322 36.5858 29.3228 36.2767 29.2054Z" fill="black" style="fill:black;fill-opacity:1;"/>
<path d="M56.3218 28.0915C56.1806 28.0915 56.0687 28.0916 55.9037 28.0916C56.1607 27.4338 56.4028 26.8138 56.6735 26.1208C56.9371 26.8004 57.1781 27.422 57.4377 28.0916C57.0583 28.0916 56.7047 28.0915 56.3218 28.0915Z" fill="black" style="fill:black;fill-opacity:1;"/>
<path d="M21.4287 28.6783C21.2347 28.1585 21.2522 27.6969 21.6338 27.2837C21.9165 26.9776 22.2567 26.9112 22.6222 27.059C22.9506 27.1918 23.1615 27.476 23.1977 27.819C23.2264 28.0916 23.1801 28.3855 23.1048 28.6524C23.0092 28.9912 22.7526 29.1745 22.3888 29.2075C21.9555 29.2469 21.6407 29.0847 21.4287 28.6783Z" fill="black" style="fill:black;fill-opacity:1;"/>
<path d="M42.0695 28.9256C41.8348 29.3253 41.3076 29.4906 40.9337 29.3188C40.7001 29.2115 40.5911 29.015 40.6755 28.809C40.7355 28.6623 40.9307 28.5089 41.0887 28.4783C41.3657 28.4247 41.6605 28.4621 41.9478 28.4636C42.0075 28.464 42.0671 28.474 42.1651 28.4831C42.1343 28.6346 42.107 28.7687 42.0695 28.9256Z" fill="black" style="fill:black;fill-opacity:1;"/>
</svg>
