<svg width="155" height="32" viewBox="0 0 155 32" fill="none" xmlns="http://www.w3.org/2000/svg">
<g clip-path="url(#clip0_5_4268)">
<path d="M5.13326 31.6379L0.918165 27.5879C0.560887 27.2445 0.549429 26.6763 0.892913 26.3188L4.96958 22.0761C5.31283 21.7186 5.30161 21.1504 4.9441 20.8069L0.645998 16.6772C0.288485 16.3337 0.277261 15.7655 0.620744 15.4082L4.69718 11.1653C5.04067 10.808 5.02945 10.2399 4.67193 9.89637L0.51225 5.89964C0.154737 5.55615 0.143514 4.98797 0.486997 4.63046L4.56344 0.38777C4.90692 0.0302574 5.4751 0.0190337 5.83262 0.362284L21.0943 15.0264C21.4516 15.3699 21.4631 15.938 21.1196 16.2956L6.40244 31.6125C6.05896 31.97 5.49077 31.9814 5.13326 31.6379Z" fill="white" style="fill:white;fill-opacity:1;"/>
<path d="M95.3921 21.8909H97.6344V22.1532C97.6344 22.7892 97.8803 23.3298 98.3736 23.7751C98.866 24.2202 99.4623 24.4428 100.162 24.4428C100.862 24.4428 101.45 24.2361 101.927 23.8227C102.42 23.3934 102.666 22.8767 102.666 22.2725C102.666 21.716 102.459 21.2947 102.047 21.0085C101.84 20.8336 101.648 20.7143 101.474 20.6507C101.299 20.5871 100.854 20.452 100.138 20.2452L98.7786 19.8398L97.8491 19.5536C96.402 19.1402 95.6785 18.2498 95.6785 16.8824C95.6785 15.7854 96.1 14.9029 96.9421 14.2351C97.7851 13.5673 98.898 13.2334 100.281 13.2334C101.601 13.2334 102.666 13.5593 103.477 14.2113C104.288 14.8631 104.694 15.7456 104.694 16.8586H102.428C102.428 15.3958 101.657 14.6644 100.115 14.6644C99.4311 14.6644 98.8824 14.8473 98.4688 15.213C98.0715 15.5628 97.8725 16.0397 97.8725 16.644C97.8725 17.3912 98.596 17.9636 100.043 18.3611L101.331 18.695L102.666 19.1243C104.161 19.6013 104.909 20.5791 104.909 22.0578C104.909 23.2503 104.471 24.1884 103.597 24.8721C102.738 25.5399 101.561 25.8738 100.066 25.8738C98.5882 25.8738 97.4354 25.5479 96.6089 24.896C95.7979 24.2441 95.3921 23.3219 95.3921 22.1294V21.8909Z" fill="white" style="fill:white;fill-opacity:1;"/>
<path d="M89.5173 25.5876V13.5912H91.6879V15.2846C92.0851 14.6326 92.5464 14.1557 93.0709 13.8535C93.5954 13.5515 94.2315 13.4004 94.9784 13.4004L95.9088 13.472V15.3561L94.9784 15.3084C93.8178 15.3084 92.9757 15.5787 92.4504 16.1193C91.9423 16.644 91.6879 17.5026 91.6879 18.6951V25.5876H89.5173Z" fill="white" style="fill:white;fill-opacity:1;"/>
<path d="M87.6957 19.8638H79.0861V20.3647C79.0861 20.8417 79.1416 21.3107 79.2532 21.7718C79.364 22.2329 79.5388 22.6622 79.7777 23.0597C80.3661 24.0614 81.2879 24.5622 82.5445 24.5622C84.0867 24.5622 85.0483 23.6718 85.4299 21.8911H87.4335C87.2742 23.1949 86.7576 24.1886 85.8834 24.8723C85.0085 25.556 83.8159 25.8978 82.3057 25.8978C80.5566 25.8978 79.2134 25.3572 78.2751 24.276C77.337 23.1949 76.8679 21.6288 76.8679 19.5776C76.8679 17.5902 77.3529 16.0558 78.3228 14.9746C79.3086 13.8776 80.6916 13.329 82.4727 13.329C84.1898 13.329 85.4939 13.8378 86.3837 14.8554C87.2742 15.873 87.7199 17.3597 87.7199 19.3153L87.6957 19.8638ZM82.4009 14.6884C81.3995 14.6884 80.5964 15.0382 79.9923 15.7379C79.4038 16.4215 79.1096 17.3914 79.1096 18.6475H85.5018V18.3136C85.5018 17.1688 85.2309 16.2784 84.6908 15.6424C84.15 15.0065 83.3866 14.6884 82.4009 14.6884Z" fill="white" style="fill:white;fill-opacity:1;"/>
<path d="M72.8823 15.6422V8.39185H75.0526V25.5876H72.8823V23.298C72.4212 24.2201 71.8726 24.88 71.2366 25.2775C70.6165 25.675 69.7977 25.8738 68.7801 25.8738C67.2537 25.8738 66.0454 25.349 65.1549 24.2997C64.2645 23.2503 63.8193 21.8034 63.8193 19.959C63.8193 17.9239 64.2804 16.3259 65.2027 15.1652C66.1248 14.0045 67.4127 13.4242 69.0663 13.4242C70.863 13.4242 72.135 14.1636 72.8823 15.6422ZM69.6148 14.7837C68.5178 14.7837 67.6433 15.2447 66.9914 16.1669C66.3395 17.0891 66.0135 18.3293 66.0135 19.8875C66.0135 21.2708 66.3077 22.3758 66.8959 23.2026C67.4843 24.0294 68.2793 24.4427 69.281 24.4427C70.4258 24.4427 71.3241 23.9737 71.976 23.0357C72.294 22.5746 72.5165 22.1055 72.6438 21.6285C72.771 21.1515 72.8346 20.4917 72.8346 19.649C72.8346 18.7268 72.771 17.9874 72.6438 17.4309C72.5165 16.8586 72.294 16.3736 71.976 15.9761C71.4195 15.1811 70.6324 14.7837 69.6148 14.7837Z" fill="white" style="fill:white;fill-opacity:1;"/>
<path d="M59.8025 25.5876V8.39185H61.9489V25.5876H59.8025Z" fill="white" style="fill:white;fill-opacity:1;"/>
<path d="M54.9006 25.5565V13.5601H57.0471V25.5565H54.9006Z" fill="white" style="fill:white;fill-opacity:1;"/>
<path d="M50.1496 23.3935C49.7203 24.2839 49.1876 24.9279 48.5516 25.3254C47.9315 25.7228 47.1366 25.9216 46.1667 25.9216C45.2444 25.9216 44.4494 25.7308 43.7816 25.3492C43.1139 24.9676 42.6607 24.4588 42.4223 23.8228C42.1997 23.1709 42.0884 22.3362 42.0884 21.3186V13.5913H44.2348V21.0085C44.2348 21.3266 44.2587 21.6843 44.3064 22.0818C44.3541 22.4634 44.4177 22.7496 44.4972 22.9404C44.6562 23.3697 44.9503 23.7274 45.3796 24.0136C45.8248 24.2839 46.3097 24.4191 46.8344 24.4191C47.9951 24.4191 48.8617 23.958 49.4341 23.0358C49.9111 22.3044 50.1496 21.2073 50.1496 19.7445V13.5913H52.2961V25.5877H50.1496V23.3935Z" fill="white" style="fill:white;fill-opacity:1;"/>
<path d="M29.0156 25.5876V8.39185H31.1621V15.6422C31.9571 14.1636 33.2371 13.4242 35.002 13.4242C36.6397 13.4242 37.9275 14.0045 38.8656 15.1652C39.8037 16.3259 40.2728 17.9239 40.2728 19.959C40.2728 21.7716 39.8276 23.2105 38.9372 24.2758C38.0467 25.3411 36.8384 25.8738 35.312 25.8738C34.3103 25.8738 33.4756 25.675 32.8078 25.2775C32.1558 24.88 31.6073 24.2201 31.1621 23.298V25.5876H29.0156ZM32.0684 15.9761C31.7505 16.4054 31.5279 16.8665 31.4006 17.3594C31.2734 17.8364 31.2098 18.5201 31.2098 19.4105V19.6251C31.2098 20.5155 31.2655 21.1833 31.3768 21.6285C31.4881 22.0737 31.7186 22.5427 32.0684 23.0357C32.7521 23.9737 33.6505 24.4427 34.7635 24.4427C35.7492 24.4427 36.5442 24.0294 37.1484 23.2026C37.7526 22.3758 38.0547 21.2708 38.0547 19.8875C38.0547 18.3293 37.7288 17.0891 37.0769 16.1669C36.425 15.2447 35.5425 14.7837 34.4296 14.7837C33.412 14.7837 32.6249 15.1811 32.0684 15.9761Z" fill="white" style="fill:white;fill-opacity:1;"/>
<path d="M57.2388 11.0497C57.2388 11.7598 56.6631 12.3357 55.9528 12.3357C55.2426 12.3357 54.6667 11.7598 54.6667 11.0497C54.6667 10.3394 55.2426 9.76367 55.9528 9.76367C56.6631 9.76367 57.2388 10.3394 57.2388 11.0497Z" fill="white" style="fill:white;fill-opacity:1;"/>
<path d="M148.93 19.7923L146.378 20.8894C146.331 21.2948 146.307 21.6765 146.307 22.058C146.307 24.2045 147.547 24.4669 148.31 24.4669C149.884 24.4669 151.601 23.322 152.984 22.2966L153.08 22.4157C151.625 23.7991 148.596 25.7071 146.545 25.7071C145.209 25.7071 143.898 24.8484 143.898 22.6543C143.898 18.2659 148 13.8298 152.65 13.8298C154.154 13.8298 154.773 14.283 154.773 15.1177C154.773 17.2165 150.79 18.9814 148.93 19.7923ZM151.1 14.3546C149.121 14.3546 147.022 17.3835 146.449 20.484L148.859 19.4346C150.623 18.6476 152.65 17.9082 152.65 16.1195C152.65 15.4994 152.436 14.3546 151.1 14.3546Z" fill="white" style="fill:white;fill-opacity:1;"/>
<path d="M142.213 6.81808C140.138 6.81808 138.731 8.63063 137.609 11.7788L136.56 14.7124C137.562 14.2115 138.85 13.8299 140.114 13.8299C141.998 13.8299 143.334 14.6408 143.334 16.8588C143.334 21.0325 139.136 25.7071 134.247 25.7071C133.364 25.7071 131.647 25.564 129.739 24.8962L129.763 24.8724C130.527 24.7531 131.028 24.2523 131.624 22.702L135.463 12.2796C136.942 8.29674 140.949 6.07874 144.288 6.07874C145.504 6.07874 146.291 6.38878 147.913 6.72268L145.958 8.10599C144.717 7.53357 143.525 6.81808 142.213 6.81808ZM139.017 14.2592C137.968 14.2592 137.109 14.6647 136.418 15.1416L133.126 24.3476C133.723 24.8247 134.629 25.2062 135.63 25.2062C138.826 25.2062 141.068 20.5794 141.068 16.7157C141.068 14.9509 140.448 14.2592 139.017 14.2592Z" fill="white" style="fill:white;fill-opacity:1;"/>
<path d="M127.242 25.9217L124.976 25.5402L128.625 15.6187C128.816 15.094 128.339 14.5692 126.526 14.0207V13.973L131.439 13.8538L130.652 15.6187L127.623 23.7276C127.576 23.8468 127.576 23.8707 127.695 23.7991C128.458 23.346 129.316 22.6305 130.175 21.8196L130.246 21.8673L127.242 25.9217Z" fill="white" style="fill:white;fill-opacity:1;"/>
<path d="M125.417 13.8538C125.847 13.8538 126.181 13.9253 126.586 14.14L123.509 17.2881H123.414C124.654 15.6425 124.248 15.094 123.533 15.094C122.221 15.094 120.981 16.7396 120.147 18.5045L117.475 25.8741L115.543 25.5402L119.169 15.6187C119.359 15.094 118.882 14.5692 117.07 14.0207V13.973L121.959 13.8538L121.196 15.6187L120.909 16.3818H121.22C122.126 14.8554 123.843 13.8538 125.417 13.8538Z" fill="white" style="fill:white;fill-opacity:1;"/>
<path d="M116.601 14.5454H114.192L110.352 25.1109L113.19 25.0154L113.118 25.1109L109.994 25.9217H109.493L108.182 25.3255L108.778 23.8945L112.904 12.4705C113.261 11.4688 112.784 11.588 110.304 12.3989V12.2558L116.028 9.96619L115.504 10.9202L114.406 13.973H116.934L116.601 14.5454Z" fill="white" style="fill:white;fill-opacity:1;"/>
<path d="M131.36 9.89307C131.36 10.6034 130.784 11.1791 130.074 11.1791C129.364 11.1791 128.788 10.6034 128.788 9.89307C128.788 9.1829 129.364 8.60706 130.074 8.60706C130.784 8.60706 131.36 9.1829 131.36 9.89307Z" fill="white" style="fill:white;fill-opacity:1;"/>
</g>
<defs>
<clipPath id="clip0_5_4268">
<rect width="154.537" height="32" fill="white" style="fill:white;fill-opacity:1;" transform="translate(0.236572)"/>
</clipPath>
</defs>
</svg>
