<svg width="168" height="32" viewBox="0 0 168 32" fill="none" xmlns="http://www.w3.org/2000/svg">
<g clip-path="url(#clip0_5_4227)">
<path d="M3.70752 7.56348H23.9439L29.5449 17.3878C29.5449 17.3878 24.5887 26.7807 16.5241 31.9998C16.4654 32.0292 9.74934 27.4828 6.11218 22.409C6.17095 22.3796 10.4529 22.409 10.4529 22.409C10.4529 22.409 15.6148 27.5709 16.5241 27.659C16.5319 27.6498 23.5665 21.7549 25.4778 17.3878C25.5211 17.3924 22.116 11.3661 22.116 11.3661L3.70906 11.2779V7.56348H3.70752Z" fill="white" style="fill:white;fill-opacity:1;"/>
<path fill-rule="evenodd" clip-rule="evenodd" d="M32.2789 0C32.5773 8.30112 30.9769 13.381 30.9769 13.381L28.4083 8.90577L28.6681 3.71293C28.6681 3.71293 4.14045 3.65726 4.10334 3.71293C4.10334 11.6955 6.1879 15.5723 6.1879 15.5723H12.5866C13.2922 14.089 14.8046 13.0637 16.5565 13.0637C18.9833 13.0637 20.9505 15.0309 20.9505 17.4575C20.9505 19.8842 18.9833 21.8514 16.5565 21.8514C14.8798 21.8514 13.4225 20.9122 12.6818 19.5312H4.10334C0.306908 14.3569 0.446084 0 0.446084 0C0.446084 0 32.2789 0.0371138 32.2789 0ZM14.6627 17.4575C14.6627 16.4115 15.5106 15.5637 16.5565 15.5637C17.6025 15.5637 18.4505 16.4115 18.4505 17.4575C18.4505 18.5034 17.6025 19.3514 16.5565 19.3514C15.5106 19.3514 14.6627 18.5034 14.6627 17.4575Z" fill="white" style="fill:white;fill-opacity:1;"/>
<path d="M47.0909 11.4443C49.0507 11.4443 50.4823 11.9769 51.3876 13.0416C52.2927 14.1069 52.7451 16.0097 52.7451 18.7501C52.7451 21.4904 52.2224 23.3848 51.1776 24.4306C50.1323 25.477 48.3316 26 45.775 26C44.9726 26 43.5074 25.9071 41.3798 25.7224L40.316 25.6113V6.22229H44.0674V12.1944C45.2615 11.6945 46.269 11.4443 47.0909 11.4443ZM45.775 22.6663C47.0248 22.6663 47.8652 22.3656 48.2942 21.7638C48.7232 21.1618 48.9381 20.0832 48.9381 18.5278C48.9381 16.028 48.1541 14.7781 46.5866 14.7781C45.8399 14.7781 45.1311 14.871 44.4591 15.0555L44.0674 15.1387V22.5558C44.9255 22.6298 45.4954 22.6663 45.775 22.6663Z" fill="white" style="fill:white;fill-opacity:1;"/>
<path d="M55.5446 10V6.22229H59.2959V10H55.5446ZM55.5446 25.6666V11.7777H59.2959V25.6666H55.5446Z" fill="white" style="fill:white;fill-opacity:1;"/>
<path d="M70.5203 14.9445H67.0768V20.639C67.0768 21.1947 67.0909 21.5883 67.119 21.8197C67.1472 22.0517 67.2494 22.2504 67.4269 22.4168C67.6038 22.5832 67.8792 22.6669 68.2526 22.6669L70.38 22.611L70.5478 25.5834C69.2973 25.861 68.3456 26.0001 67.6925 26.0001C66.0131 26.0001 64.8654 25.6253 64.2491 24.8753C63.6334 24.1252 63.3255 22.741 63.3255 20.7222V14.9445H61.6742V11.7778H63.3255V7.91687H67.0768V11.7778H70.5203V14.9445Z" fill="white" style="fill:white;fill-opacity:1;"/>
<path d="M83.005 15.25C80.6908 14.9542 79.0719 14.8054 78.1483 14.8054C77.2248 14.8054 76.6274 14.8886 76.3568 15.0556C76.0863 15.222 75.9511 15.4862 75.9511 15.8476C75.9511 16.2089 76.1328 16.4585 76.497 16.5976C76.8611 16.7367 77.7939 16.9408 79.2965 17.2087C80.7985 17.4771 81.8672 17.9168 82.5018 18.5278C83.136 19.1388 83.4536 20.13 83.4536 21.5001C83.4536 24.4999 81.5783 26 77.827 26C76.5955 26 75.1022 25.8336 73.348 25.5001L72.452 25.3337L72.564 22.2229C74.8775 22.5193 76.4872 22.6675 77.3924 22.6675C78.2977 22.6675 78.9133 22.58 79.2402 22.4033C79.5665 22.2278 79.7298 21.9636 79.7298 21.6119C79.7298 21.2603 79.5572 21.0009 79.2121 20.834C78.8663 20.6675 77.9708 20.4635 76.5245 20.2229C75.0783 19.9824 74.0004 19.5749 73.2911 19.0009C72.5817 18.427 72.2273 17.4036 72.2273 15.9315C72.2273 14.4592 72.7311 13.3484 73.7391 12.5983C74.7465 11.8483 76.0434 11.4735 77.6299 11.4735C78.731 11.4735 80.233 11.6496 82.1371 12.0013L83.0607 12.1677L83.0043 15.2512L83.005 15.25Z" fill="white" style="fill:white;fill-opacity:1;"/>
<path d="M93.0819 25.9722C90.2823 25.9722 88.3831 25.2038 87.3855 23.6667C86.3872 22.13 85.8878 19.6022 85.8878 16.0833C85.8878 12.5643 86.3915 10.0602 87.3996 8.56915C88.4076 7.07871 90.3013 6.33289 93.0819 6.33289C94.7424 6.33289 96.5712 6.56489 98.5684 7.02708L98.4564 9.52694C96.7768 9.23116 95.0974 9.08236 93.4179 9.08236C91.7384 9.08236 90.6 9.57795 90.0027 10.5685C89.4053 11.5591 89.1066 13.4206 89.1066 16.1519C89.1066 18.8831 89.3955 20.7446 89.9744 21.7353C90.5528 22.7264 91.6821 23.2214 93.3616 23.2214C95.0411 23.2214 96.7389 23.0823 98.4564 22.8047L98.5402 25.3605C96.6178 25.7675 94.7987 25.9722 93.0819 25.9722Z" fill="white" style="fill:white;fill-opacity:1;"/>
<path d="M101.508 25.6666V11.7778H104.531V13.4443C106.117 12.4258 107.704 11.7686 109.29 11.4723V14.4999C107.685 14.8151 106.313 15.222 105.175 15.7219L104.56 15.9722V25.6666H101.508Z" fill="white" style="fill:white;fill-opacity:1;"/>
<path d="M120.095 11.7777H123.119V25.6665H120.095V24.8054C118.732 25.5833 117.473 25.9721 116.316 25.9721C114.394 25.9721 113.106 25.4583 112.453 24.4306C111.799 23.403 111.473 21.6022 111.473 19.0277V11.7777H114.524V19.0555C114.524 20.7222 114.664 21.8427 114.944 22.4167C115.224 22.9906 115.876 23.2778 116.903 23.2778C117.929 23.2778 118.835 23.0933 119.674 22.7222L120.095 22.5558V11.7777Z" fill="white" style="fill:white;fill-opacity:1;"/>
<path d="M129.865 25.6666H126.813V11.7778H129.836V12.639C131.199 11.861 132.485 11.4723 133.699 11.4723C135.565 11.4723 136.84 11.9958 137.521 13.0417C138.202 14.0882 138.543 15.8148 138.543 18.2223V25.6666H135.52V18.3055C135.52 16.8054 135.356 15.7407 135.029 15.1109C134.703 14.4817 134.035 14.1665 133.028 14.1665C132.076 14.1665 131.162 14.3517 130.285 14.7222L129.865 14.8886V25.6666Z" fill="white" style="fill:white;fill-opacity:1;"/>
<path d="M147.332 11.4723C148.321 11.4723 149.488 11.6022 150.831 11.8609L151.53 12L151.418 14.3887C149.944 14.2406 148.852 14.1664 148.144 14.1664C146.724 14.1664 145.774 14.4816 145.288 15.1109C144.803 15.7407 144.561 16.9262 144.561 18.6663C144.561 20.4063 144.794 21.6108 145.26 22.2776C145.727 22.9445 146.697 23.2773 148.171 23.2773L151.447 23.055L151.53 25.4717C149.646 25.8051 148.227 25.9715 147.275 25.9715C145.148 25.9715 143.65 25.4017 142.783 24.263C141.914 23.1243 141.481 21.2584 141.481 18.6656C141.481 16.0729 141.938 14.226 142.852 13.1243C143.767 12.0225 145.259 11.4717 147.331 11.4717L147.332 11.4723Z" fill="white" style="fill:white;fill-opacity:1;"/>
<path d="M157.521 25.6665H154.469V6H157.521V12.4999C158.901 11.8147 160.18 11.4722 161.356 11.4722C163.221 11.4722 164.496 11.9958 165.177 13.0416C165.858 14.0881 166.199 15.8147 166.199 18.2223V25.6665H163.147V18.3055C163.147 16.8054 162.988 15.7407 162.671 15.1109C162.354 14.4816 161.681 14.1664 160.656 14.1664C159.76 14.1664 158.864 14.3146 157.968 14.611L157.52 14.7774L157.521 25.6665Z" fill="white" style="fill:white;fill-opacity:1;"/>
</g>
<defs>
<clipPath id="clip0_5_4227">
<rect width="166.857" height="32" fill="white" style="fill:white;fill-opacity:1;" transform="translate(0.445435)"/>
</clipPath>
</defs>
</svg>
