<svg width="139" height="32" viewBox="0 0 139 32" fill="none" xmlns="http://www.w3.org/2000/svg">
<g clip-path="url(#clip0_5_4142)">
<mask id="mask0_5_4142" style="mask-type:luminance" maskUnits="userSpaceOnUse" x="0" y="0" width="139" height="32">
<path d="M138.158 0.571045H0.157593V31.4289H138.158V0.571045Z" fill="white" style="fill:white;fill-opacity:1;"/>
</mask>
<g mask="url(#mask0_5_4142)">
<path d="M36.7818 19.2136C32.9496 30.4239 22.2413 32.5425 13.2308 30.9687C11.0115 30.5813 4.4385 28.5353 2.68005 22.9302C2.5224 22.4339 1.55222 19.1652 3.17727 15.9934C5.72399 11.0299 12.4789 10.5093 16.2383 10.2188C21.8047 9.78297 25.6248 11.5141 26.4009 11.8773C27.7956 12.5311 28.7294 13.2211 29.3478 13.6327C28.3292 12.5916 24.1453 7.56755 14.8922 7.31332C6.64566 7.0712 1.23691 11.8047 0.157593 12.7853C3.9898 1.58713 14.6982 -0.543546 23.7087 1.03025C25.928 1.41764 32.5009 3.46358 34.2594 9.06871C34.417 9.56506 35.3872 12.8337 33.7622 16.0055C31.2154 20.969 24.4606 21.4896 20.7011 21.7922C15.1226 22.2281 11.3147 20.4969 10.5385 20.1337C9.13174 19.4558 8.19794 18.7778 7.57946 18.3662C8.58602 19.4073 12.782 24.4314 22.023 24.6856C30.2938 24.9277 35.7025 20.1942 36.7818 19.2136Z" fill="white" style="fill:white;fill-opacity:1;"/>
<path d="M63.1981 11.4964C62.4528 10.2402 61.4147 9.25131 60.1371 8.5564C58.8328 7.86149 57.3954 7.51404 55.7984 7.51404C54.1215 7.51404 52.6308 7.88822 51.2999 8.60986C49.969 9.33149 48.9309 10.3471 48.1856 11.63C47.4403 12.913 47.0677 14.3562 47.0677 15.9866C47.0677 17.617 47.4669 19.087 48.2388 20.3431C49.0107 21.626 50.1022 22.615 51.4863 23.3633C52.897 24.085 54.5206 24.4591 56.3839 24.4591C57.8744 24.4591 59.1787 24.2186 60.3233 23.7642C61.4678 23.3099 62.3996 22.6417 63.1449 21.7864L60.6427 19.0602C60.0837 19.5948 59.4982 19.9957 58.8328 20.263C58.1673 20.5302 57.422 20.6639 56.5703 20.6639C55.5588 20.6639 54.7069 20.4768 54.0149 20.1293C53.2962 19.7819 52.7373 19.2473 52.3381 18.5791C52.1251 18.205 51.9388 17.804 51.8589 17.3497H64.2628C64.2894 17.1359 64.2894 16.922 64.316 16.6815C64.3427 16.441 64.3426 16.2271 64.3426 16.04C64.3159 14.276 63.9434 12.7526 63.1981 11.4964ZM51.779 14.57C51.8588 14.0622 52.0187 13.5811 52.2316 13.1802C52.5776 12.5388 53.0567 12.031 53.6688 11.6835C54.2811 11.336 54.9998 11.1489 55.825 11.1489C56.6235 11.1489 57.3421 11.336 57.9543 11.6835C58.5665 12.031 59.0457 12.5388 59.3918 13.1802C59.6313 13.6079 59.7643 14.0622 59.8442 14.5968H51.779V14.57Z" fill="#FAFAFA" style="fill:#FAFAFA;fill:color(display-p3 0.9804 0.9804 0.9804);fill-opacity:1;"/>
<path d="M82.4222 11.4964C81.6769 10.2402 80.6388 9.25131 79.3612 8.5564C78.0569 7.86149 76.6196 7.51404 74.9959 7.51404C73.319 7.51404 71.8284 7.88822 70.4975 8.60986C69.1666 9.33149 68.1285 10.3471 67.3832 11.63C66.6379 12.913 66.2653 14.383 66.2653 16.0133C66.2653 17.6437 66.6379 19.1137 67.4364 20.3699C68.2084 21.6528 69.2997 22.6417 70.7104 23.39C72.1212 24.1117 73.7448 24.4859 75.6081 24.4859C77.0987 24.4859 78.4029 24.2453 79.5475 23.791C80.6921 23.3366 81.6237 22.6684 82.369 21.8131L79.8403 19.0602C79.2813 19.5948 78.6957 19.9957 78.0303 20.263C77.3649 20.5302 76.6196 20.6639 75.7678 20.6639C74.7829 20.6639 73.9046 20.4768 73.2125 20.1293C72.4938 19.7819 71.9348 19.2473 71.5356 18.5791C71.3226 18.205 71.1629 17.804 71.0565 17.3497H83.4603C83.4869 17.1359 83.5135 16.922 83.5135 16.6815C83.5402 16.441 83.5402 16.2271 83.5402 16.04C83.5402 14.276 83.1675 12.7526 82.4222 11.4964ZM70.9766 14.57C71.0565 14.0622 71.2162 13.5811 71.4291 13.1802C71.7751 12.5388 72.2543 12.031 72.8665 11.6835C73.4787 11.336 74.1973 11.1489 75.0225 11.1489C75.8476 11.1489 76.5397 11.336 77.1519 11.6835C77.7641 12.031 78.2432 12.5388 78.5893 13.1802C78.8288 13.6079 78.9619 14.0622 79.0418 14.5968H70.9766V14.57Z" fill="#FAFAFA" style="fill:#FAFAFA;fill:color(display-p3 0.9804 0.9804 0.9804);fill-opacity:1;"/>
<path d="M92.2109 24.4859C90.8029 24.4859 89.4746 24.3255 88.1995 23.978C86.9243 23.6306 85.8882 23.2297 85.1178 22.6951L86.6586 19.3008C87.429 19.7551 88.3323 20.1293 89.3418 20.4233C90.3779 20.7173 91.3874 20.8777 92.3703 20.8777C93.4595 20.8777 94.2299 20.744 94.7081 20.4768C95.1597 20.2095 95.3988 19.8353 95.3988 19.381C95.3988 19.0068 95.2129 18.7128 94.8675 18.499C94.5221 18.3119 94.044 18.1515 93.4595 18.0446C92.8751 17.9377 92.2375 17.8308 91.5202 17.7506C90.8029 17.6437 90.1122 17.51 89.3949 17.323C88.7042 17.1359 88.0401 16.8686 87.4556 16.5479C86.8446 16.2004 86.393 15.746 86.021 15.158C85.6757 14.57 85.4897 13.795 85.4897 12.8595C85.4897 11.8171 85.782 10.9084 86.393 10.0799C87.004 9.27804 87.8541 8.63658 88.9699 8.20895C90.1122 7.72786 91.4671 7.51404 93.061 7.51404C94.2034 7.51404 95.3457 7.64767 96.488 7.88822C97.6304 8.15549 98.6133 8.50295 99.3837 8.95731L97.7632 12.3517C96.9928 11.8973 96.1958 11.5766 95.3988 11.3895C94.6018 11.2024 93.8314 11.1222 93.1141 11.1222C92.0249 11.1222 91.228 11.2559 90.7498 11.5499C90.2716 11.8439 90.0325 12.1913 90.0325 12.6457C90.0325 13.0466 90.2185 13.3673 90.5904 13.5811C90.9623 13.795 91.4405 13.9553 92.0249 14.0622C92.6094 14.1691 93.2735 14.276 93.9643 14.3562C94.6815 14.4631 95.3723 14.5968 96.063 14.7839C96.7537 14.971 97.3913 15.2382 98.0023 15.559C98.6133 15.9064 99.0649 16.3608 99.4368 16.9488C99.7822 17.5368 99.9682 18.3119 99.9682 19.2473C99.9682 20.2362 99.6759 21.145 99.0649 21.92C98.4539 22.6951 97.5772 23.3366 96.4349 23.7642C95.2394 24.2453 93.8314 24.4859 92.2109 24.4859Z" fill="#FAFAFA" style="fill:#FAFAFA;fill:color(display-p3 0.9804 0.9804 0.9804);fill-opacity:1;"/>
<path d="M117.839 11.4964C117.093 10.2402 116.053 9.25131 114.774 8.5564C113.468 7.86149 112.028 7.51404 110.402 7.51404C108.723 7.51404 107.23 7.88822 105.897 8.60986C104.564 9.33149 103.525 10.3471 102.778 11.63C102.032 12.913 101.659 14.383 101.659 16.0133C101.659 17.6437 102.032 19.1137 102.805 20.3699C103.578 21.6528 104.671 22.6417 106.084 23.39C107.497 24.1117 109.123 24.4859 110.989 24.4859C112.481 24.4859 113.788 24.2453 114.934 23.791C116.08 23.3366 117.013 22.6684 117.759 21.8131L115.227 19.0602C114.667 19.5948 114.081 19.9957 113.414 20.263C112.748 20.5302 112.002 20.6639 111.149 20.6639C110.162 20.6639 109.309 20.4768 108.589 20.1293C107.87 19.7819 107.31 19.2473 106.91 18.5791C106.697 18.205 106.537 17.804 106.43 17.3497H118.852C118.879 17.1359 118.879 16.922 118.906 16.6815C118.932 16.441 118.932 16.2271 118.932 16.04C118.959 14.276 118.586 12.7526 117.839 11.4964ZM106.377 14.57C106.457 14.0622 106.617 13.5811 106.83 13.1802C107.177 12.5388 107.656 12.031 108.27 11.6835C108.883 11.336 109.602 11.1489 110.429 11.1489C111.255 11.1489 111.948 11.336 112.561 11.6835C113.174 12.031 113.654 12.5388 114.001 13.1802C114.241 13.6079 114.374 14.0622 114.454 14.5968H106.377V14.57Z" fill="#FAFAFA" style="fill:#FAFAFA;fill:color(display-p3 0.9804 0.9804 0.9804);fill-opacity:1;"/>
<path d="M136.988 11.4964C136.244 10.2402 135.208 9.25131 133.932 8.5564C132.656 7.86149 131.221 7.51404 129.6 7.51404C127.926 7.51404 126.437 7.88822 125.109 8.60986C123.78 9.33149 122.743 10.3471 121.999 11.63C121.255 12.913 120.883 14.383 120.883 16.0133C120.883 17.6437 121.282 19.1137 122.052 20.3699C122.823 21.6528 123.913 22.6417 125.321 23.39C126.73 24.1117 128.351 24.4859 130.211 24.4859C131.7 24.4859 133.002 24.2453 134.145 23.791C135.287 23.3366 136.218 22.6684 136.988 21.8131L134.464 19.0602C133.905 19.5948 133.321 19.9957 132.656 20.263C131.992 20.5302 131.248 20.6639 130.397 20.6639C129.414 20.6639 128.537 20.4768 127.846 20.1293C127.128 19.7819 126.57 19.2473 126.172 18.5791C125.959 18.205 125.773 17.804 125.693 17.3497H138.078C138.105 17.1359 138.105 16.922 138.131 16.6815C138.158 16.441 138.158 16.2271 138.158 16.04C138.131 14.276 137.759 12.7526 136.988 11.4964ZM125.587 14.57C125.667 14.0622 125.826 13.5811 126.039 13.1802C126.384 12.5388 126.863 12.031 127.474 11.6835C128.085 11.336 128.803 11.1489 129.627 11.1489C130.424 11.1489 131.141 11.336 131.753 11.6835C132.364 12.031 132.842 12.5388 133.188 13.1802C133.427 13.6079 133.56 14.0622 133.64 14.5968H125.587V14.57Z" fill="#FAFAFA" style="fill:#FAFAFA;fill:color(display-p3 0.9804 0.9804 0.9804);fill-opacity:1;"/>
</g>
</g>
<defs>
<clipPath id="clip0_5_4142">
<rect width="138" height="32" fill="white" style="fill:white;fill-opacity:1;" transform="translate(0.157593)"/>
</clipPath>
</defs>
</svg>
