<svg width="98" height="32" viewBox="0 0 98 32" fill="none" xmlns="http://www.w3.org/2000/svg">
<g clip-path="url(#clip0_5_4240)">
<path d="M96.3899 28.3683C96.1183 28.1945 95.8784 28.0108 95.6458 27.8252C94.4866 27.0558 93.6193 25.9197 93.1825 24.5988L93.1336 24.396L93.2785 24.2512C95.5946 21.9296 97.0344 18.8768 97.3524 15.6128C97.6704 12.3489 96.8471 9.07565 95.0227 6.35059C93.1983 3.62553 90.4856 1.61721 87.3466 0.667698C84.2077 -0.281812 80.8367 -0.113787 77.8077 1.14315C74.7787 2.4001 72.2792 4.66822 70.7348 7.5612C69.1904 10.4542 68.6967 13.7931 69.3377 17.0092C69.9788 20.2254 71.7149 23.1198 74.2504 25.1996C76.786 27.2794 79.9641 28.4158 83.2435 28.4154C85.2241 28.4159 87.1824 27.9978 88.9902 27.1888L89.2618 27.0729L89.4356 27.3146C90.7056 29.1193 92.2813 30.6882 94.0914 31.9505L97.192 28.8499C97.1349 28.8239 97.0798 28.7937 97.0272 28.7594C96.7954 28.6291 96.5836 28.5032 96.3899 28.3683ZM89.919 20.9216C88.3706 22.4766 86.3306 23.4463 84.147 23.6651C81.9634 23.8839 79.7716 23.3383 77.9454 22.1214C76.1192 20.9044 74.7718 19.0916 74.1331 16.9921C73.4944 14.8926 73.604 12.6365 74.4431 10.6087C75.2822 8.58099 76.7988 6.9072 78.7343 5.87291C80.6698 4.83863 82.9042 4.50793 85.0563 4.93725C87.2084 5.36656 89.1449 6.5293 90.5354 8.22707C91.9258 9.92484 92.6842 12.0525 92.681 14.247C92.6993 15.489 92.4637 16.7216 91.9888 17.8693C91.5139 19.017 90.8095 20.0557 89.919 20.9216Z" fill="white" style="fill:white;fill-opacity:1;"/>
<path d="M96.3899 28.3683C96.1183 28.1945 95.8784 28.0108 95.6458 27.8252C94.4866 27.0558 93.6193 25.9197 93.1825 24.5988L93.1336 24.396L93.2785 24.2512C95.5946 21.9296 97.0344 18.8768 97.3524 15.6128C97.6704 12.3489 96.8471 9.07565 95.0227 6.35059C93.1983 3.62553 90.4856 1.61721 87.3466 0.667698C84.2077 -0.281812 80.8367 -0.113787 77.8077 1.14315C74.7787 2.4001 72.2792 4.66822 70.7348 7.5612C69.1904 10.4542 68.6967 13.7931 69.3377 17.0092C69.9788 20.2254 71.7149 23.1198 74.2504 25.1996C76.786 27.2794 79.9641 28.4158 83.2435 28.4154C85.2241 28.4159 87.1824 27.9978 88.9902 27.1888L89.2618 27.0729L89.4356 27.3146C90.7056 29.1193 92.2813 30.6882 94.0914 31.9505L97.192 28.8499C97.1349 28.8239 97.0798 28.7937 97.0272 28.7594C96.7954 28.6291 96.5836 28.5032 96.3899 28.3683ZM89.919 20.9216C88.3706 22.4766 86.3306 23.4463 84.147 23.6651C81.9634 23.8839 79.7716 23.3383 77.9454 22.1214C76.1192 20.9044 74.7718 19.0916 74.1331 16.9921C73.4944 14.8926 73.604 12.6365 74.4431 10.6087C75.2822 8.58099 76.7988 6.9072 78.7343 5.87291C80.6698 4.83863 82.9042 4.50793 85.0563 4.93725C87.2084 5.36656 89.1449 6.5293 90.5354 8.22707C91.9258 9.92484 92.6842 12.0525 92.681 14.247C92.6993 15.489 92.4637 16.7216 91.9888 17.8693C91.5139 19.017 90.8095 20.0557 89.919 20.9216Z" fill="white" style="fill:white;fill-opacity:1;"/>
<path d="M15.0855 8.40344H18.8668V26.2527H15.0647L14.7578 24.1579C14.0879 24.9585 13.2482 25.6 12.2996 26.0359C11.3511 26.4718 10.3175 26.6912 9.27364 26.6782C6.8619 26.5832 4.58057 25.5583 2.90782 23.8183C1.23507 22.0783 0.300781 19.7584 0.300781 17.3448C0.300781 14.9312 1.23507 12.6113 2.90782 10.8713C4.58057 9.13138 6.8619 8.10649 9.27364 8.01146C10.3287 7.99517 11.3739 8.2163 12.332 8.65851C13.29 9.10071 14.1364 9.75266 14.8085 10.5661L15.0855 8.40344ZM14.7786 17.3657C14.7989 16.6853 14.6824 16.0078 14.4361 15.3733C14.1898 14.7388 13.8186 14.1602 13.3445 13.6718C12.8705 13.1834 12.3032 12.7951 11.6763 12.5299C11.0494 12.2647 10.3757 12.1281 9.69505 12.1281C9.0144 12.1281 8.34067 12.2647 7.71379 12.5299C7.08692 12.7951 6.51965 13.1834 6.04559 13.6718C5.57153 14.1602 5.20033 14.7388 4.95399 15.3733C4.70765 16.0078 4.59118 16.6853 4.61149 17.3657C4.58276 18.0425 4.69235 18.7182 4.93355 19.3513C5.17476 19.9844 5.54253 20.5616 6.01438 21.0478C6.48622 21.534 7.05224 21.9188 7.67785 22.1788C8.30346 22.4389 8.97552 22.5686 9.65296 22.5601C10.3347 22.5703 11.0115 22.4423 11.6425 22.184C12.2735 21.9257 12.8457 21.5423 13.3246 21.057C13.8035 20.5716 14.1792 19.9944 14.4291 19.36C14.679 18.7256 14.7979 18.0472 14.7786 17.3657Z" fill="white" style="fill:white;fill-opacity:1;"/>
<path d="M36.4589 9.42731L34.5343 12.9697C33.745 12.3826 32.7929 12.0552 31.8094 12.0327C29.8504 12.0499 27.9946 13.9229 27.9095 16.904V26.2545H23.5642V8.40526H27.2939L27.5999 10.8069C28.0612 9.9567 28.7461 9.24867 29.5805 8.75934C30.415 8.27 31.3672 8.01797 32.3345 8.03047C33.8193 8.06629 35.2579 8.55352 36.4589 9.42731Z" fill="white" style="fill:white;fill-opacity:1;"/>
<path d="M39.594 26.2536V12.3902H37.0393V8.38804H39.5741V4.13324L43.9511 3.09399V8.39075H47.8854V12.393H43.9511V26.2563L39.594 26.2536Z" fill="white" style="fill:white;fill-opacity:1;"/>
<path d="M53.4573 18.7942C53.6936 19.9765 54.3421 21.0364 55.2871 21.7852C56.2321 22.5339 57.4123 22.9227 58.6173 22.8824C60.1887 22.9032 61.7077 22.3176 62.8585 21.2475L64.9407 24.262C63.1453 25.895 60.793 26.7786 58.3666 26.7316C57.1449 26.74 55.934 26.5033 54.8054 26.0355C53.6769 25.5677 52.6536 24.8783 51.7961 24.0081C50.9387 23.1379 50.2645 22.1046 49.8134 20.9692C49.3623 19.8339 49.1434 18.6196 49.1699 17.3983C49.1699 12.221 52.8145 8.03139 57.9067 8.03139C63.5103 8.03139 66.7123 11.915 66.7123 17.2797C66.7178 17.7867 66.6836 18.2934 66.61 18.7951L53.4573 18.7942ZM53.4917 15.4899H62.5181C62.365 14.4334 61.8261 13.4711 61.0052 12.7885C60.1844 12.106 59.1399 11.7516 58.0732 11.7937C56.9963 11.771 55.9459 12.1295 55.1076 12.806C54.2693 13.4824 53.697 14.4325 53.4917 15.4899ZM60.9683 6.02077H57.7663L54.224 1.30249H58.6526L60.9683 6.02077Z" fill="white" style="fill:white;fill-opacity:1;"/>
</g>
<defs>
<clipPath id="clip0_5_4240">
<rect width="97.4074" height="32" fill="white" style="fill:white;fill-opacity:1;" transform="translate(0.30249)"/>
</clipPath>
</defs>
</svg>
