<svg width="146" height="32" viewBox="0 0 146 32" fill="none" xmlns="http://www.w3.org/2000/svg">
<path d="M63.9063 29.636C61.2708 29.636 59.0081 29.0423 57.1165 27.8554C55.2248 26.668 53.7711 25.0703 52.7536 23.0614C51.7361 21.0531 51.2274 18.8226 51.2274 16.3701C51.2274 13.9176 51.7486 11.6883 52.7921 9.6788C53.8357 7.67101 55.3154 6.07226 57.2332 4.8848C59.1509 3.69792 61.4006 3.1042 63.9828 3.1042C66.7747 3.1042 69.1944 3.7897 71.2418 5.15844C73.2892 6.52775 74.7968 8.2959 75.761 10.4612H72.5522C71.7698 9.07884 70.6798 7.98317 69.2844 7.17473C67.8885 6.36629 66.1991 5.96122 64.2174 5.96122C62.1297 5.96122 60.3298 6.42521 58.8172 7.35092C57.3045 8.2772 56.1488 9.52301 55.354 11.0878C54.558 12.6525 54.1597 14.4139 54.1597 16.3701C54.1597 18.3263 54.5512 20.0548 55.3336 21.6332C56.0928 23.1867 57.2808 24.4904 58.7571 25.3904C60.2573 26.3167 62.051 26.7801 64.1381 26.7801C65.7028 26.7801 67.1837 26.4408 68.5791 25.7626C69.9535 25.1025 71.1282 24.0897 71.9834 22.8274C72.8576 21.5499 73.2949 20.0095 73.2949 18.2096H63.8248V15.5481H75.995V29.3227H73.2949V24.7452C72.7465 25.5802 72.0423 26.3683 71.1817 27.1127C70.3206 27.8566 69.2833 28.4622 68.0704 28.9318C66.8574 29.4009 65.4677 29.636 63.903 29.636H63.9063ZM88.6054 29.636C86.7002 29.636 85.038 29.1862 83.6154 28.286C82.1934 27.3863 81.0921 26.1672 80.3097 24.6273C79.5273 23.0886 79.1359 21.3924 79.1359 19.5404C79.1359 17.6884 79.5273 15.9599 80.3097 14.4331C81.0921 12.9069 82.1946 11.694 83.6154 10.7937C85.0369 9.89408 86.7002 9.44369 88.6054 9.44369C90.2218 9.44369 91.6115 9.75698 92.7729 10.3836C93.9325 11.0096 94.8792 11.8577 95.6095 12.9273V9.75812H98.5447V29.3239H95.6095V26.1932C94.8792 27.2368 93.9325 28.0713 92.7729 28.6979C91.6115 29.3239 90.2218 29.6372 88.6054 29.6372V29.636ZM88.9964 26.9745C90.4574 26.9745 91.6896 26.6351 92.6947 25.957C93.6986 25.2783 94.4617 24.3718 94.984 23.2376C95.5058 22.1023 95.767 20.8701 95.767 19.5393C95.767 18.2085 95.5058 16.9434 94.984 15.8217C94.4617 14.7 93.6986 13.8003 92.6947 13.1216C91.6896 12.4435 90.4574 12.1041 88.9964 12.1041C87.5358 12.1041 86.3223 12.4435 85.2788 13.1216C84.2492 13.7841 83.4231 14.7186 82.892 15.8217C82.3436 16.9434 82.0699 18.1824 82.0699 19.5393C82.0699 20.8961 82.3436 22.1023 82.892 23.2376C83.4404 24.3729 84.2352 25.2794 85.2788 25.957C86.3212 26.6351 87.5613 26.9745 88.9964 26.9745ZM102.786 29.3227V1.93091H105.721V29.3227H102.786ZM107.739 29.3227L115.292 19.2271L108.21 9.75698H111.966L117.015 17.1525L122.023 9.75698H125.78L118.697 19.2271L126.288 29.3227H122.532L117.014 21.3403L111.457 29.3227H107.739ZM136.012 29.636C134.029 29.636 132.295 29.1862 130.808 28.286C129.321 27.3863 128.166 26.1672 127.344 24.6273C126.522 23.0886 126.112 21.3924 126.112 19.5404C126.112 17.6884 126.504 15.9599 127.286 14.4331C128.047 12.9303 129.212 11.6698 130.651 10.7937C132.111 9.89408 133.833 9.44369 135.816 9.44369C137.8 9.44369 139.553 9.89408 141.002 10.7937C142.45 11.694 143.565 12.9069 144.347 14.4331C145.129 15.9599 145.521 17.6612 145.521 19.5404V20.7143H129.124C129.28 21.8626 129.652 22.9119 130.24 23.8642C130.821 24.8116 131.637 25.5931 132.608 26.1332C133.599 26.694 134.747 26.9745 136.052 26.9745C137.434 26.9745 138.596 26.668 139.534 26.0555C140.453 25.4644 141.207 24.6496 141.725 23.6874H144.934C144.256 25.4358 143.179 26.864 141.706 27.9727C140.232 29.082 138.334 29.636 136.012 29.636ZM129.164 17.9745H142.468C142.207 16.3055 141.503 14.9096 140.355 13.7879C139.206 12.6661 137.693 12.1053 135.815 12.1053C133.938 12.1053 132.43 12.6661 131.296 13.7879C130.161 14.9096 129.45 16.3055 129.164 17.9745ZM31.0022 5.28761L3.18827 21.346L29.0289 2.27536C29.2265 2.13223 29.451 2.03069 29.6889 1.97687C29.9269 1.92306 30.1733 1.91809 30.4132 1.96228C30.6531 2.00647 30.8815 2.09889 31.0847 2.23394C31.2878 2.369 31.4614 2.54388 31.595 2.748C31.7286 2.95212 31.8194 3.18122 31.8618 3.42144C31.9043 3.66167 31.8975 3.90801 31.842 4.14555C31.7865 4.38308 31.6833 4.60688 31.5387 4.80339C31.3942 4.99989 31.2113 5.16501 31.001 5.28875L31.0022 5.28761ZM34.9764 19.1863C34.797 18.876 34.5017 18.6497 34.1555 18.5571C33.8093 18.4644 33.4404 18.5131 33.1301 18.6923L14.7161 29.3227L34.3271 21.1086C34.5041 21.0344 34.6633 20.9234 34.794 20.7829C34.9247 20.6424 35.0241 20.4757 35.0854 20.2939C35.1467 20.112 35.1686 19.9192 35.1496 19.7282C35.1306 19.5373 35.0712 19.3526 34.9753 19.1863H34.9764ZM44.2669 4.9358C44.0823 4.61629 43.8344 4.33782 43.5384 4.11741C43.2425 3.89699 42.9046 3.73927 42.5456 3.6539C42.1866 3.56852 41.814 3.55728 41.4505 3.62086C41.087 3.68444 40.7402 3.82151 40.4315 4.02368L0.204346 30.3754L43.1395 8.71343C43.469 8.54719 43.7611 8.31546 43.9979 8.03244C44.2347 7.74942 44.4113 7.42105 44.5169 7.06743C44.6224 6.7138 44.6547 6.34237 44.6117 5.97584C44.5687 5.60932 44.4514 5.25542 44.2669 4.9358Z" fill="white" style="fill:white;fill-opacity:1;"/>
</svg>
