<svg width="197" height="32" viewBox="0 0 197 32" fill="none" xmlns="http://www.w3.org/2000/svg">
<path d="M17.9155 13.3888H14.4223C14.3227 12.8159 14.139 12.3084 13.8713 11.8663C13.6035 11.418 13.2704 11.0382 12.8719 10.7268C12.4734 10.4155 12.0188 10.182 11.5082 10.0263C11.0038 9.86442 10.459 9.78347 9.8737 9.78347C8.83383 9.78347 7.91228 10.045 7.10903 10.568C6.30578 11.0849 5.67688 11.8445 5.22233 12.847C4.76778 13.8433 4.5405 15.0606 4.5405 16.499C4.5405 17.9623 4.76778 19.1952 5.22233 20.1977C5.6831 21.194 6.31201 21.9474 7.10903 22.458C7.91228 22.9624 8.83072 23.2145 9.86436 23.2145C10.4372 23.2145 10.9727 23.1398 11.4709 22.9904C11.9752 22.8347 12.4267 22.6074 12.8252 22.3085C13.2299 22.0097 13.5693 21.6423 13.8432 21.2064C14.1234 20.7705 14.3165 20.2724 14.4223 19.712L17.9155 19.7307C17.7848 20.6398 17.5014 21.4928 17.0656 22.2899C16.6359 23.0869 16.0724 23.7905 15.375 24.4007C14.6776 25.0047 13.8619 25.478 12.9279 25.8204C11.9939 26.1567 10.9571 26.3248 9.81766 26.3248C8.13644 26.3248 6.6358 25.9356 5.31573 25.1573C3.99566 24.3789 2.9558 23.255 2.19613 21.7855C1.43647 20.316 1.05664 18.5538 1.05664 16.499C1.05664 14.438 1.43958 12.6758 2.20547 11.2125C2.97136 9.743 4.01434 8.61907 5.33441 7.84073C6.65448 7.06239 8.14889 6.67322 9.81766 6.67322C10.8824 6.67322 11.8725 6.82266 12.7878 7.12154C13.7031 7.42043 14.5188 7.85941 15.2349 8.4385C15.951 9.01136 16.5394 9.71498 17.0002 10.5494C17.4672 11.3775 17.7723 12.324 17.9155 13.3888Z" fill="white" style="fill:white;fill-opacity:1;"/>
<path d="M20.9394 26.0633V11.7169H24.2178V14.1079H24.3672C24.6287 13.2798 25.0771 12.6415 25.7122 12.1932C26.3535 11.7387 27.0852 11.5114 27.9071 11.5114C28.0939 11.5114 28.3025 11.5207 28.5329 11.5394C28.7695 11.5519 28.9656 11.5737 29.1213 11.6048V14.715C28.9781 14.6652 28.7508 14.6216 28.4395 14.5843C28.1344 14.5407 27.8386 14.5189 27.5522 14.5189C26.9357 14.5189 26.3816 14.6528 25.8896 14.9205C25.404 15.1821 25.021 15.5463 24.7408 16.0133C24.4606 16.4803 24.3205 17.0189 24.3205 17.6292V26.0633H20.9394Z" fill="white" style="fill:white;fill-opacity:1;"/>
<path d="M37.1281 26.3435C35.6897 26.3435 34.4475 26.0446 33.4014 25.4468C32.3616 24.8428 31.5614 23.9898 31.001 22.8876C30.4406 21.7793 30.1604 20.4748 30.1604 18.9741C30.1604 17.4984 30.4406 16.2032 31.001 15.0887C31.5676 13.9678 32.3584 13.0961 33.3734 12.4734C34.3884 11.8445 35.5808 11.5301 36.9507 11.5301C37.8349 11.5301 38.6692 11.6733 39.4538 11.9597C40.2446 12.2399 40.942 12.6758 41.546 13.2673C42.1562 13.8589 42.6357 14.6123 42.9844 15.5276C43.3331 16.4367 43.5074 17.5202 43.5074 18.778V19.8147H31.7482V17.5358H40.2664C40.2602 16.8882 40.1201 16.3122 39.8461 15.8078C39.5721 15.2972 39.1892 14.8956 38.6973 14.603C38.2116 14.3103 37.6449 14.164 36.9974 14.164C36.3062 14.164 35.6991 14.3321 35.176 14.6683C34.653 14.9984 34.2451 15.4342 33.9525 15.976C33.6661 16.5115 33.5197 17.0999 33.5135 17.7412V19.7307C33.5135 20.5651 33.6661 21.2811 33.9712 21.8789C34.2763 22.4704 34.7028 22.925 35.2508 23.2426C35.7987 23.5539 36.4401 23.7096 37.1748 23.7096C37.6667 23.7096 38.1119 23.6411 38.5105 23.5041C38.909 23.3609 39.2545 23.1523 39.5472 22.8783C39.8399 22.6043 40.0609 22.265 40.2104 21.8602L43.3673 22.2151C43.1681 23.0495 42.7882 23.7781 42.2278 24.4007C41.6736 25.0172 40.9638 25.4966 40.0983 25.8391C39.2328 26.1754 38.2427 26.3435 37.1281 26.3435Z" fill="white" style="fill:white;fill-opacity:1;"/>
<path d="M50.4961 26.3528C49.587 26.3528 48.7682 26.1909 48.0397 25.8671C47.3174 25.5371 46.7445 25.0514 46.3211 24.4101C45.9039 23.7687 45.6953 22.9779 45.6953 22.0377C45.6953 21.2282 45.8448 20.5588 46.1437 20.0296C46.4425 19.5003 46.8504 19.0769 47.3672 18.7593C47.884 18.4417 48.4662 18.202 49.1138 18.0401C49.7676 17.872 50.4432 17.7506 51.1406 17.6759C51.9812 17.5887 52.663 17.5108 53.1861 17.4424C53.7091 17.3676 54.089 17.2556 54.3256 17.1061C54.5684 16.9504 54.6898 16.7107 54.6898 16.3869V16.3309C54.6898 15.6273 54.4813 15.0824 54.0641 14.6964C53.6469 14.3103 53.046 14.1173 52.2614 14.1173C51.4333 14.1173 50.7763 14.2979 50.2907 14.659C49.8112 15.0202 49.4874 15.4467 49.3193 15.9386L46.1623 15.4903C46.4114 14.6185 46.8224 13.89 47.3952 13.3047C47.9681 12.7132 48.6686 12.2711 49.4967 11.9784C50.3249 11.6795 51.2402 11.5301 52.2427 11.5301C52.9339 11.5301 53.622 11.611 54.3069 11.7729C54.9918 11.9348 55.6176 12.2026 56.1843 12.5762C56.7509 12.9435 57.2054 13.4448 57.5479 14.0799C57.8966 14.715 58.071 15.509 58.071 16.4616V26.0633H54.8206V24.0925H54.7085C54.503 24.491 54.2135 24.8646 53.8399 25.2133C53.4725 25.5558 53.0086 25.8329 52.4482 26.0446C51.894 26.2501 51.2434 26.3528 50.4961 26.3528ZM51.3741 23.8683C52.0528 23.8683 52.6413 23.7345 53.1394 23.4667C53.6375 23.1927 54.0205 22.8316 54.2882 22.3833C54.5622 21.9349 54.6992 21.4461 54.6992 20.9169V19.2263C54.5933 19.3135 54.4128 19.3944 54.1575 19.4692C53.9084 19.5439 53.6282 19.6093 53.3169 19.6653C53.0055 19.7213 52.6973 19.7712 52.3922 19.8147C52.0871 19.8583 51.8224 19.8957 51.5983 19.9268C51.0939 19.9953 50.6425 20.1074 50.244 20.2631C49.8454 20.4187 49.531 20.6367 49.3006 20.9169C49.0702 21.1909 48.955 21.5458 48.955 21.9816C48.955 22.6043 49.1823 23.0744 49.6369 23.392C50.0914 23.7096 50.6705 23.8683 51.3741 23.8683Z" fill="white" style="fill:white;fill-opacity:1;"/>
<path d="M68.6346 11.7169V14.3321H60.3873V11.7169H68.6346ZM62.4235 8.27972H65.8046V21.7481C65.8046 22.2027 65.8731 22.5514 66.0101 22.7942C66.1533 23.0309 66.3401 23.1927 66.5705 23.2799C66.8008 23.3671 67.0561 23.4107 67.3363 23.4107C67.5481 23.4107 67.7411 23.3951 67.9154 23.364C68.096 23.3328 68.233 23.3048 68.3264 23.2799L68.8961 25.9232C68.7156 25.9854 68.4572 26.0539 68.1209 26.1287C67.7909 26.2034 67.3862 26.247 66.9067 26.2594C66.0599 26.2843 65.2971 26.1567 64.6184 25.8765C63.9397 25.59 63.401 25.1479 63.0025 24.5502C62.6103 23.9524 62.4172 23.2052 62.4235 22.3085V8.27972Z" fill="white" style="fill:white;fill-opacity:1;"/>
<path d="M77.6595 26.3435C76.2211 26.3435 74.9789 26.0446 73.9328 25.4468C72.8929 24.8428 72.0928 23.9898 71.5324 22.8876C70.972 21.7793 70.6918 20.4748 70.6918 18.9741C70.6918 17.4984 70.972 16.2032 71.5324 15.0887C72.099 13.9678 72.8898 13.0961 73.9048 12.4734C74.9197 11.8445 76.1122 11.5301 77.482 11.5301C78.3662 11.5301 79.2006 11.6733 79.9852 11.9597C80.776 12.2399 81.4734 12.6758 82.0774 13.2673C82.6876 13.8589 83.167 14.6123 83.5157 15.5276C83.8644 16.4367 84.0388 17.5202 84.0388 18.778V19.8147H72.2796V17.5358H80.7978C80.7915 16.8882 80.6514 16.3122 80.3775 15.8078C80.1035 15.2972 79.7205 14.8956 79.2286 14.603C78.7429 14.3103 78.1763 14.164 77.5287 14.164C76.8376 14.164 76.2305 14.3321 75.7074 14.6683C75.1844 14.9984 74.7765 15.4342 74.4839 15.976C74.1974 16.5115 74.0511 17.0999 74.0449 17.7412V19.7307C74.0449 20.5651 74.1974 21.2811 74.5025 21.8789C74.8076 22.4704 75.2342 22.925 75.7821 23.2426C76.3301 23.5539 76.9714 23.7096 77.7062 23.7096C78.1981 23.7096 78.6433 23.6411 79.0418 23.5041C79.4403 23.3609 79.7859 23.1523 80.0786 22.8783C80.3712 22.6043 80.5923 22.265 80.7417 21.8602L83.8987 22.2151C83.6994 23.0495 83.3196 23.7781 82.7592 24.4007C82.205 25.0172 81.4952 25.4966 80.6296 25.8391C79.7641 26.1754 78.7741 26.3435 77.6595 26.3435Z" fill="white" style="fill:white;fill-opacity:1;"/>
<path d="M93.5727 26.0633V6.93474H100.746C102.215 6.93474 103.448 7.20872 104.445 7.75667C105.447 8.30462 106.204 9.05806 106.714 10.017C107.231 10.9697 107.489 12.0531 107.489 13.2673C107.489 14.494 107.231 15.5837 106.714 16.5364C106.197 17.4891 105.435 18.2394 104.426 18.7873C103.417 19.3291 102.175 19.5999 100.699 19.5999H95.9451V16.7512H100.232C101.091 16.7512 101.795 16.6017 102.343 16.3029C102.891 16.004 103.296 15.593 103.557 15.07C103.825 14.5469 103.959 13.946 103.959 13.2673C103.959 12.5886 103.825 11.9908 103.557 11.474C103.296 10.9572 102.888 10.5556 102.334 10.2692C101.786 9.9765 101.079 9.83017 100.214 9.83017H97.0379V26.0633H93.5727Z" fill="white" style="fill:white;fill-opacity:1;"/>
<path d="M110.35 26.0633V11.7169H113.628V14.1079H113.778C114.039 13.2798 114.488 12.6415 115.123 12.1932C115.764 11.7387 116.496 11.5114 117.318 11.5114C117.504 11.5114 117.713 11.5207 117.943 11.5394C118.18 11.5519 118.376 11.5737 118.532 11.6048V14.715C118.389 14.6652 118.161 14.6216 117.85 14.5843C117.545 14.5407 117.249 14.5189 116.963 14.5189C116.346 14.5189 115.792 14.6528 115.3 14.9205C114.814 15.1821 114.431 15.5463 114.151 16.0133C113.871 16.4803 113.731 17.0189 113.731 17.6292V26.0633H110.35Z" fill="white" style="fill:white;fill-opacity:1;"/>
<path d="M126.445 26.3435C125.044 26.3435 123.83 26.0352 122.803 25.4188C121.775 24.8024 120.978 23.94 120.411 22.8316C119.851 21.7232 119.571 20.4281 119.571 18.9461C119.571 17.4641 119.851 16.1659 120.411 15.0513C120.978 13.9367 121.775 13.0712 122.803 12.4547C123.83 11.8383 125.044 11.5301 126.445 11.5301C127.846 11.5301 129.06 11.8383 130.088 12.4547C131.115 13.0712 131.909 13.9367 132.47 15.0513C133.036 16.1659 133.32 17.4641 133.32 18.9461C133.32 20.4281 133.036 21.7232 132.47 22.8316C131.909 23.94 131.115 24.8024 130.088 25.4188C129.06 26.0352 127.846 26.3435 126.445 26.3435ZM126.464 23.6348C127.224 23.6348 127.859 23.4262 128.369 23.0091C128.88 22.5856 129.26 22.019 129.509 21.3092C129.764 20.5993 129.892 19.8085 129.892 18.9368C129.892 18.0588 129.764 17.2649 129.509 16.555C129.26 15.839 128.88 15.2692 128.369 14.8458C127.859 14.4224 127.224 14.2107 126.464 14.2107C125.686 14.2107 125.038 14.4224 124.521 14.8458C124.011 15.2692 123.628 15.839 123.372 16.555C123.123 17.2649 122.999 18.0588 122.999 18.9368C122.999 19.8085 123.123 20.5993 123.372 21.3092C123.628 22.019 124.011 22.5856 124.521 23.0091C125.038 23.4262 125.686 23.6348 126.464 23.6348Z" fill="white" style="fill:white;fill-opacity:1;"/>
<path d="M143.353 11.7169V14.3321H135.106V11.7169H143.353ZM137.142 8.27972H140.523V21.7481C140.523 22.2027 140.592 22.5514 140.729 22.7942C140.872 23.0309 141.059 23.1927 141.289 23.2799C141.519 23.3671 141.775 23.4107 142.055 23.4107C142.267 23.4107 142.46 23.3951 142.634 23.364C142.814 23.3328 142.951 23.3048 143.045 23.2799L143.615 25.9232C143.434 25.9854 143.176 26.0539 142.839 26.1287C142.509 26.2034 142.105 26.247 141.625 26.2594C140.778 26.2843 140.016 26.1567 139.337 25.8765C138.658 25.59 138.12 25.1479 137.721 24.5502C137.329 23.9524 137.136 23.2052 137.142 22.3085V8.27972Z" fill="white" style="fill:white;fill-opacity:1;"/>
<path d="M152.285 26.3435C150.884 26.3435 149.669 26.0352 148.642 25.4188C147.615 24.8024 146.818 23.94 146.251 22.8316C145.69 21.7232 145.41 20.4281 145.41 18.9461C145.41 17.4641 145.69 16.1659 146.251 15.0513C146.818 13.9367 147.615 13.0712 148.642 12.4547C149.669 11.8383 150.884 11.5301 152.285 11.5301C153.686 11.5301 154.9 11.8383 155.927 12.4547C156.955 13.0712 157.749 13.9367 158.309 15.0513C158.876 16.1659 159.159 17.4641 159.159 18.9461C159.159 20.4281 158.876 21.7232 158.309 22.8316C157.749 23.94 156.955 24.8024 155.927 25.4188C154.9 26.0352 153.686 26.3435 152.285 26.3435ZM152.303 23.6348C153.063 23.6348 153.698 23.4262 154.209 23.0091C154.719 22.5856 155.099 22.019 155.348 21.3092C155.603 20.5993 155.731 19.8085 155.731 18.9368C155.731 18.0588 155.603 17.2649 155.348 16.555C155.099 15.839 154.719 15.2692 154.209 14.8458C153.698 14.4224 153.063 14.2107 152.303 14.2107C151.525 14.2107 150.877 14.4224 150.361 14.8458C149.85 15.2692 149.467 15.839 149.212 16.555C148.963 17.2649 148.838 18.0588 148.838 18.9368C148.838 19.8085 148.963 20.5993 149.212 21.3092C149.467 22.019 149.85 22.5856 150.361 23.0091C150.877 23.4262 151.525 23.6348 152.303 23.6348Z" fill="white" style="fill:white;fill-opacity:1;"/>
<path d="M168.287 26.3435C166.854 26.3435 165.625 26.029 164.597 25.4001C163.576 24.7712 162.788 23.9026 162.234 22.7942C161.686 21.6796 161.412 20.3969 161.412 18.9461C161.412 17.4891 161.692 16.2032 162.253 15.0887C162.813 13.9678 163.604 13.0961 164.625 12.4734C165.653 11.8445 166.867 11.5301 168.268 11.5301C169.432 11.5301 170.463 11.7449 171.359 12.1745C172.262 12.598 172.981 13.1988 173.517 13.9772C174.052 14.7493 174.358 15.6522 174.432 16.6858H171.201C171.07 15.9946 170.759 15.4187 170.267 14.9579C169.781 14.4909 169.13 14.2574 168.315 14.2574C167.623 14.2574 167.016 14.4442 166.493 14.8178C165.97 15.1852 165.562 15.7144 165.27 16.4056C164.983 17.0968 164.84 17.9249 164.84 18.8901C164.84 19.8677 164.983 20.7083 165.27 21.4119C165.556 22.1093 165.958 22.6479 166.475 23.0277C166.998 23.4013 167.611 23.5881 168.315 23.5881C168.813 23.5881 169.258 23.4947 169.65 23.3079C170.049 23.1149 170.382 22.8378 170.65 22.4767C170.917 22.1155 171.101 21.6765 171.201 21.1597H174.432C174.351 22.1747 174.052 23.0744 173.536 23.859C173.019 24.6373 172.315 25.2476 171.425 25.6897C170.534 26.1255 169.488 26.3435 168.287 26.3435Z" fill="white" style="fill:white;fill-opacity:1;"/>
<path d="M183.467 26.3435C182.066 26.3435 180.851 26.0352 179.824 25.4188C178.796 24.8024 177.999 23.94 177.433 22.8316C176.872 21.7232 176.592 20.4281 176.592 18.9461C176.592 17.4641 176.872 16.1659 177.433 15.0513C177.999 13.9367 178.796 13.0712 179.824 12.4547C180.851 11.8383 182.066 11.5301 183.467 11.5301C184.868 11.5301 186.082 11.8383 187.109 12.4547C188.137 13.0712 188.93 13.9367 189.491 15.0513C190.058 16.1659 190.341 17.4641 190.341 18.9461C190.341 20.4281 190.058 21.7232 189.491 22.8316C188.93 23.94 188.137 24.8024 187.109 25.4188C186.082 26.0352 184.868 26.3435 183.467 26.3435ZM183.485 23.6348C184.245 23.6348 184.88 23.4262 185.391 23.0091C185.901 22.5856 186.281 22.019 186.53 21.3092C186.785 20.5993 186.913 19.8085 186.913 18.9368C186.913 18.0588 186.785 17.2649 186.53 16.555C186.281 15.839 185.901 15.2692 185.391 14.8458C184.88 14.4224 184.245 14.2107 183.485 14.2107C182.707 14.2107 182.059 14.4224 181.542 14.8458C181.032 15.2692 180.649 15.839 180.394 16.555C180.145 17.2649 180.02 18.0588 180.02 18.9368C180.02 19.8085 180.145 20.5993 180.394 21.3092C180.649 22.019 181.032 22.5856 181.542 23.0091C182.059 23.4262 182.707 23.6348 183.485 23.6348Z" fill="white" style="fill:white;fill-opacity:1;"/>
<path d="M196.592 6.93474V26.0633H193.211V6.93474H196.592Z" fill="white" style="fill:white;fill-opacity:1;"/>
</svg>
