<svg width="174" height="32" viewBox="0 0 174 32" fill="none" xmlns="http://www.w3.org/2000/svg">
<path d="M18.1955 2.30346C20.5849 2.90082 22.9115 4.44139 25.7411 7.27099C27.2817 8.81155 28.4764 10.132 28.3821 10.1635C28.3192 10.2264 27.093 11.3896 25.6782 12.7416L23.1001 15.2568L20.4906 12.5844C17.7868 9.78619 16.6235 9.15739 14.2026 9.15739C12.5363 9.15739 9.86386 10.6665 8.7949 12.2071C5.43081 17.0803 10.0525 23.9342 15.806 22.6452C16.5606 22.488 17.4724 22.1736 17.8496 21.9849C18.1955 21.7963 22.5342 17.6776 27.4703 12.8044C37.2796 3.08946 37.8769 2.6493 42.2471 1.95762C51.3647 0.479939 59.7592 8.87443 58.3759 17.992C57.2755 25.0661 51.3647 30.2222 44.3222 30.2222C39.7948 30.2222 36.8394 28.776 32.6579 24.563L30.1427 22.0478L32.7522 19.4697L35.3303 16.8602L37.4368 18.9667C40.6751 22.1421 41.6498 22.6766 44.0078 22.6766C46.4286 22.6766 47.2146 22.3937 48.8181 20.9474C52.7795 17.3632 51.1447 10.8552 45.8942 9.44035C44.4479 9.06307 42.6244 9.25171 41.1782 9.97483C40.6437 10.2578 36.3049 14.345 31.5575 19.061C26.7786 23.777 22.2827 27.99 21.4967 28.4301C15.7432 31.6999 8.04034 30.3794 3.70161 25.3805C2.16105 23.6513 0.777686 20.6016 0.337526 18.1178C-0.668556 12.3014 2.63265 6.01339 8.10322 3.34098C11.4673 1.67466 14.517 1.36026 18.1955 2.30346Z" fill="white" style="fill:white;fill-opacity:1;"/>
<path d="M75.251 25.098H69.0635V7.64346H75.3021C77.0578 7.64346 78.5692 7.99289 79.8362 8.69176C81.1033 9.38494 82.0777 10.3821 82.7595 11.6832C83.447 12.9844 83.7908 14.5412 83.7908 16.3537C83.7908 18.1719 83.447 19.7344 82.7595 21.0412C82.0777 22.348 81.0976 23.3508 79.8192 24.0497C78.5464 24.7486 77.0237 25.098 75.251 25.098ZM72.7538 21.9361H75.0976C76.1885 21.9361 77.1061 21.7429 77.8504 21.3565C78.6004 20.9645 79.1629 20.3594 79.5379 19.5412C79.9186 18.7173 80.1089 17.6548 80.1089 16.3537C80.1089 15.0639 79.9186 14.0099 79.5379 13.1918C79.1629 12.3736 78.6033 11.7713 77.8589 11.3849C77.1146 10.9986 76.197 10.8054 75.1061 10.8054H72.7538V21.9361Z" fill="white" style="fill:white;fill-opacity:1;"/>
<path d="M85.7362 25.098V12.0071H89.3669V25.098H85.7362ZM87.5601 10.3196C87.0203 10.3196 86.5573 10.1406 86.1709 9.78266C85.7902 9.41903 85.5999 8.98437 85.5999 8.47869C85.5999 7.97869 85.7902 7.54971 86.1709 7.19176C86.5573 6.82812 87.0203 6.6463 87.5601 6.6463C88.0999 6.6463 88.5601 6.82812 88.9408 7.19176C89.3271 7.54971 89.5203 7.97869 89.5203 8.47869C89.5203 8.98437 89.3271 9.41903 88.9408 9.78266C88.5601 10.1406 88.0999 10.3196 87.5601 10.3196Z" fill="white" style="fill:white;fill-opacity:1;"/>
<path d="M95.2882 25.3452C94.453 25.3452 93.7087 25.2003 93.0553 24.9105C92.4019 24.6151 91.8848 24.1804 91.5042 23.6065C91.1292 23.027 90.9417 22.3054 90.9417 21.4418C90.9417 20.7145 91.0752 20.1037 91.3422 19.6094C91.6093 19.1151 91.9729 18.7173 92.4331 18.4162C92.8934 18.1151 93.4161 17.8878 94.0013 17.7344C94.5922 17.581 95.2115 17.473 95.8593 17.4105C96.6206 17.331 97.2343 17.2571 97.7002 17.1889C98.1661 17.1151 98.5042 17.0071 98.7144 16.8651C98.9246 16.723 99.0297 16.5128 99.0297 16.2344V16.1832C99.0297 15.6435 98.8593 15.2258 98.5184 14.9304C98.1831 14.6349 97.7059 14.4872 97.0865 14.4872C96.4331 14.4872 95.9132 14.6321 95.5269 14.9219C95.1405 15.206 94.8848 15.5639 94.7598 15.9957L91.4019 15.723C91.5723 14.9276 91.9076 14.2401 92.4076 13.6605C92.9076 13.0753 93.5525 12.6264 94.3422 12.3139C95.1377 11.9957 96.0581 11.8366 97.1036 11.8366C97.8309 11.8366 98.5269 11.9219 99.1917 12.0923C99.8621 12.2628 100.456 12.527 100.973 12.8849C101.496 13.2429 101.908 13.7031 102.209 14.2656C102.51 14.8224 102.66 15.4901 102.66 16.2685V25.098H99.2172V23.2827H99.115C98.9047 23.6918 98.6235 24.0526 98.2712 24.3651C97.9189 24.6719 97.4956 24.9133 97.0013 25.0895C96.507 25.2599 95.936 25.3452 95.2882 25.3452ZM96.328 22.8395C96.8621 22.8395 97.3337 22.7344 97.7428 22.5241C98.1519 22.3082 98.4729 22.0185 98.7059 21.6548C98.9388 21.2912 99.0553 20.8793 99.0553 20.419V19.0298C98.9417 19.1037 98.7854 19.1719 98.5865 19.2344C98.3934 19.2912 98.1746 19.3452 97.9303 19.3963C97.686 19.4418 97.4417 19.4844 97.1973 19.5241C96.953 19.5582 96.7314 19.5895 96.5326 19.6179C96.1064 19.6804 95.7343 19.7798 95.4161 19.9162C95.0979 20.0526 94.8507 20.2372 94.6746 20.4702C94.4985 20.6974 94.4104 20.9815 94.4104 21.3224C94.4104 21.8168 94.5894 22.1946 94.9473 22.456C95.311 22.7116 95.7712 22.8395 96.328 22.8395Z" fill="white" style="fill:white;fill-opacity:1;"/>
<path d="M104.757 25.098V12.0071H108.217V14.3168H108.371C108.644 13.5497 109.098 12.9446 109.734 12.5014C110.371 12.0582 111.132 11.8366 112.019 11.8366C112.916 11.8366 113.68 12.0611 114.311 12.5099C114.942 12.9531 115.362 13.5554 115.573 14.3168H115.709C115.976 13.5668 116.459 12.9673 117.158 12.5185C117.862 12.0639 118.695 11.8366 119.655 11.8366C120.876 11.8366 121.868 12.2258 122.629 13.0043C123.396 13.777 123.78 14.8736 123.78 16.294V25.098H120.158V17.0099C120.158 16.2827 119.965 15.7372 119.578 15.3736C119.192 15.0099 118.709 14.8281 118.129 14.8281C117.47 14.8281 116.956 15.0383 116.587 15.4588C116.217 15.8736 116.033 16.4219 116.033 17.1037V25.098H112.513V16.9332C112.513 16.2912 112.328 15.7798 111.959 15.3991C111.595 15.0185 111.115 14.8281 110.519 14.8281C110.115 14.8281 109.751 14.9304 109.428 15.1349C109.109 15.3338 108.857 15.6151 108.669 15.9787C108.482 16.3366 108.388 16.7571 108.388 17.2401V25.098H104.757Z" fill="white" style="fill:white;fill-opacity:1;"/>
<path d="M129.661 25.3452C128.826 25.3452 128.081 25.2003 127.428 24.9105C126.774 24.6151 126.257 24.1804 125.877 23.6065C125.502 23.027 125.314 22.3054 125.314 21.4418C125.314 20.7145 125.448 20.1037 125.715 19.6094C125.982 19.1151 126.345 18.7173 126.806 18.4162C127.266 18.1151 127.789 17.8878 128.374 17.7344C128.965 17.581 129.584 17.473 130.232 17.4105C130.993 17.331 131.607 17.2571 132.073 17.1889C132.539 17.1151 132.877 17.0071 133.087 16.8651C133.297 16.723 133.402 16.5128 133.402 16.2344V16.1832C133.402 15.6435 133.232 15.2258 132.891 14.9304C132.556 14.6349 132.078 14.4872 131.459 14.4872C130.806 14.4872 130.286 14.6321 129.899 14.9219C129.513 15.206 129.257 15.5639 129.132 15.9957L125.774 15.723C125.945 14.9276 126.28 14.2401 126.78 13.6605C127.28 13.0753 127.925 12.6264 128.715 12.3139C129.51 11.9957 130.431 11.8366 131.476 11.8366C132.203 11.8366 132.899 11.9219 133.564 12.0923C134.235 12.2628 134.828 12.527 135.345 12.8849C135.868 13.2429 136.28 13.7031 136.581 14.2656C136.882 14.8224 137.033 15.4901 137.033 16.2685V25.098H133.59V23.2827H133.487C133.277 23.6918 132.996 24.0526 132.644 24.3651C132.291 24.6719 131.868 24.9133 131.374 25.0895C130.88 25.2599 130.308 25.3452 129.661 25.3452ZM130.701 22.8395C131.235 22.8395 131.706 22.7344 132.115 22.5241C132.524 22.3082 132.845 22.0185 133.078 21.6548C133.311 21.2912 133.428 20.8793 133.428 20.419V19.0298C133.314 19.1037 133.158 19.1719 132.959 19.2344C132.766 19.2912 132.547 19.3452 132.303 19.3963C132.058 19.4418 131.814 19.4844 131.57 19.5241C131.326 19.5582 131.104 19.5895 130.905 19.6179C130.479 19.6804 130.107 19.7798 129.789 19.9162C129.47 20.0526 129.223 20.2372 129.047 20.4702C128.871 20.6974 128.783 20.9815 128.783 21.3224C128.783 21.8168 128.962 22.1946 129.32 22.456C129.683 22.7116 130.144 22.8395 130.701 22.8395Z" fill="white" style="fill:white;fill-opacity:1;"/>
<path d="M142.76 17.5298V25.098H139.13V12.0071H142.59V14.3168H142.743C143.033 13.5554 143.519 12.9531 144.201 12.5099C144.883 12.0611 145.709 11.8366 146.681 11.8366C147.59 11.8366 148.383 12.0355 149.059 12.4332C149.735 12.831 150.26 13.3991 150.635 14.1378C151.01 14.8707 151.198 15.7457 151.198 16.7628V25.098H147.567V17.4105C147.573 16.6094 147.368 15.9844 146.954 15.5355C146.539 15.081 145.968 14.8537 145.24 14.8537C144.752 14.8537 144.32 14.9588 143.945 15.169C143.576 15.3793 143.286 15.6861 143.076 16.0895C142.871 16.4872 142.766 16.9673 142.76 17.5298Z" fill="white" style="fill:white;fill-opacity:1;"/>
<path d="M160.302 12.0071V14.7344H152.419V12.0071H160.302ZM154.209 8.87073H157.839V21.0753C157.839 21.4105 157.89 21.6719 157.993 21.8594C158.095 22.0412 158.237 22.169 158.419 22.2429C158.606 22.3168 158.822 22.3537 159.067 22.3537C159.237 22.3537 159.408 22.3395 159.578 22.3111C159.748 22.277 159.879 22.2514 159.97 22.2344L160.541 24.9361C160.359 24.9929 160.104 25.0582 159.774 25.1321C159.444 25.2116 159.044 25.2599 158.572 25.277C157.697 25.3111 156.93 25.1946 156.271 24.9276C155.618 24.6605 155.109 24.2457 154.746 23.6832C154.382 23.1207 154.203 22.4105 154.209 21.5526V8.87073Z" fill="white" style="fill:white;fill-opacity:1;"/>
<path d="M167.773 25.3537C166.426 25.3537 165.267 25.081 164.295 24.5355C163.33 23.9844 162.585 23.206 162.063 22.2003C161.54 21.1889 161.278 19.9929 161.278 18.6122C161.278 17.2656 161.54 16.0838 162.063 15.0668C162.585 14.0497 163.321 13.2571 164.27 12.6889C165.224 12.1207 166.344 11.8366 167.628 11.8366C168.492 11.8366 169.295 11.9758 170.04 12.2543C170.79 12.527 171.443 12.9389 172 13.4901C172.563 14.0412 173 14.7344 173.313 15.5696C173.625 16.3991 173.781 17.3707 173.781 18.4844V19.4815H162.727V17.2315H170.364C170.364 16.7088 170.25 16.2457 170.023 15.8423C169.795 15.4389 169.48 15.1236 169.077 14.8963C168.679 14.6633 168.216 14.5469 167.688 14.5469C167.136 14.5469 166.648 14.6747 166.222 14.9304C165.801 15.1804 165.472 15.5185 165.233 15.9446C164.994 16.3651 164.872 16.8338 164.867 17.3508V19.4901C164.867 20.1378 164.986 20.6974 165.224 21.169C165.469 21.6406 165.813 22.0043 166.256 22.2599C166.699 22.5156 167.224 22.6435 167.832 22.6435C168.236 22.6435 168.605 22.5866 168.94 22.473C169.276 22.3594 169.563 22.1889 169.801 21.9616C170.04 21.7344 170.222 21.456 170.347 21.1264L173.705 21.348C173.534 22.1548 173.185 22.8594 172.656 23.4616C172.134 24.0582 171.457 24.5241 170.628 24.8594C169.804 25.1889 168.852 25.3537 167.773 25.3537Z" fill="white" style="fill:white;fill-opacity:1;"/>
</svg>
