<svg width="199" height="32" viewBox="0 0 199 32" fill="none" xmlns="http://www.w3.org/2000/svg">
<g clip-path="url(#clip0_5_4065)">
<mask id="mask0_5_4065" style="mask-type:luminance" maskUnits="userSpaceOnUse" x="0" y="0" width="52" height="32">
<path d="M51.933 0H0.486816V32H51.933V0Z" fill="white" style="fill:white;fill-opacity:1;"/>
</mask>
<g mask="url(#mask0_5_4065)">
<path d="M0.634563 2.70769C0.0930245 1.37846 1.07764 0 2.4561 0H11.1207C11.9576 0 12.6469 0.492308 12.9423 1.23077L19.8346 18.4615C20.0315 18.9046 20.0315 19.4462 19.8346 19.9385L15.5023 30.7692C14.8623 32.4431 12.4992 32.4431 11.8099 30.7692L0.634563 2.70769Z" fill="white" style="fill:white;fill-opacity:1;"/>
<path d="M17.373 2.65846C16.9299 1.37846 17.8653 0 19.2438 0H26.8253C27.6622 0 28.4007 0.541538 28.6961 1.28L34.9976 18.5108C35.1453 18.9538 35.1453 19.3969 34.9976 19.84L31.2069 30.1785C30.5669 31.9015 28.1053 31.9015 27.4653 30.1785L17.373 2.65846Z" fill="white" style="fill:white;fill-opacity:1;"/>
<path d="M32.5362 2.70769C31.9946 1.37846 32.9793 0 34.3577 0H43.0223C43.8593 0 44.5485 0.492308 44.8439 1.23077L51.7362 18.4615C51.9331 18.9046 51.9331 19.4462 51.7362 19.9385L47.4039 30.7692C46.7639 32.4431 44.4008 32.4431 43.7116 30.7692L32.5362 2.70769Z" fill="white" style="fill:white;fill-opacity:1;"/>
</g>
<path fill-rule="evenodd" clip-rule="evenodd" d="M97.6684 3.20001C96.0438 3.20001 94.7638 4.48001 94.7638 6.15386C94.7638 7.77847 96.093 9.05847 97.6684 9.05847C99.2438 9.05847 100.573 7.77847 100.573 6.15386C100.573 4.48001 99.293 3.20001 97.6684 3.20001ZM100.228 10.5354H95.1576V28.0123H100.228V10.5354ZM65.4715 3.84001H70.3946V10.5354H74.1853V15.2123H70.3946V21.3662C70.3946 22.2523 71.0838 22.9908 71.9699 22.9908H74.1853V27.9631H71.9699C68.3761 27.9631 65.4222 25.0092 65.4222 21.3662V15.1631H63.1084V10.4862H65.4222V3.84001H65.4715ZM86.3453 10.1416C84.0315 10.1416 82.2099 11.1262 81.5207 12.6523V3.84001H76.4499V28.0123H81.5207V18.2154C81.5207 16.1969 82.8499 14.7692 84.6715 14.7692C86.5422 14.7692 87.6253 16 87.6253 18.0677V28.0616H92.6961V17.3785C92.6961 12.8492 90.4315 10.1416 86.3453 10.1416ZM107.515 10.5354V12.9477C108.302 11.1754 110.124 10.1908 112.487 10.1416C112.831 10.1416 113.275 10.1908 113.816 10.24V15.1139C113.324 15.0154 112.733 14.9662 112.142 14.9662C109.238 14.9662 107.515 16.64 107.515 19.4954V28.0123H102.395V10.5354H107.515ZM128.093 12.8C127.601 11.2739 125.582 10.1908 122.973 10.1908C120.561 10.1908 118.493 11.0769 116.868 12.8C115.244 14.5231 114.456 16.6892 114.456 19.2C114.456 21.7108 115.293 23.8769 116.868 25.6492C118.493 27.3723 120.561 28.2585 122.973 28.2585C125.582 28.2585 127.601 27.1754 128.093 25.6492V27.9631H133.164V3.84001H128.093V12.8ZM127.108 22.4C126.222 23.2369 125.188 23.6308 123.958 23.6308C122.727 23.6308 121.693 23.1877 120.856 22.4C119.97 21.5139 119.576 20.48 119.576 19.2985C119.576 18.1169 119.97 17.0831 120.856 16.1969C121.742 15.3108 122.727 14.9169 123.958 14.9169C125.238 14.9169 126.271 15.36 127.108 16.1969C127.995 17.0339 128.438 18.0677 128.438 19.2985C128.438 20.48 127.995 21.5139 127.108 22.4ZM147.884 10.6339L152.511 18.9539L155.613 10.5846H160.585L153.496 29.0462L147.884 19.0031L142.271 29.0462L135.182 10.5846H140.155L143.207 18.9539L147.884 10.6339ZM168.955 10.1416C166.345 10.1416 164.13 10.9785 162.407 12.6523C160.733 14.3262 159.847 16.4923 159.847 19.2492V19.3969C159.847 22.1046 160.733 24.32 162.407 25.9939C164.179 27.6185 166.395 28.4554 169.201 28.4554C171.81 28.4554 173.976 27.9139 175.601 26.88V22.3508C174.025 23.4831 171.958 24.0246 169.496 24.0246C166.788 24.0246 165.065 22.6954 164.967 20.6277H177.619C177.668 20.0862 177.718 19.5446 177.718 18.9539C177.718 16.4431 176.881 14.3754 175.305 12.7016C173.681 10.9785 171.564 10.1416 168.955 10.1416ZM164.967 17.28C165.016 16.4923 165.41 15.8031 166.198 15.2616C166.985 14.72 167.871 14.4246 169.004 14.4246C171.022 14.4246 172.598 15.7539 172.598 17.3292H164.967V17.28ZM189.828 10.24C192.241 10.24 194.308 11.1262 195.933 12.8492C197.558 14.6216 198.395 16.6892 198.395 19.2492C198.395 21.76 197.558 23.9262 195.933 25.6985C194.358 27.4216 192.29 28.3077 189.828 28.3077C187.219 28.3077 185.201 27.2246 184.708 25.6985V28.0123H179.638V3.84001H184.708V12.8C185.25 11.2739 187.268 10.24 189.828 10.24ZM188.893 23.6308C190.124 23.6308 191.158 23.2369 191.995 22.4C192.881 21.5139 193.275 20.48 193.275 19.2985C193.275 18.1169 192.881 17.0831 191.995 16.1969C191.158 15.3108 190.124 14.9169 188.893 14.9169C187.662 14.9169 186.579 15.36 185.693 16.1969C184.807 17.0339 184.364 18.0677 184.364 19.2985C184.364 20.48 184.807 21.5139 185.693 22.4C186.579 23.1877 187.613 23.6308 188.893 23.6308Z" fill="white" style="fill:white;fill-opacity:1;"/>
</g>
<defs>
<clipPath id="clip0_5_4065">
<rect width="197.908" height="32" fill="white" style="fill:white;fill-opacity:1;" transform="translate(0.486816)"/>
</clipPath>
</defs>
</svg>
