<svg width="86" height="32" viewBox="0 0 86 32" fill="none" xmlns="http://www.w3.org/2000/svg">
<mask id="mask0_5_4256" style="mask-type:luminance" maskUnits="userSpaceOnUse" x="0" y="0" width="27" height="32">
<path d="M0.709961 0H26.1684V32H0.709961V0Z" fill="white" style="fill:white;fill-opacity:1;"/>
</mask>
<g mask="url(#mask0_5_4256)">
<path d="M20.0107 3.86154L2.54512 16.2215C1.5037 14.5517 0.955177 12.6215 0.962723 10.6535C0.962723 4.76794 5.77392 -5.6799e-05 11.7211 -5.6799e-05C13.3018 -0.00556526 14.8643 0.337648 16.2971 1.00513C17.73 1.6726 18.998 2.64791 20.0107 3.86154Z" fill="white" style="fill:white;fill-opacity:1;"/>
<path d="M20.2236 12.9096C20.2299 10.9415 19.6815 9.01149 18.6412 7.34082L9.92836 13.5008L1.17316 19.688L0.709961 20.0184L0.731561 32C0.731561 32 12.2476 24.3008 15.878 21.4736C18.5772 19.3648 20.2236 16.412 20.2236 12.9096Z" fill="white" style="fill:white;fill-opacity:1;"/>
</g>
<mask id="mask1_5_4256" style="mask-type:luminance" maskUnits="userSpaceOnUse" x="29" y="0" width="57" height="32">
<path d="M29.3694 0H85.2366V32H29.3694V0Z" fill="white" style="fill:white;fill-opacity:1;"/>
</mask>
<g mask="url(#mask1_5_4256)">
<path d="M29.3694 8.11515H32.451L32.527 9.47995H32.571C32.9199 8.96875 33.4119 8.57191 33.9854 8.33915C34.6789 8.02855 35.432 7.87372 36.1918 7.88555C37.779 7.88555 39.0606 8.41115 40.0366 9.46395C41.0126 10.5167 41.5014 11.9279 41.5022 13.6983V14.0519C41.5022 15.8199 41.0238 17.2295 40.0654 18.2807C39.107 19.3319 37.8494 19.8623 36.291 19.8719C35.5465 19.8839 34.8066 19.7536 34.111 19.4879C33.5372 19.2859 33.0343 18.9219 32.663 18.4399V24.1983H29.3694V8.11515ZM33.6638 16.8895C34.1774 17.2223 34.779 17.3935 35.391 17.3807C36.3158 17.3807 37.0046 17.1023 37.455 16.5447C37.907 15.9871 38.1326 15.2167 38.1326 14.2335V13.5263C38.1326 12.5439 37.9086 11.7719 37.4606 11.2103C37.0126 10.6503 36.3158 10.3687 35.3678 10.3687C34.8059 10.3515 34.2507 10.4945 33.767 10.7811C33.2834 11.0677 32.8913 11.486 32.6366 11.9871V15.7231C32.8542 16.2055 33.2126 16.6111 33.6638 16.8895ZM43.7158 8.11515H46.8414L46.907 9.54555H46.9734C47.232 9.04235 47.6178 8.61566 48.0926 8.30795C48.5678 7.98479 49.1299 7.81326 49.7046 7.81595C49.8686 7.81675 50.0318 7.83515 50.191 7.87115C50.311 7.89275 50.4302 7.92555 50.5446 7.96795V10.7647C50.3999 10.7359 50.2542 10.7124 50.1078 10.6943C49.937 10.6758 49.7652 10.667 49.5934 10.6679C49.0366 10.6619 48.4912 10.826 48.0302 11.1383C47.5862 11.4263 47.2342 11.8351 47.0158 12.3175V19.6383H43.7166L43.7158 8.11515ZM51.419 13.6983C51.419 11.8839 52.0086 10.4439 53.187 9.37755C54.3654 8.31035 55.8982 7.77675 57.7838 7.77515C59.6766 7.77515 61.2086 8.30955 62.3806 9.37755C63.5518 10.4447 64.1382 11.8855 64.1398 13.6975V14.0519C64.1398 15.8655 63.5534 17.3055 62.3798 18.3719C61.2078 19.4391 59.6758 19.9735 57.7838 19.9743C55.8982 19.9743 54.3654 19.4407 53.187 18.3727C52.0086 17.3047 51.419 15.8647 51.419 14.0519V13.6983ZM54.7782 14.2287C54.7782 15.2775 55.0406 16.0807 55.5654 16.6383C56.0894 17.1959 56.8246 17.4743 57.7718 17.4727C58.7142 17.4727 59.4486 17.1943 59.9742 16.6383C60.4998 16.0823 60.7606 15.2783 60.7558 14.2287V13.5071C60.7558 12.4591 60.4926 11.6559 59.967 11.0975C59.4414 10.5391 58.7118 10.2623 57.7782 10.2679C56.8358 10.2679 56.1014 10.5471 55.5774 11.1047C55.0526 11.6623 54.7886 12.4647 54.7854 13.5143L54.7782 14.2287ZM66.3462 8.11515H69.4702L69.5358 9.55755H69.5902C69.9927 9.00932 70.5331 8.57737 71.1566 8.30555C71.8006 8.0225 72.4972 7.87908 73.2006 7.88475C73.9837 7.86693 74.7583 8.0495 75.451 8.41515C76.0852 8.75847 76.584 9.30713 76.8654 9.97115H76.899C77.3264 9.28755 77.9454 8.74475 78.679 8.41035C79.4204 8.06026 80.2303 7.8791 81.0502 7.87995C82.3046 7.87995 83.315 8.26235 84.0822 9.02715C84.8494 9.79195 85.2334 11.0671 85.235 12.8511V19.6383H81.9414V12.6599C81.9342 11.8879 81.763 11.3199 81.4286 10.9559C81.0934 10.5919 80.595 10.4095 79.931 10.4095C79.4011 10.3907 78.8793 10.5439 78.4438 10.8463C78.0078 11.1615 77.659 11.5823 77.4294 12.0703V19.6383H74.1358V12.6919C74.1286 11.9047 73.9558 11.3279 73.6174 10.9615C73.2782 10.5935 72.771 10.4095 72.0918 10.4095C71.5707 10.3977 71.0589 10.5487 70.6278 10.8415C70.1926 11.1545 69.8495 11.5786 69.6342 12.0695V19.6383H66.3462V8.11515Z" fill="white" style="fill:white;fill-opacity:1;"/>
</g>
</svg>
