<svg width="265" height="32" viewBox="0 0 265 32" fill="none" xmlns="http://www.w3.org/2000/svg">
<g clip-path="url(#clip0_5_4122)">
<path d="M0.976318 12.7177C0.976318 6.23531 6.40811 0.982368 12.8905 0.982368C16.467 0.982368 19.0152 2.3906 20.9376 4.22355L18.6576 6.48119C17.2941 5.18472 15.4387 4.17884 12.8905 4.17884C8.174 4.17884 4.48575 7.97884 4.48575 12.6953C4.48575 17.4118 8.174 21.2118 12.8905 21.2118C15.9529 21.2118 17.6964 19.9824 18.8141 18.8647C19.7305 17.9483 20.3341 16.6294 20.5576 14.8412H12.8905V11.6447H23.687C23.7988 12.2259 23.8659 12.8965 23.8659 13.6565C23.8659 16.0706 23.2176 19.0435 21.0941 21.1447C19.0152 23.2906 16.3776 24.4306 12.8905 24.4306C6.40811 24.4306 0.976318 19.1777 0.976318 12.7177Z" fill="white" style="fill:white;fill-opacity:1;"/>
<path d="M32.5611 9.34235C28.3811 9.34235 24.9834 12.5165 24.9834 16.8976C24.9834 21.2565 28.3811 24.4529 32.5611 24.4529C36.7411 24.4529 40.1388 21.2565 40.1388 16.8976C40.1388 12.5165 36.7411 9.34235 32.5611 9.34235ZM32.5611 21.4576C30.2811 21.4576 28.2917 19.58 28.2917 16.8753C28.2917 14.1482 30.2587 12.2929 32.5611 12.2929C34.8411 12.2929 36.8305 14.1482 36.8305 16.8753C36.8305 19.58 34.8411 21.4576 32.5611 21.4576Z" fill="white" style="fill:white;fill-opacity:1;"/>
<path d="M49.1023 9.34235C44.9223 9.34235 41.5247 12.5165 41.5247 16.8976C41.5247 21.2565 44.9223 24.4529 49.1023 24.4529C53.2824 24.4529 56.68 21.2565 56.68 16.8976C56.68 12.5165 53.2824 9.34235 49.1023 9.34235ZM49.1023 21.4576C46.8223 21.4576 44.8329 19.58 44.8329 16.8753C44.8329 14.1482 46.8 12.2929 49.1023 12.2929C51.4047 12.2929 53.3718 14.1482 53.3718 16.8753C53.3718 19.58 51.3824 21.4576 49.1023 21.4576Z" fill="white" style="fill:white;fill-opacity:1;"/>
<path d="M69.3989 9.78942V11.0188H69.2871C68.5495 10.1247 67.1189 9.32001 65.3083 9.32001C61.5306 9.32001 58.0659 12.6282 58.0659 16.8977C58.0659 21.1224 61.5306 24.4306 65.3083 24.4306C67.1189 24.4306 68.5495 23.6259 69.2871 22.7094H69.3989V23.8047C69.3989 26.6882 67.8566 28.2306 65.3754 28.2306C63.3412 28.2306 62.0895 26.7777 61.5753 25.5482L58.6918 26.7553C59.5189 28.7671 61.7318 31.2259 65.3977 31.2259C69.2872 31.2259 72.5731 28.9459 72.5731 23.3577V9.78942H69.3989ZM65.5989 21.4577C63.3189 21.4577 61.3965 19.5353 61.3965 16.8977C61.3965 14.2377 63.3189 12.2929 65.5989 12.2929C67.8566 12.2929 69.6224 14.2377 69.6224 16.8977C69.6448 19.5577 67.8566 21.4577 65.5989 21.4577Z" fill="white" style="fill:white;fill-opacity:1;"/>
<path d="M78.1613 23.9835H74.853V1.78705H78.1613V23.9835Z" fill="white" style="fill:white;fill-opacity:1;"/>
<path d="M87.259 21.4576C85.5602 21.4576 84.3755 20.6753 83.5931 19.1776L93.6967 14.9976L93.3614 14.1482C92.7355 12.4494 90.8132 9.34235 86.9014 9.34235C83.0119 9.34235 79.7708 12.4047 79.7708 16.8976C79.7708 21.1224 82.9672 24.4529 87.259 24.4529C90.7238 24.4529 92.7132 22.3294 93.5626 21.1L90.992 19.3788C90.1202 20.6306 88.9579 21.4576 87.259 21.4576ZM87.0131 12.2482C88.332 12.2482 89.4496 12.8965 89.8073 13.8576L83.0566 16.6518C82.9672 13.7459 85.3143 12.2482 87.0131 12.2482Z" fill="white" style="fill:white;fill-opacity:1;"/>
<path d="M108.799 3.1712C109.767 3.1712 110.562 3.3359 111.182 3.6653L110.455 6.01958C109.99 5.78706 109.467 5.67079 108.886 5.67079C108.227 5.67079 107.684 5.90332 107.258 6.36836C106.851 6.81402 106.648 7.4147 106.648 8.17039V9.97243H110.368V12.4139H106.648V24.2143H103.974V12.4139H101.3V9.97243H103.974V7.90881C103.974 6.49431 104.419 5.35108 105.311 4.47912C106.221 3.60717 107.384 3.1712 108.799 3.1712Z" fill="white" fill-opacity="0.8" style="fill:white;fill-opacity:0.8;"/>
<path d="M111.237 17.0934C111.237 14.9039 111.925 13.0921 113.3 11.6583C114.696 10.2244 116.449 9.50745 118.561 9.50745C120.673 9.50745 122.417 10.2244 123.793 11.6583C125.188 13.0921 125.886 14.9039 125.886 17.0934C125.886 19.3024 125.188 21.1141 123.793 22.5286C122.417 23.9625 120.673 24.6794 118.561 24.6794C116.449 24.6794 114.696 23.9625 113.3 22.5286C111.925 21.0947 111.237 19.283 111.237 17.0934ZM113.911 17.0934C113.911 18.6242 114.356 19.8643 115.248 20.8138C116.139 21.7632 117.244 22.238 118.561 22.238C119.879 22.238 120.983 21.7632 121.875 20.8138C122.766 19.8643 123.212 18.6242 123.212 17.0934C123.212 15.5821 122.766 14.3516 121.875 13.4022C120.964 12.4333 119.859 11.9489 118.561 11.9489C117.263 11.9489 116.159 12.4333 115.248 13.4022C114.356 14.3516 113.911 15.5821 113.911 17.0934Z" fill="white" fill-opacity="0.8" style="fill:white;fill-opacity:0.8;"/>
<path d="M130.733 24.2144H128.059V9.97246H130.617V12.2977H130.733C131.004 11.542 131.557 10.9025 132.39 10.3794C133.242 9.83682 134.076 9.56555 134.889 9.56555C135.664 9.56555 136.323 9.68181 136.866 9.91433L136.052 12.5011C135.723 12.3655 135.199 12.2977 134.482 12.2977C133.475 12.2977 132.593 12.7046 131.838 13.5184C131.101 14.3322 130.733 15.2817 130.733 16.3668V24.2144Z" fill="white" fill-opacity="0.8" style="fill:white;fill-opacity:0.8;"/>
<path d="M157.493 18.6629C157.493 20.4843 156.825 21.9473 155.488 23.0518C154.131 24.1369 152.484 24.6794 150.547 24.6794C148.822 24.6794 147.301 24.1756 145.983 23.168C144.666 22.1604 143.755 20.7847 143.251 19.0408L145.809 17.9944C145.983 18.6145 146.226 19.1764 146.536 19.6802C146.846 20.184 147.204 20.62 147.611 20.9881C148.037 21.3369 148.502 21.6179 149.006 21.831C149.51 22.0248 150.043 22.1217 150.605 22.1217C151.825 22.1217 152.823 21.8117 153.598 21.1916C154.373 20.5522 154.761 19.7093 154.761 18.6629C154.761 17.791 154.441 17.045 153.802 16.4249C153.201 15.8242 152.077 15.2429 150.43 14.681C148.764 14.0803 147.727 13.6734 147.32 13.4603C145.111 12.3364 144.007 10.6797 144.007 8.49015C144.007 6.95939 144.617 5.65147 145.838 4.56637C147.078 3.48127 148.599 2.93872 150.401 2.93872C151.99 2.93872 153.366 3.34564 154.528 4.15946C155.691 4.95391 156.466 5.9518 156.854 7.15316L154.354 8.1995C154.122 7.42443 153.657 6.785 152.959 6.28121C152.281 5.75803 151.448 5.49645 150.459 5.49645C149.413 5.49645 148.531 5.7871 147.814 6.3684C147.098 6.91095 146.739 7.6182 146.739 8.49015C146.739 9.20709 147.02 9.82715 147.582 10.3503C148.202 10.8735 149.549 11.4935 151.622 12.2105C153.734 12.9274 155.236 13.8091 156.127 14.8554C157.038 15.8824 157.493 17.1516 157.493 18.6629Z" fill="white" fill-opacity="0.8" style="fill:white;fill-opacity:0.8;"/>
<path d="M165.147 24.4469C163.984 24.4469 163.016 24.0884 162.241 23.3715C161.485 22.6546 161.097 21.6567 161.078 20.3778V12.414H158.578V9.97249H161.078V5.61273H163.752V9.97249H167.24V12.414H163.752V19.5058C163.752 20.4553 163.936 21.1044 164.304 21.4532C164.672 21.7826 165.089 21.9473 165.554 21.9473C165.767 21.9473 165.971 21.9279 166.164 21.8892C166.377 21.831 166.571 21.7632 166.746 21.6857L167.589 24.0691C166.891 24.321 166.077 24.4469 165.147 24.4469Z" fill="white" fill-opacity="0.8" style="fill:white;fill-opacity:0.8;"/>
<path d="M171.447 19.8546C171.447 20.5522 171.738 21.1335 172.319 21.5985C172.92 22.0636 173.617 22.2961 174.412 22.2961C175.535 22.2961 176.533 21.8795 177.405 21.0463C178.297 20.2131 178.742 19.2346 178.742 18.1107C177.909 17.4519 176.747 17.1225 175.255 17.1225C174.169 17.1225 173.259 17.3841 172.522 17.9073C171.805 18.4304 171.447 19.0795 171.447 19.8546ZM174.906 9.50745C176.882 9.50745 178.442 10.0403 179.585 11.106C180.728 12.1524 181.3 13.5959 181.3 15.4367V24.2144H178.742V22.238H178.626C177.522 23.8656 176.049 24.6794 174.208 24.6794C172.639 24.6794 171.321 24.2144 170.255 23.2843C169.209 22.3542 168.686 21.1916 168.686 19.7965C168.686 18.3239 169.238 17.1516 170.343 16.2796C171.466 15.4077 172.958 14.9717 174.819 14.9717C176.407 14.9717 177.715 15.2623 178.742 15.8436V15.2333C178.742 14.3032 178.374 13.5184 177.638 12.879C176.902 12.2202 176.039 11.8908 175.051 11.8908C173.559 11.8908 172.377 12.5205 171.505 13.78L169.151 12.2977C170.449 10.4375 172.367 9.50745 174.906 9.50745Z" fill="white" fill-opacity="0.8" style="fill:white;fill-opacity:0.8;"/>
<path d="M200.999 24.4469C199.837 24.4469 198.868 24.0884 198.093 23.3715C197.337 22.6546 196.95 21.6567 196.93 20.3778V12.414H194.431V9.97249H196.93V5.61273H199.604V9.97249H203.092V12.414H199.604V19.5058C199.604 20.4553 199.788 21.1044 200.156 21.4532C200.525 21.7826 200.941 21.9473 201.406 21.9473C201.619 21.9473 201.823 21.9279 202.017 21.8892C202.23 21.831 202.423 21.7632 202.598 21.6857L203.441 24.0691C202.743 24.321 201.929 24.4469 200.999 24.4469ZM184.316 9.97249H186.874V12.2977H186.99C187.784 10.4763 189.422 9.56558 191.902 9.56558L192.454 9.62371V12.414L191.262 12.2977C190.022 12.2977 188.995 12.6852 188.182 13.4603C187.387 14.216 186.99 15.1848 186.99 16.3668V24.2144H184.316V9.97249Z" fill="white" fill-opacity="0.8" style="fill:white;fill-opacity:0.8;"/>
<path d="M218.159 24.2144H215.601V22.2379H215.485C215.078 22.9355 214.448 23.5168 213.595 23.9818C212.762 24.4469 211.89 24.6794 210.98 24.6794C209.236 24.6794 207.889 24.1853 206.94 23.1971C206.009 22.1895 205.544 20.7653 205.544 18.9245V9.97247H208.218V18.7501C208.277 21.0753 209.449 22.2379 211.735 22.2379C212.801 22.2379 213.692 21.8117 214.409 20.9591C215.126 20.0871 215.485 19.0505 215.485 17.8491V9.97247H218.159V24.2144Z" fill="white" fill-opacity="0.8" style="fill:white;fill-opacity:0.8;"/>
<path d="M228.418 22.238C229.697 22.238 230.772 21.7535 231.644 20.7847C232.516 19.8352 232.952 18.6048 232.952 17.0934C232.952 15.6014 232.516 14.371 231.644 13.4022C230.772 12.4333 229.697 11.9489 228.418 11.9489C227.12 11.9489 226.034 12.4333 225.163 13.4022C224.31 14.371 223.884 15.6014 223.884 17.0934C223.884 18.6048 224.31 19.8449 225.163 20.8138C226.034 21.7632 227.12 22.238 228.418 22.238ZM228.854 24.6794C227.807 24.6794 226.848 24.4566 225.976 24.0109C225.124 23.5653 224.465 22.9743 224 22.238H223.884L224 24.2144V30.4924H221.326V9.97249H223.884V11.9489H224C224.465 11.2126 225.124 10.6216 225.976 10.1759C226.848 9.73028 227.807 9.50745 228.854 9.50745C230.733 9.50745 232.322 10.2438 233.62 11.7164C234.957 13.2084 235.626 15.0008 235.626 17.0934C235.626 19.2055 234.957 20.9978 233.62 22.4705C232.322 23.9431 230.733 24.6794 228.854 24.6794Z" fill="white" fill-opacity="0.8" style="fill:white;fill-opacity:0.8;"/>
<path d="M248.804 20.2615C248.804 21.5016 248.262 22.548 247.176 23.4006C246.091 24.2531 244.725 24.6794 243.078 24.6794C241.644 24.6794 240.385 24.3113 239.3 23.575C238.215 22.8193 237.44 21.831 236.975 20.6103L239.358 19.593C239.707 20.4456 240.211 21.1141 240.869 21.5985C241.548 22.0636 242.284 22.2961 243.078 22.2961C243.931 22.2961 244.638 22.112 245.2 21.7438C245.781 21.3757 246.072 20.9397 246.072 20.4359C246.072 19.5252 245.374 18.8567 243.979 18.4304L241.538 17.8201C238.767 17.1225 237.382 15.7855 237.382 13.8091C237.382 12.5108 237.905 11.4742 238.951 10.6991C240.017 9.90467 241.373 9.50745 243.02 9.50745C244.28 9.50745 245.413 9.80778 246.421 10.4085C247.448 11.0091 248.165 11.8133 248.572 12.8209L246.188 13.8091C245.917 13.2084 245.471 12.7434 244.851 12.414C244.251 12.0652 243.572 11.8908 242.817 11.8908C242.119 11.8908 241.489 12.0652 240.927 12.414C240.385 12.7627 240.114 13.189 240.114 13.6928C240.114 14.5066 240.879 15.0879 242.41 15.4367L244.561 15.989C247.39 16.6865 248.804 18.1107 248.804 20.2615Z" fill="white" fill-opacity="0.8" style="fill:white;fill-opacity:0.8;"/>
</g>
<defs>
<clipPath id="clip0_5_4122">
<rect width="263.68" height="32" fill="white" style="fill:white;fill-opacity:1;" transform="translate(0.499756)"/>
</clipPath>
</defs>
</svg>
