<svg width="91" height="32" viewBox="0 0 91 32" fill="none" xmlns="http://www.w3.org/2000/svg">
<mask id="mask0_5_4078" style="mask-type:luminance" maskUnits="userSpaceOnUse" x="4" y="3" width="84" height="27">
<path d="M87.0891 3.66357H4.4209V29.7167H87.0891V3.66357Z" fill="white" style="fill:white;fill-opacity:1;"/>
</mask>
<g mask="url(#mask0_5_4078)">
<path d="M7.19204 25.3154V25.8139H6.31407V28.402H5.64874V25.8139H4.76392V25.3154H7.19204Z" fill="white" style="fill:white;fill-opacity:1;"/>
<path d="M8.67818 26.3307C8.76521 26.2022 8.88314 26.0977 9.02114 26.0267C9.16825 25.9516 9.33158 25.9139 9.4967 25.9169V26.5662H9.32065C9.15086 26.554 8.98225 26.6026 8.84509 26.7034C8.78634 26.7673 8.74188 26.8429 8.71468 26.9253C8.68748 27.0077 8.67815 27.095 8.68733 27.1813V28.4022H8.01514V25.9512H8.67818V26.3307Z" fill="white" style="fill:white;fill-opacity:1;"/>
<path d="M10.0958 27.1676C10.0915 26.9382 10.1458 26.7116 10.2535 26.5091C10.354 26.3243 10.5035 26.1708 10.6856 26.0655C10.873 25.9618 11.0843 25.909 11.2984 25.9123C11.4753 25.9088 11.6506 25.9464 11.8105 26.0221C11.9487 26.0874 12.0706 26.1827 12.1672 26.301V25.9512H12.8371V28.4022H12.1672V28.0432C12.0714 28.1648 11.9495 28.2633 11.8105 28.3313C11.649 28.4071 11.4722 28.4447 11.2938 28.4411C11.0803 28.4437 10.8701 28.3884 10.6856 28.281C10.5037 28.1745 10.3543 28.0203 10.2535 27.8352C10.1452 27.6296 10.0909 27.3999 10.0958 27.1676ZM12.1672 27.1676C12.1715 27.0331 12.1382 26.9001 12.0712 26.7834C12.0119 26.6772 11.9229 26.5906 11.8151 26.5342C11.7082 26.4769 11.5888 26.4471 11.4676 26.4473C11.349 26.4463 11.232 26.4746 11.1269 26.5297C11.0206 26.588 10.9321 26.6741 10.8708 26.7789C10.8044 26.8941 10.7712 27.0255 10.7748 27.1584C10.7718 27.2942 10.8049 27.4283 10.8708 27.5471C10.9324 27.6522 11.0207 27.739 11.1269 27.7986C11.2308 27.8575 11.3482 27.8882 11.4676 27.8878C11.5886 27.8888 11.7081 27.8598 11.8151 27.8032C11.9223 27.747 12.0112 27.6613 12.0712 27.5562C12.136 27.4404 12.1691 27.3095 12.1672 27.1767V27.1676Z" fill="white" style="fill:white;fill-opacity:1;"/>
<path d="M13.6463 27.1674C13.642 26.938 13.6963 26.7114 13.804 26.5089C13.9058 26.3235 14.057 26.17 14.2407 26.0653C14.4282 25.9619 14.6394 25.9091 14.8535 25.9122C15.0223 25.9113 15.1892 25.9472 15.3428 26.0173C15.4867 26.0773 15.6139 26.1715 15.7132 26.2917V25.1279H16.3876V28.402H15.7132V28.0385C15.6243 28.1642 15.5046 28.265 15.3656 28.3311C15.2043 28.4076 15.0274 28.4451 14.8489 28.4409C14.6354 28.4435 14.4253 28.3882 14.2407 28.2808C14.0566 28.1756 13.9054 28.0212 13.804 27.835C13.6958 27.6294 13.6415 27.3997 13.6463 27.1674ZM15.7177 27.1674C15.722 27.0329 15.6887 26.8999 15.6217 26.7833C15.5625 26.677 15.4735 26.5904 15.3656 26.534C15.2597 26.4789 15.1421 26.4502 15.0227 26.4502C14.9033 26.4502 14.7856 26.4789 14.6797 26.534C14.5734 26.5924 14.4849 26.6785 14.4237 26.7833C14.3572 26.8985 14.324 27.0298 14.3276 27.1628C14.3246 27.2986 14.3577 27.4327 14.4237 27.5515C14.4852 27.6566 14.5736 27.7434 14.6797 27.803C14.7845 27.8617 14.9026 27.8925 15.0227 27.8922C15.143 27.8932 15.2617 27.8642 15.3679 27.8076C15.4751 27.7514 15.564 27.6657 15.624 27.5606C15.6888 27.4432 15.7212 27.3106 15.7177 27.1765V27.1674Z" fill="white" style="fill:white;fill-opacity:1;"/>
<path d="M19.8152 27.1241C19.8149 27.2006 19.8088 27.2771 19.7969 27.3527H17.874C17.8772 27.432 17.8964 27.5097 17.9306 27.5813C17.9648 27.6528 18.0132 27.7166 18.073 27.7688C18.1934 27.8709 18.3473 27.9246 18.5051 27.9197C18.6123 27.9277 18.7195 27.9037 18.813 27.8508C18.9066 27.7979 18.9825 27.7184 19.031 27.6225H19.7489C19.6717 27.8597 19.5181 28.0647 19.3122 28.2055C19.0781 28.3628 18.8007 28.4427 18.5188 28.4342C18.2809 28.439 18.0455 28.3856 17.8329 28.2787C17.6358 28.1739 17.4725 28.0153 17.3619 27.8214C17.2538 27.6163 17.1973 27.3879 17.1973 27.1561C17.1973 26.9242 17.2538 26.6959 17.3619 26.4907C17.4692 26.3026 17.6278 26.1487 17.8192 26.0472C18.0317 25.9476 18.2635 25.896 18.4982 25.896C18.7329 25.896 18.9648 25.9476 19.1773 26.0472C19.3687 26.1424 19.5277 26.2919 19.6346 26.477C19.7559 26.6708 19.8187 26.8955 19.8152 27.1241ZM19.1293 26.9457C19.1312 26.8722 19.1153 26.7994 19.0831 26.7333C19.0509 26.6672 19.0032 26.6099 18.9441 26.5662C18.8185 26.4675 18.6624 26.4158 18.5028 26.4199C18.3509 26.416 18.2026 26.4662 18.0844 26.5616C17.97 26.6589 17.8971 26.7964 17.8809 26.9457H19.1293Z" fill="white" style="fill:white;fill-opacity:1;"/>
<path d="M21.7927 25.3155C22.108 25.3084 22.4208 25.3733 22.7073 25.5052C22.961 25.6219 23.1742 25.8113 23.32 26.0494C23.4623 26.2967 23.5371 26.5769 23.5371 26.8622C23.5371 27.1475 23.4623 27.4277 23.32 27.675C23.172 27.9095 22.9591 28.0961 22.7073 28.2123C22.4205 28.3432 22.1079 28.4081 21.7927 28.4021H20.6335V25.3155H21.7927ZM21.7676 27.8762C22.061 27.8941 22.35 27.7983 22.5747 27.6087C22.6726 27.512 22.7488 27.3954 22.7981 27.2669C22.8473 27.1383 22.8686 27.0008 22.8605 26.8633C22.8686 26.7249 22.8473 26.5863 22.7981 26.4567C22.7488 26.327 22.6727 26.2093 22.5747 26.1111C22.4648 26.0146 22.3369 25.9407 22.1984 25.8936C22.0599 25.8466 21.9135 25.8272 21.7676 25.8368H21.2989V27.8762H21.7676Z" fill="white" style="fill:white;fill-opacity:1;"/>
<path d="M25.538 28.4409C25.3001 28.4457 25.0646 28.3923 24.852 28.2854C24.6523 28.181 24.4859 28.0226 24.3719 27.8282C24.2553 27.6269 24.196 27.3976 24.2004 27.1651C24.196 26.932 24.257 26.7023 24.3765 26.5021C24.4958 26.3121 24.6651 26.1587 24.8658 26.0585C25.0798 25.9557 25.3142 25.9023 25.5517 25.9023C25.7891 25.9023 26.0235 25.9557 26.2376 26.0585C26.4374 26.1582 26.6053 26.3119 26.7223 26.5021C26.8405 26.703 26.9028 26.9319 26.9028 27.1651C26.9028 27.3983 26.8405 27.6272 26.7223 27.8282C26.6033 28.0243 26.4313 28.1828 26.2262 28.2854C26.0124 28.3912 25.7765 28.4445 25.538 28.4409ZM25.538 27.9013C25.6556 27.9029 25.7718 27.8754 25.8763 27.8213C25.984 27.7658 26.073 27.6799 26.1324 27.5744C26.1986 27.4525 26.2309 27.3151 26.2262 27.1765C26.2334 27.0783 26.2193 26.9797 26.185 26.8874C26.1507 26.795 26.0969 26.7112 26.0272 26.6415C25.9642 26.5791 25.8891 26.5301 25.8066 26.4974C25.7241 26.4648 25.6358 26.4493 25.5471 26.4518C25.4587 26.4491 25.3707 26.4645 25.2885 26.4971C25.2063 26.5298 25.1317 26.5789 25.0692 26.6415C25.002 26.7126 24.9503 26.7969 24.9172 26.8889C24.8842 26.981 24.8706 27.0789 24.8772 27.1765C24.871 27.2742 24.8842 27.3722 24.9159 27.4648C24.9477 27.5574 24.9975 27.6428 25.0624 27.7161C25.1253 27.7772 25.1998 27.825 25.2814 27.8568C25.3631 27.8887 25.4503 27.9038 25.538 27.9013Z" fill="white" style="fill:white;fill-opacity:1;"/>
<path d="M28.7615 25.9122C28.94 25.9079 29.1169 25.9455 29.2782 26.0219C29.417 26.0842 29.538 26.1801 29.6303 26.3009V25.9511H30.3002V28.418C30.3048 28.6293 30.2544 28.8381 30.1539 29.0239C30.0525 29.2073 29.8978 29.3556 29.7104 29.4492C29.4904 29.561 29.246 29.616 28.9993 29.6092C28.6768 29.6218 28.358 29.5365 28.0848 29.3646C27.9717 29.2918 27.8765 29.1943 27.8064 29.0795C27.7363 28.9646 27.6931 28.8354 27.6801 28.7016H28.3408C28.3596 28.7586 28.3895 28.8114 28.4288 28.8569C28.468 28.9024 28.5158 28.9398 28.5695 28.9668C28.6987 29.0384 28.8448 29.0739 28.9924 29.0697C29.1602 29.0744 29.3235 29.0156 29.4497 28.905C29.5138 28.8421 29.5632 28.7659 29.5944 28.6817C29.6256 28.5975 29.6379 28.5075 29.6303 28.418V28.0385C29.5356 28.1611 29.4135 28.2598 29.2737 28.3266C29.1144 28.4048 28.9389 28.444 28.7615 28.4409C28.548 28.4436 28.3379 28.3883 28.1533 28.2809C27.9692 28.1756 27.818 28.0213 27.7166 27.835C27.6084 27.6294 27.5541 27.3997 27.5589 27.1674C27.5546 26.9381 27.6089 26.7114 27.7166 26.5089C27.8171 26.3241 27.9667 26.1707 28.1488 26.0654C28.3362 25.962 28.5474 25.9092 28.7615 25.9122ZM29.6303 27.1766C29.6341 27.0424 29.6017 26.9097 29.5366 26.7924C29.4758 26.6866 29.3862 26.6002 29.2782 26.5432C29.1723 26.4881 29.0547 26.4594 28.9353 26.4594C28.8159 26.4594 28.6982 26.4881 28.5923 26.5432C28.4864 26.6022 28.3981 26.6882 28.3363 26.7924C28.2698 26.9077 28.2366 27.039 28.2402 27.172C28.2372 27.3078 28.2703 27.4419 28.3363 27.5607C28.3972 27.6652 28.4847 27.7519 28.5899 27.8117C28.6951 27.8715 28.8143 27.9024 28.9353 27.9013C29.0556 27.9024 29.1743 27.8733 29.2805 27.8167C29.3879 27.76 29.4774 27.6745 29.5389 27.5698C29.6035 27.4491 29.635 27.3134 29.6303 27.1766Z" fill="white" style="fill:white;fill-opacity:1;"/>
<path d="M34.9555 25.3201V25.647H34.0547V28.4021H33.6226V25.647H32.708V25.3201H34.9555Z" fill="white" style="fill:white;fill-opacity:1;"/>
<path d="M36.9558 28.4409C36.7246 28.4448 36.496 28.3914 36.2905 28.2854C36.1 28.1857 35.9416 28.0344 35.8332 27.8487C35.719 27.6467 35.6614 27.4177 35.6663 27.1857C35.6616 26.9553 35.7209 26.7281 35.8378 26.5295C35.9512 26.3422 36.1153 26.1908 36.3111 26.0928C36.5196 25.9905 36.7487 25.9373 36.981 25.9373C37.2132 25.9373 37.4424 25.9905 37.6509 26.0928C37.8461 26.1897 38.0095 26.3405 38.1219 26.5272C38.2419 26.7255 38.3029 26.9539 38.2979 27.1857C38.3015 27.4193 38.2389 27.6492 38.1173 27.8487C38.0011 28.0362 37.8348 28.1875 37.6372 28.2854C37.4262 28.3923 37.1922 28.4457 36.9558 28.4409ZM36.9558 28.0865C37.1072 28.0871 37.2567 28.0527 37.3925 27.9859C37.5291 27.918 37.6428 27.8114 37.7195 27.6795C37.81 27.5311 37.8553 27.3595 37.8498 27.1857C37.8546 27.0118 37.8111 26.8401 37.724 26.6895C37.6482 26.5603 37.5361 26.4562 37.4017 26.39C37.2681 26.3212 37.1198 26.2859 36.9695 26.2871C36.8178 26.2856 36.6679 26.3209 36.5328 26.39C36.4044 26.458 36.2986 26.5621 36.2288 26.6895C36.1451 26.8412 36.104 27.0126 36.1099 27.1857C36.1046 27.3589 36.144 27.5305 36.2242 27.6841C36.297 27.8142 36.4057 27.9206 36.5374 27.9905C36.6678 28.0539 36.8109 28.0867 36.9558 28.0865Z" fill="white" style="fill:white;fill-opacity:1;"/>
<path d="M40.6439 28.402L39.6242 27.332V28.402H39.2012V25.1279H39.6333V27.0531L40.6347 25.9785H41.2383L40.0128 27.1857L41.2429 28.402H40.6439Z" fill="white" style="fill:white;fill-opacity:1;"/>
<path d="M44.3431 27.0967C44.3429 27.1776 44.3383 27.2585 44.3294 27.339H42.2488C42.2511 27.4457 42.2754 27.5507 42.3202 27.6475C42.3651 27.7443 42.4295 27.8308 42.5094 27.9015C42.674 28.0349 42.8807 28.1054 43.0925 28.1004C43.2531 28.1052 43.4118 28.064 43.5497 27.9815C43.6714 27.9043 43.7645 27.7895 43.8149 27.6545H44.2722C44.2022 27.8867 44.0545 28.0877 43.8538 28.2238C43.6239 28.3789 43.3514 28.4588 43.0742 28.4525C42.8436 28.4572 42.6155 28.4037 42.4111 28.297C42.2207 28.1973 42.0622 28.046 41.9538 27.8603C41.8408 27.6578 41.7832 27.4291 41.7869 27.1973C41.7819 26.9673 41.8379 26.7401 41.9493 26.5388C42.0554 26.3519 42.2145 26.2008 42.4065 26.1044C42.6188 25.9966 42.8545 25.9432 43.0925 25.9489C43.3203 25.9439 43.5458 25.9958 43.7486 26.0998C43.9312 26.1935 44.0829 26.338 44.1853 26.5159C44.29 26.6914 44.3446 26.8923 44.3431 27.0967ZM43.8858 27.0121C43.8907 26.8731 43.8532 26.736 43.7784 26.6188C43.7057 26.5071 43.6014 26.4196 43.4788 26.3673C43.3495 26.3065 43.2079 26.276 43.065 26.2781C42.8611 26.274 42.6624 26.343 42.5049 26.4725C42.4279 26.5407 42.3652 26.6235 42.3205 26.7161C42.2757 26.8088 42.2498 26.9094 42.2442 27.0121H43.8858Z" fill="white" style="fill:white;fill-opacity:1;"/>
<path d="M46.5176 25.9329C46.7995 25.9209 47.0753 26.0174 47.2881 26.2027C47.3901 26.3022 47.4692 26.4226 47.5201 26.5556C47.571 26.6886 47.5925 26.8311 47.5831 26.9732V28.4022H47.1555V27.0303C47.1623 26.9296 47.1484 26.8285 47.1146 26.7333C47.0807 26.6381 47.0278 26.5509 46.9589 26.477C46.8881 26.4106 46.8047 26.3591 46.7135 26.3257C46.6224 26.2923 46.5254 26.2777 46.4285 26.2827C46.3287 26.2777 46.229 26.2927 46.1351 26.3269C46.0412 26.361 45.9552 26.4136 45.882 26.4816C45.8117 26.5602 45.7579 26.6521 45.7237 26.7518C45.6896 26.8516 45.6758 26.9572 45.6831 27.0624V28.4022H45.251V25.9786H45.6831V26.3239C45.7697 26.1981 45.8891 26.0985 46.0283 26.0358C46.182 25.9663 46.349 25.9312 46.5176 25.9329Z" fill="white" style="fill:white;fill-opacity:1;"/>
<path d="M52.7226 26.2117C52.6335 26.0363 52.4942 25.8915 52.3225 25.7956C52.1362 25.6938 51.9265 25.6426 51.7143 25.647C51.4965 25.6443 51.2813 25.6953 51.0879 25.7956C50.9051 25.8934 50.7537 26.0408 50.6512 26.2208C50.5482 26.4173 50.4944 26.6358 50.4944 26.8576C50.4944 27.0794 50.5482 27.2979 50.6512 27.4944C50.7555 27.673 50.9065 27.82 51.0879 27.9196C51.2819 28.018 51.4968 28.0682 51.7143 28.0659C52.0044 28.0771 52.2884 27.981 52.5123 27.7962C52.7252 27.6104 52.8565 27.3485 52.8781 27.0668H51.5588V26.7376H53.3399V27.0485C53.3135 27.295 53.2254 27.5309 53.0839 27.7344C52.9359 27.9462 52.738 28.1182 52.5077 28.2351C52.2615 28.358 51.9894 28.42 51.7143 28.4158C51.4225 28.4194 51.1343 28.3511 50.8752 28.2169C50.6277 28.0873 50.4193 27.8939 50.2716 27.6567C50.1604 27.4758 50.0876 27.274 50.0578 27.0637C50.028 26.8535 50.0418 26.6393 50.0985 26.4347C50.1551 26.23 50.2533 26.0392 50.3869 25.8742C50.5206 25.7092 50.6868 25.5734 50.8752 25.4755C51.1336 25.3387 51.422 25.2687 51.7143 25.272C52.0415 25.2662 52.3641 25.35 52.6472 25.5144C52.9146 25.6717 53.1227 25.9127 53.2393 26.2003L52.7226 26.2117Z" fill="white" style="fill:white;fill-opacity:1;"/>
<path d="M54.6753 26.3718C54.7483 26.2347 54.8606 26.1225 54.9977 26.0494C55.1582 25.9677 55.3366 25.9276 55.5167 25.9328V26.3489H55.4023C54.9176 26.3489 54.6753 26.5936 54.6753 27.0829V28.4021H54.2432V25.9786H54.6753V26.3718Z" fill="white" style="fill:white;fill-opacity:1;"/>
<path d="M57.492 28.4409C57.2608 28.4448 57.0322 28.3914 56.8267 28.2854C56.6362 28.1857 56.4778 28.0344 56.3694 27.8487C56.2552 27.6467 56.1976 27.4177 56.2025 27.1857C56.1901 26.9577 56.2408 26.7306 56.3488 26.5295C56.4623 26.3422 56.6264 26.1908 56.8221 26.0928C57.0306 25.9905 57.2598 25.9373 57.492 25.9373C57.7243 25.9373 57.9534 25.9905 58.1619 26.0928C58.3583 26.19 58.5226 26.3416 58.6352 26.5295C58.7552 26.7278 58.8163 26.9562 58.8113 27.188C58.8149 27.4216 58.7523 27.6515 58.6306 27.851C58.5138 28.038 58.3477 28.1891 58.1505 28.2877C57.9462 28.3902 57.7206 28.4427 57.492 28.4409ZM57.492 28.0865C57.6434 28.0871 57.7929 28.0527 57.9287 27.9859C58.0629 27.9147 58.1734 27.8058 58.2465 27.6727C58.3364 27.524 58.3809 27.3524 58.3746 27.1788C58.3801 27.0052 58.3373 26.8335 58.2511 26.6827C58.1753 26.5535 58.0632 26.4493 57.9287 26.3832C57.7952 26.3143 57.6469 26.279 57.4966 26.2803C57.3449 26.2787 57.195 26.314 57.0599 26.3832C56.928 26.4497 56.819 26.5539 56.7467 26.6827C56.663 26.8343 56.622 27.0057 56.6278 27.1788C56.6225 27.352 56.6619 27.5236 56.7421 27.6772C56.8142 27.8079 56.9232 27.9144 57.0553 27.9836C57.1906 28.0522 57.3404 28.0874 57.492 28.0865Z" fill="white" style="fill:white;fill-opacity:1;"/>
<path d="M63.1853 25.9785L62.3737 28.4021H61.9164L61.2877 26.4769L60.6612 28.4021H60.2039L59.3877 25.9785H59.829L60.428 28.0111L61.0727 25.9785H61.514L62.1451 28.0157L62.7349 25.9785H63.1853Z" fill="white" style="fill:white;fill-opacity:1;"/>
<path d="M64.4746 26.3009V27.7298C64.4699 27.775 64.4745 27.8207 64.4883 27.864C64.5021 27.9073 64.5247 27.9472 64.5546 27.9814C64.6368 28.0362 64.7352 28.0612 64.8336 28.0522H65.1537V28.3929H64.7627C64.5693 28.4069 64.3773 28.3518 64.2208 28.2374C64.156 28.1708 64.1065 28.0909 64.0757 28.0033C64.0449 27.9156 64.0336 27.8223 64.0425 27.7298V26.3009H63.7041V25.9693H64.0425V25.3589H64.4746V25.9693H65.1605V26.3009H64.4746Z" fill="white" style="fill:white;fill-opacity:1;"/>
<path d="M67.3006 25.9327C67.4852 25.9305 67.6678 25.9721 67.8333 26.0539C67.9898 26.1286 68.1192 26.25 68.2037 26.4014C68.2995 26.5764 68.3469 26.7737 68.3409 26.973V28.402H67.9133V27.0302C67.9204 26.9296 67.9069 26.8286 67.8734 26.7334C67.84 26.6383 67.7875 26.551 67.719 26.4769C67.6477 26.4105 67.5639 26.359 67.4724 26.3256C67.3808 26.2923 67.2836 26.2776 67.1863 26.2825C67.0866 26.2779 66.9869 26.2931 66.8931 26.3272C66.7993 26.3614 66.7132 26.4138 66.6398 26.4815C66.5695 26.5601 66.5157 26.6519 66.4816 26.7517C66.4474 26.8514 66.4336 26.957 66.4409 27.0622V28.402H66.0088V25.1279H66.4409V26.3237C66.5292 26.1968 66.6511 26.097 66.793 26.0356C66.9528 25.9652 67.126 25.9301 67.3006 25.9327Z" fill="white" style="fill:white;fill-opacity:1;"/>
<path d="M72.0265 28.432C71.8256 28.4354 71.6261 28.3997 71.4389 28.3268C71.28 28.2631 71.1405 28.1591 71.0342 28.025C70.9363 27.897 70.8833 27.7403 70.8833 27.5791H71.3406C71.3553 27.7207 71.4231 27.8514 71.5303 27.945C71.6762 28.039 71.8461 28.089 72.0196 28.089C72.1932 28.089 72.363 28.039 72.5089 27.945C72.5659 27.9017 72.6119 27.8456 72.6433 27.7813C72.6747 27.7169 72.6905 27.6461 72.6895 27.5746C72.6942 27.4688 72.6573 27.3653 72.5866 27.2865C72.5134 27.2108 72.4233 27.1536 72.3237 27.1196C72.1852 27.0703 72.044 27.0291 71.9007 26.9961C71.7223 26.9537 71.5467 26.9002 71.3749 26.8361C71.2436 26.7826 71.1274 26.6978 71.0365 26.5891C70.9404 26.4566 70.8921 26.2954 70.8993 26.1319C70.8969 25.9725 70.945 25.8165 71.0365 25.686C71.1351 25.5524 71.2689 25.4487 71.4229 25.3865C71.605 25.3124 71.8002 25.2758 71.9968 25.2791C72.2667 25.2671 72.5331 25.3433 72.7558 25.4963C72.8511 25.561 72.9309 25.646 72.9894 25.7452C73.0479 25.8445 73.0837 25.9554 73.0942 26.0701H72.6187C72.608 26.0079 72.5849 25.9486 72.5507 25.8955C72.5165 25.8425 72.472 25.7969 72.4197 25.7615C72.2868 25.6662 72.1259 25.618 71.9625 25.6243C71.8045 25.6163 71.6486 25.6631 71.5212 25.7569C71.4649 25.7987 71.4197 25.8537 71.3898 25.9171C71.3599 25.9806 71.3461 26.0504 71.3497 26.1204C71.346 26.2215 71.3822 26.32 71.4503 26.3948C71.5215 26.4664 71.6073 26.5217 71.7018 26.5571C71.8024 26.5937 71.9442 26.6349 72.1248 26.6806C72.3045 26.7248 72.481 26.7814 72.6529 26.8498C72.7862 26.9029 72.9036 26.9896 72.9936 27.1013C73.0943 27.2317 73.1446 27.3941 73.1354 27.5586C73.136 27.7099 73.0915 27.858 73.0073 27.9838C72.9131 28.1243 72.7817 28.2359 72.6278 28.3062C72.4399 28.3944 72.234 28.4374 72.0265 28.432Z" fill="white" style="fill:white;fill-opacity:1;"/>
<path d="M74.6262 26.3009V27.7298C74.6215 27.775 74.6261 27.8207 74.6399 27.864C74.6537 27.9073 74.6763 27.9472 74.7062 27.9814C74.7884 28.0362 74.8868 28.0612 74.9852 28.0522H75.3053V28.3929H74.9143C74.721 28.4069 74.5289 28.3518 74.3724 28.2374C74.3077 28.1708 74.2581 28.0909 74.2274 28.0033C74.1966 27.9156 74.1852 27.8223 74.1941 27.7298V26.3009H73.8557V25.9693H74.1941V25.3589H74.6262V25.9693H75.3121V26.3009H74.6262Z" fill="white" style="fill:white;fill-opacity:1;"/>
<path d="M78.4694 25.9785V28.4021H78.0373V28.0431C77.9503 28.1706 77.8302 28.2718 77.6897 28.3358C77.5373 28.4039 77.372 28.4382 77.205 28.4364C77.0167 28.4391 76.83 28.4 76.6586 28.322C76.4988 28.2438 76.3653 28.1206 76.2745 27.9677C76.1783 27.7937 76.1309 27.597 76.1373 27.3984V25.9785H76.5648V27.3503C76.5581 27.4509 76.5719 27.5518 76.6053 27.6469C76.6387 27.742 76.691 27.8293 76.7592 27.9036C76.8304 27.9692 76.914 28.0198 77.0051 28.0524C77.0963 28.085 77.193 28.0989 77.2896 28.0934C77.3894 28.099 77.4893 28.0842 77.5832 28.05C77.6772 28.0158 77.7632 27.9629 77.8361 27.8945C77.9067 27.8165 77.9609 27.7251 77.9955 27.6257C78.03 27.5263 78.0442 27.421 78.0373 27.316V25.9854L78.4694 25.9785Z" fill="white" style="fill:white;fill-opacity:1;"/>
<path d="M79.3705 27.1811C79.3653 26.9536 79.4205 26.7287 79.5305 26.5295C79.6345 26.346 79.7872 26.1949 79.9718 26.0928C80.1679 25.9879 80.3873 25.9344 80.6097 25.9373C80.8057 25.9366 80.9991 25.9821 81.1744 26.0699C81.3356 26.1451 81.4731 26.2629 81.5722 26.4106V25.1279H82.0089V28.402H81.5722V27.9447C81.4813 28.0972 81.3499 28.2214 81.1927 28.3037C81.0116 28.3984 80.8094 28.4456 80.6051 28.4409C80.3836 28.4438 80.1653 28.3886 79.9718 28.2808C79.786 28.1763 79.6331 28.0218 79.5305 27.835C79.4212 27.6346 79.366 27.4093 79.3705 27.1811ZM81.5722 27.1811C81.577 27.0139 81.5359 26.8487 81.4533 26.7032C81.3785 26.5704 81.2664 26.4623 81.131 26.3923C80.9957 26.3184 80.8438 26.2806 80.6897 26.2825C80.5359 26.2807 80.3841 26.3177 80.2484 26.39C80.1153 26.4606 80.0051 26.5677 79.9306 26.6987C79.848 26.8441 79.8069 27.0094 79.8117 27.1765C79.8075 27.3465 79.8486 27.5146 79.9306 27.6635C80.0056 27.7953 80.1156 27.9037 80.2484 27.9767C80.3852 28.0459 80.5364 28.0819 80.6897 28.0819C80.843 28.0819 80.9941 28.0459 81.131 27.9767C81.2648 27.9077 81.3765 27.8023 81.4533 27.6727C81.5359 27.5239 81.577 27.3557 81.5722 27.1857V27.1811Z" fill="white" style="fill:white;fill-opacity:1;"/>
<path d="M83.2959 25.5853C83.2187 25.5871 83.144 25.5584 83.0879 25.5053C83.0603 25.481 83.0383 25.4511 83.0233 25.4176C83.0083 25.384 83.0007 25.3477 83.001 25.3109C83.0005 25.2742 83.0081 25.2378 83.0231 25.2042C83.0381 25.1707 83.0602 25.1408 83.0879 25.1166C83.1154 25.0899 83.148 25.069 83.1837 25.0553C83.2195 25.0415 83.2576 25.0352 83.2959 25.0366C83.3328 25.0352 83.3696 25.0416 83.4039 25.0554C83.4382 25.0692 83.4692 25.09 83.4949 25.1166C83.5225 25.1408 83.5447 25.1707 83.5597 25.2042C83.5747 25.2378 83.5822 25.2742 83.5817 25.3109C83.582 25.3477 83.5744 25.384 83.5594 25.4176C83.5445 25.4511 83.5224 25.481 83.4949 25.5053C83.4689 25.5315 83.4379 25.5521 83.4037 25.5659C83.3695 25.5797 83.3328 25.5863 83.2959 25.5853ZM83.504 25.9786V28.4021H83.0719V25.9786H83.504Z" fill="white" style="fill:white;fill-opacity:1;"/>
<path d="M85.7081 28.4409C85.4777 28.4446 85.2499 28.3911 85.0451 28.2854C84.8556 28.1844 84.6975 28.0333 84.5878 27.8487C84.4748 27.6463 84.4172 27.4175 84.4209 27.1857C84.4162 26.9553 84.4756 26.7281 84.5924 26.5295C84.7067 26.3421 84.8716 26.1908 85.068 26.0928C85.2764 25.9905 85.5056 25.9373 85.7379 25.9373C85.9701 25.9373 86.1993 25.9905 86.4078 26.0928C86.6021 26.1901 86.7647 26.3408 86.8765 26.5272C86.9934 26.7278 87.055 26.9558 87.055 27.188C87.055 27.4201 86.9934 27.6481 86.8765 27.8487C86.7603 28.0362 86.594 28.1875 86.3963 28.2854C86.1834 28.3937 85.9469 28.4471 85.7081 28.4409ZM85.7081 28.0865C85.8595 28.0871 86.009 28.0527 86.1448 27.9859C86.2821 27.918 86.3965 27.8115 86.4741 27.6795C86.5627 27.5304 86.6071 27.3591 86.6021 27.1857C86.6076 27.0121 86.5649 26.8403 86.4786 26.6895C86.4028 26.5603 86.2907 26.4562 86.1563 26.39C86.0214 26.3224 85.8727 26.2872 85.7219 26.2872C85.571 26.2872 85.4223 26.3224 85.2875 26.39C85.155 26.4565 85.0452 26.5607 84.9719 26.6895C84.8893 26.8416 84.8483 27.0127 84.853 27.1857C84.8478 27.3589 84.8872 27.5305 84.9674 27.6841C85.0407 27.8138 85.1493 27.92 85.2806 27.9905C85.4138 28.055 85.5601 28.0879 85.7081 28.0865Z" fill="white" style="fill:white;fill-opacity:1;"/>
<path d="M9.93562 22.9012V8.55427H4.4209V3.66602H21.228V8.55656H15.7407V22.9035L9.93562 22.9012Z" fill="white" style="fill:white;fill-opacity:1;"/>
<path d="M37.9301 22.5581C37.9381 22.4739 37.9716 22.3942 38.0261 22.3295C38.0864 22.2604 38.166 22.211 38.2547 22.1877C38.3794 22.1444 38.5081 22.1137 38.6388 22.0963C38.6818 22.0901 38.723 22.0754 38.76 22.0528C38.7964 22.0309 38.8282 22.0022 38.8538 21.9682C38.9724 21.8159 39.0601 21.642 39.1121 21.4561C39.1202 21.4238 39.1202 21.3901 39.1121 21.3578C39.1054 21.3244 39.0895 21.2936 39.0664 21.2686C38.9686 21.1625 38.8524 21.075 38.7234 21.0102C38.3851 20.8263 38.0308 20.6732 37.6649 20.553H37.6283L37.754 20.681C37.7677 20.697 37.7837 20.7107 37.7952 20.7267C37.814 20.7421 37.8289 20.7617 37.8386 20.7839C37.8495 20.8043 37.8551 20.8271 37.8546 20.8502C37.8548 20.874 37.8493 20.8975 37.8386 20.9188C37.8282 20.94 37.8134 20.9587 37.7952 20.9737C37.7026 21.0929 37.595 21.1997 37.4751 21.2915C37.1479 21.5566 36.7975 21.7915 36.4279 21.9934C36.3638 22.0277 36.2973 22.0575 36.229 22.0826C36.1797 22.0975 36.1344 22.1233 36.0964 22.158C36.0585 22.1907 36.0294 22.2324 36.0118 22.2792C35.9556 22.4138 35.8834 22.5412 35.7969 22.6587C35.7672 22.7048 35.7263 22.7426 35.678 22.7685C35.6279 22.7943 35.572 22.8068 35.5157 22.805H34.4662C34.3588 22.7913 34.3222 22.7319 34.3588 22.6359C34.4033 22.541 34.4749 22.4614 34.5645 22.4072C34.7021 22.3044 34.857 22.227 35.0218 22.1786C35.1642 22.1387 35.2966 22.0694 35.4105 21.9751C35.5042 21.8996 35.6071 21.8333 35.6963 21.7465C35.8927 21.5896 36.0454 21.3849 36.1398 21.152C36.1778 21.0371 36.1864 20.9145 36.165 20.7953C36.1415 20.6759 36.0897 20.5638 36.0141 20.4684C35.9836 20.4268 35.9436 20.3931 35.8975 20.3701C35.8507 20.3468 35.7988 20.3358 35.7466 20.3381C35.6973 20.3372 35.6494 20.3542 35.6117 20.3861C35.529 20.4496 35.4524 20.5208 35.3831 20.5987C35.3597 20.6255 35.3344 20.6507 35.3076 20.6741C35.2913 20.6929 35.2698 20.7064 35.2459 20.713C35.2218 20.7188 35.1968 20.7188 35.1727 20.713C35.1494 20.7064 35.1287 20.6929 35.1133 20.6741C35.0975 20.6556 35.0886 20.6322 35.0881 20.6078C35.0684 20.4922 35.0223 20.3826 34.9532 20.2878C34.9423 20.2723 34.93 20.2577 34.9166 20.2443C34.9166 20.2443 34.8938 20.2192 34.8755 20.226C34.8572 20.2329 34.8595 20.2466 34.8549 20.2603C34.8457 20.3056 34.8457 20.3522 34.8549 20.3975C34.8827 20.4967 34.9194 20.5931 34.9647 20.6856C35.0171 20.7964 35.0414 20.9184 35.0354 21.0408C35.0294 21.1633 34.9934 21.2823 34.9304 21.3875C34.8302 21.5763 34.7139 21.756 34.5828 21.9248C34.5611 21.9518 34.5357 21.9757 34.5074 21.9957C34.4731 22.0253 34.4292 22.0416 34.3839 22.0414C34.3392 22.0419 34.296 22.0256 34.2627 21.9957C34.1935 21.9303 34.137 21.8528 34.0958 21.767C33.9952 21.5978 33.9106 21.4241 33.8078 21.2549C33.7108 21.0808 33.583 20.9258 33.4305 20.7976H33.4168L33.6614 21.0743C33.7585 21.1814 33.8235 21.3137 33.8489 21.4561C33.8718 21.6228 33.8414 21.7924 33.762 21.9408C33.7111 22.028 33.6377 22.0998 33.5494 22.1489C33.2711 22.3169 32.9761 22.4556 32.6691 22.5627C32.4474 22.6518 32.2177 22.7199 31.9832 22.7662C31.8062 22.805 31.6229 22.805 31.4459 22.7662C31.4002 22.7607 31.3572 22.7416 31.3225 22.7113C31.29 22.6815 31.2677 22.6423 31.2585 22.5993V22.5261C31.2636 22.4843 31.2802 22.4447 31.3065 22.4118C31.3849 22.3127 31.4524 22.2054 31.5077 22.0917C31.5922 21.9377 31.6869 21.7895 31.7912 21.6481C31.9591 21.4241 32.0627 21.1585 32.0907 20.8799C32.1113 20.7222 32.1136 20.5644 32.125 20.4089C32.1301 20.3488 32.14 20.2891 32.1547 20.2306C32.1688 20.1787 32.1938 20.1304 32.2279 20.0888C32.2623 20.0463 32.3051 20.0113 32.3536 19.986C32.6294 19.8433 32.8939 19.6797 33.1447 19.4967C33.3185 19.3609 33.4778 19.2077 33.6203 19.0394C33.9279 18.6909 34.2872 18.3917 34.6857 18.1523C34.8481 18.0517 35.0127 17.9534 35.175 17.8573C35.4053 17.7311 35.6419 17.6167 35.8838 17.5144C36.1902 17.3818 36.5034 17.2629 36.8212 17.16C37.139 17.0571 37.5071 16.9314 37.8501 16.8262L37.9827 16.7965C38.013 16.7919 38.0438 16.7919 38.0741 16.7965C38.289 16.8285 38.504 16.8651 38.7234 16.8948C38.8658 16.918 39.0093 16.9333 39.1533 16.9405H39.4734C39.5013 16.9462 39.5301 16.9462 39.558 16.9405H39.6586C39.7468 16.9474 39.8355 16.9474 39.9238 16.9405H40.0587C40.1466 16.9356 40.2338 16.9226 40.3193 16.9016C40.5365 16.8719 40.7492 16.8353 40.9618 16.7988V8.27975C40.9618 4.45237 39.3613 3.66357 34.8686 3.66357H22.0078V22.9697H34.8915C35.9375 22.9943 36.9834 22.9177 38.0147 22.741C37.9842 22.7213 37.9597 22.6936 37.9438 22.661C37.93 22.6286 37.9252 22.593 37.9301 22.5581ZM28.0667 8.57012H33.2224C34.6148 8.57012 34.9509 8.97709 34.9509 9.91222V16.7553C34.9509 17.6333 34.3771 18.0723 33.2224 18.0723H28.0667V8.57012Z" fill="white" style="fill:white;fill-opacity:1;"/>
<path d="M40.5731 19.8146C40.5361 19.7898 40.503 19.7598 40.4748 19.7254C40.4748 19.7254 40.4565 19.7071 40.4427 19.7254C40.2283 19.8862 39.9985 20.0256 39.7568 20.1415C39.7867 20.169 39.8197 20.1928 39.8552 20.2124C40.0335 20.3267 40.2164 20.441 40.3856 20.5577C40.4573 20.61 40.5225 20.6706 40.5799 20.7383C40.5845 20.7438 40.5884 20.75 40.5914 20.7566C40.6851 20.4977 40.754 20.2305 40.7971 19.9586C40.7196 19.9152 40.6448 19.8671 40.5731 19.8146Z" fill="white" style="fill:white;fill-opacity:1;"/>
<path d="M67.9432 15.7836V22.972H61.8203V3.89453H80.0678V8.7462H67.9501V11.0531H74.8549V15.7836H67.9432Z" fill="white" style="fill:white;fill-opacity:1;"/>
<path d="M81.1125 22.9696V10.1408H87.1486V22.9696H81.1125ZM81.1125 9.15995V3.84644H87.1486V9.16681L81.1125 9.15995Z" fill="white" style="fill:white;fill-opacity:1;"/>
<path d="M45.5253 21.9409C45.6526 21.9109 45.7833 21.8979 45.914 21.9021C45.9893 21.9067 46.0642 21.8884 46.1289 21.8495C46.1912 21.8127 46.2407 21.7576 46.2707 21.6917C46.3445 21.5574 46.3732 21.4029 46.3526 21.251C46.332 21.0992 46.2632 20.9579 46.1563 20.8481C46.0084 20.7122 45.844 20.5954 45.6671 20.5005C45.2991 20.2834 44.9172 20.091 44.5239 19.9244C44.0552 19.714 43.5933 19.49 43.1155 19.291C42.8735 19.1851 42.6225 19.1009 42.3655 19.0395C42.2327 19.0099 42.0954 19.0052 41.9609 19.0258C41.9448 19.0258 41.9266 19.0258 41.9243 19.0441C41.922 19.0624 41.9403 19.0647 41.9494 19.0715C42.176 19.2189 42.3922 19.3816 42.5965 19.5585C42.8782 19.7923 43.1397 20.0492 43.3784 20.3268C43.4289 20.3883 43.4762 20.4524 43.5202 20.5188C43.6018 20.6268 43.6459 20.7584 43.6459 20.8938C43.6456 21.0298 43.6015 21.162 43.5202 21.271C43.4224 21.4126 43.3019 21.537 43.1635 21.6391C43.1086 21.6803 43.0606 21.7237 43.0103 21.7649C43.6 22.2477 44.3011 22.5754 45.0497 22.7183C45.0497 22.6046 45.0612 22.4913 45.084 22.3799C45.0994 22.2698 45.1518 22.1682 45.2326 22.0918C45.3123 22.0125 45.4145 21.9598 45.5253 21.9409Z" fill="white" style="fill:white;fill-opacity:1;"/>
<path d="M56.8473 17.0389C59.9041 17.0389 60.7684 16.3187 60.7684 13.527V12.1552C60.7684 9.48018 59.568 8.24097 56.358 8.24097H47.384C43.5703 8.24097 41.6406 9.56706 41.6406 12.7588V16.6617L42.0019 16.5931C42.2031 16.5542 42.3997 16.5016 42.6032 16.4696C42.6587 16.465 42.7146 16.465 42.7701 16.4696H42.9644C43.113 16.4948 43.2594 16.5176 43.4057 16.5473C43.6023 16.5862 43.799 16.6251 43.9979 16.6571C44.1372 16.6867 44.2786 16.7051 44.4208 16.712H44.606C44.6822 16.7164 44.7585 16.7164 44.8347 16.712H45.0039C45.2949 16.6922 45.5734 16.5864 45.8041 16.4079C45.9544 16.2873 46.0888 16.1483 46.2042 15.994C46.295 15.8842 46.3768 15.7672 46.4489 15.6442C46.5467 15.4747 46.6154 15.29 46.6523 15.0978C46.6752 14.9858 46.6866 14.8691 46.7049 14.7617C46.7232 14.6542 46.7347 14.533 46.7552 14.437C46.7758 14.341 46.7781 14.2678 46.7918 14.1832C46.8124 14.0149 46.8538 13.8498 46.9153 13.6917C46.9164 13.6822 46.921 13.6734 46.9282 13.6671C46.9353 13.6608 46.9446 13.6573 46.9541 13.6574C46.9793 13.6574 46.9816 13.6779 46.9839 13.694C46.9976 13.741 47.0068 13.7892 47.0113 13.838V14.7205C47.0153 14.9609 47.0069 15.2013 46.9861 15.4407C46.9507 15.808 46.8606 16.1679 46.7186 16.5085C46.5787 16.8095 46.3454 17.0573 46.0533 17.215C45.7357 17.3955 45.3865 17.5135 45.0244 17.5625L44.9033 17.5785C44.8713 17.5785 44.8667 17.5922 44.869 17.6196C44.882 17.7972 44.9253 17.9712 44.997 18.1341C45.1124 18.3854 45.2667 18.6169 45.4543 18.82C45.806 19.2128 46.2201 19.5449 46.6798 19.8031C46.9378 19.9432 47.1534 20.1501 47.304 20.4022C47.384 20.5411 47.4251 20.6991 47.4228 20.8594C47.429 21.1404 47.4168 21.4214 47.3863 21.7008C47.3632 21.9965 47.3041 22.2883 47.2102 22.5696C47.1985 22.6156 47.1783 22.659 47.1508 22.6977C47.1399 22.7156 47.1244 22.7301 47.1059 22.7398C47.0873 22.7495 47.0665 22.7539 47.0456 22.7525H45.1868C46.0501 22.9178 46.9281 22.9944 47.807 22.9812H60.6929V18.5228H49.5377C48.0676 18.5228 47.7269 18.3787 47.7269 17.3796V17.0618L56.8473 17.0389ZM47.7292 13.4127C47.7292 12.9783 47.9579 12.7474 48.3648 12.7474H53.8178C54.4786 12.7474 54.7484 12.9212 54.7484 13.383V13.5568C54.7484 14.014 54.4786 14.1604 53.8178 14.1604H47.7292V13.4127Z" fill="white" style="fill:white;fill-opacity:1;"/>
<path fill-rule="evenodd" clip-rule="evenodd" d="M46.9885 13.9773C46.973 14.043 46.9608 14.1094 46.9519 14.1762C46.9519 14.2082 46.9519 14.238 46.9382 14.27C46.9393 14.2768 46.9393 14.2837 46.9382 14.2905C46.9382 14.3317 46.9382 14.3751 46.9176 14.4323C46.897 14.4895 46.8925 14.5741 46.881 14.6472C46.881 14.6815 46.881 14.7181 46.865 14.7547L46.8513 14.853C46.8399 14.933 46.8262 15.0176 46.8102 15.0976C46.7727 15.2997 46.7007 15.4938 46.5975 15.6715C46.5218 15.7972 46.437 15.9172 46.3437 16.0305C46.2239 16.1951 46.0824 16.3428 45.923 16.4695C45.6745 16.6615 45.3745 16.7753 45.0611 16.7964H44.8873C44.8074 16.801 44.7272 16.801 44.6473 16.7964H44.4598C44.3133 16.7854 44.1675 16.7663 44.0231 16.7392C43.8219 16.7049 43.6252 16.6661 43.4263 16.6249L42.9919 16.5495H42.7953C42.7459 16.5449 42.6961 16.5449 42.6467 16.5495C42.5278 16.5678 42.418 16.5929 42.2992 16.6204L42.0477 16.6729L41.7093 16.737C41.5424 16.7713 41.3777 16.8033 41.2108 16.833C40.9319 16.8833 40.6507 16.9336 40.3672 16.9725C40.2784 16.993 40.1882 17.0068 40.0974 17.0136H39.9579C39.8681 17.0205 39.7779 17.0205 39.6881 17.0136H39.1714C39.0235 17.0075 38.8761 16.9923 38.7301 16.9679L38.33 16.9084L38.0831 16.8696H38.0236C37.9842 16.8763 37.9453 16.8854 37.907 16.897C37.5641 17.0022 37.2211 17.1256 36.885 17.2308C36.5718 17.3337 36.2609 17.4594 35.9591 17.5829C35.7248 17.6847 35.4958 17.7985 35.2731 17.9236C35.1085 18.0196 34.9439 18.1179 34.7793 18.2185C34.3901 18.4522 34.0385 18.7436 33.7367 19.0828C33.5923 19.2573 33.429 19.4153 33.2497 19.5538C32.9975 19.7398 32.7315 19.9064 32.4541 20.0522C32.4176 20.075 32.3858 20.1045 32.3603 20.1391C32.3367 20.1769 32.3205 20.2187 32.3123 20.2625C32.2965 20.3161 32.2873 20.3714 32.2849 20.4272C32.2849 20.4935 32.2849 20.5575 32.2711 20.6261V20.6604C32.2711 20.7404 32.2711 20.8204 32.2529 20.9027C32.2277 21.186 32.1274 21.4575 31.9625 21.6892C31.8604 21.827 31.7687 21.9722 31.6881 22.1236C31.6302 22.2409 31.5605 22.352 31.4801 22.4552C31.4645 22.4745 31.4535 22.4972 31.4481 22.5215V22.5832C31.4543 22.6061 31.467 22.6268 31.4846 22.6426C31.506 22.6592 31.5311 22.6702 31.5578 22.6747C31.7191 22.709 31.8858 22.709 32.0471 22.6747C32.2808 22.6273 32.5102 22.5608 32.733 22.4757C33.0316 22.3696 33.3182 22.2324 33.5881 22.0665C33.6625 22.0262 33.7242 21.966 33.7664 21.8927C33.8332 21.7575 33.8571 21.6052 33.835 21.456C33.814 21.3297 33.7568 21.2122 33.6704 21.1176C33.6018 21.0445 33.5401 20.9736 33.4783 20.9027C33.4617 20.886 33.4524 20.8634 33.4524 20.8398C33.4524 20.8163 33.4617 20.7937 33.4783 20.777C33.4967 20.7609 33.5203 20.752 33.5446 20.752C33.569 20.752 33.5926 20.7609 33.611 20.777C33.7432 20.8989 33.8545 21.0418 33.9402 21.1999C33.9928 21.2868 34.0408 21.3737 34.0865 21.4606L34.1002 21.488C34.1414 21.5658 34.1825 21.6412 34.226 21.7167C34.2632 21.7933 34.3144 21.8623 34.3769 21.9202C34.3844 21.9268 34.3929 21.9322 34.402 21.9362C34.4126 21.9385 34.4235 21.9385 34.434 21.9362C34.4438 21.9383 34.454 21.9383 34.4638 21.9362C34.4739 21.9327 34.4832 21.9273 34.4912 21.9202C34.5124 21.9051 34.5316 21.8874 34.5484 21.8676C34.6758 21.7023 34.7875 21.5254 34.8822 21.3394C34.9383 21.2456 34.9712 21.1398 34.9782 21.0308C34.9833 20.9214 34.9621 20.8124 34.9165 20.7129C34.8683 20.6149 34.83 20.5122 34.8022 20.4066C34.7896 20.3493 34.7896 20.2901 34.8022 20.2328C34.8022 20.2328 34.8022 20.2191 34.8022 20.2077C34.8087 20.1943 34.8172 20.182 34.8273 20.1711C34.839 20.1598 34.8531 20.1512 34.8685 20.1459C34.8944 20.137 34.9225 20.137 34.9485 20.1459C34.9622 20.1512 34.9752 20.1581 34.9873 20.1665L35.0079 20.1825L35.0537 20.2328C35.1282 20.3388 35.1789 20.4597 35.2023 20.5872V20.6032C35.2003 20.6084 35.2003 20.614 35.2023 20.6192H35.216H35.2343H35.248L35.2983 20.5712L35.3166 20.5506C35.3852 20.4672 35.4618 20.3906 35.5452 20.322C35.5994 20.2777 35.6673 20.2535 35.7373 20.2534C35.8054 20.2515 35.8729 20.2664 35.9339 20.2968C35.9929 20.325 36.044 20.3674 36.0825 20.4203C36.1669 20.5267 36.2235 20.6524 36.2471 20.7861C36.272 20.918 36.2633 21.054 36.222 21.1817C36.125 21.4271 35.9677 21.6441 35.7647 21.8127C35.7017 21.8707 35.6353 21.925 35.5658 21.975L35.4766 22.0436C35.3534 22.149 35.2093 22.2269 35.0537 22.2723C34.8969 22.3167 34.7497 22.3896 34.6192 22.4872C34.5452 22.5328 34.4857 22.5987 34.4478 22.6769C34.4447 22.6897 34.4447 22.703 34.4478 22.7158C34.4592 22.7239 34.4727 22.7287 34.4866 22.7295H35.4195L35.4378 22.7112L35.4652 22.6884H35.5018C35.5423 22.6885 35.5822 22.6791 35.6184 22.6609C35.6516 22.643 35.6799 22.6171 35.7007 22.5855C35.783 22.4722 35.8513 22.3494 35.9042 22.2197C35.9271 22.1619 35.9631 22.1103 36.0094 22.0688C36.0566 22.0251 36.1128 21.9924 36.174 21.9727C36.2384 21.95 36.3011 21.9225 36.3615 21.8904C36.7231 21.6923 37.0666 21.4627 37.388 21.2045C37.501 21.1155 37.6031 21.0134 37.6921 20.9004C37.701 20.8921 37.708 20.8819 37.7127 20.8707C37.7151 20.8602 37.7151 20.8492 37.7127 20.8387C37.7149 20.8274 37.7149 20.8157 37.7127 20.8044C37.7074 20.7942 37.7004 20.785 37.6921 20.777L37.6487 20.729L37.3835 20.4592H37.6464H37.6624C38.0319 20.5795 38.39 20.7326 38.7324 20.9164C38.8692 20.9882 38.9929 21.0825 39.0982 21.1954C39.1299 21.2306 39.1527 21.273 39.1645 21.3188C39.1748 21.364 39.1748 21.4109 39.1645 21.456C39.1135 21.6525 39.025 21.8373 38.9039 22.0002C38.8711 22.0435 38.8308 22.0807 38.785 22.1099C38.7373 22.1382 38.6845 22.1569 38.6295 22.1648C38.5052 22.1813 38.3827 22.2097 38.2637 22.2494C38.1955 22.2703 38.1345 22.3099 38.0877 22.3637C38.0444 22.4164 38.0181 22.481 38.0122 22.5489V22.5603C38.0077 22.5712 38.0054 22.5829 38.0054 22.5946C38.0054 22.6064 38.0077 22.6181 38.0122 22.6289C38.0256 22.6487 38.0448 22.6638 38.0671 22.6724L38.1334 22.6952H39.3223L39.3657 22.6769C39.3789 22.6663 39.3898 22.6531 39.3978 22.6381C39.4381 22.5682 39.4616 22.4899 39.4663 22.4094C39.466 22.3397 39.4796 22.2707 39.5063 22.2063C39.533 22.1419 39.5722 22.0835 39.6218 22.0345L39.695 21.9636C39.9248 21.748 40.1416 21.519 40.3443 21.2777C40.4242 21.1866 40.4925 21.086 40.5478 20.9782C40.5641 20.9473 40.5705 20.9122 40.5661 20.8776C40.5613 20.8429 40.5452 20.8108 40.5204 20.7861C40.4652 20.7214 40.4022 20.6638 40.3329 20.6146C40.2048 20.5209 40.0699 20.4386 39.9305 20.3517L39.7864 20.2625C39.7444 20.2399 39.7053 20.2122 39.6698 20.1802L39.5738 20.0979L39.6904 20.043C39.9303 19.9247 40.1597 19.7862 40.3763 19.6292C40.3903 19.6157 40.4077 19.6062 40.4266 19.6018C40.4489 19.5944 40.4729 19.5944 40.4952 19.6018C40.5067 19.6052 40.5176 19.6106 40.5272 19.6178L40.5432 19.6338C40.5689 19.6625 40.5981 19.6878 40.6301 19.7092C40.7864 19.8172 40.949 19.9157 41.1171 20.0042C41.4208 20.1711 41.7106 20.3623 41.9836 20.5758C42.1405 20.6921 42.2694 20.8421 42.3609 21.0148C42.4005 21.0892 42.4195 21.1729 42.4158 21.2571C42.4105 21.3385 42.3846 21.4172 42.3403 21.4857C42.3106 21.5338 42.2763 21.5841 42.2443 21.6298C42.1908 21.6986 42.149 21.7759 42.1208 21.8584C42.1174 21.8714 42.112 21.8837 42.1048 21.895C42.0963 21.911 42.0837 21.9244 42.0682 21.9339C42.0534 21.9451 42.0362 21.9529 42.0179 21.9567H41.9768C41.8099 21.9567 41.643 21.9773 41.4783 21.9979C41.3441 22.0114 41.2133 22.0485 41.092 22.1076C41.0273 22.1371 40.9709 22.1818 40.9273 22.238C40.8868 22.2923 40.8609 22.356 40.8519 22.4232C40.8519 22.4483 40.8519 22.4735 40.8519 22.4963C40.8397 22.5512 40.8328 22.6071 40.8313 22.6632V22.6792C40.8302 22.6837 40.8302 22.6884 40.8313 22.6929H42.3426C42.374 22.6907 42.4041 22.6796 42.4295 22.6609C42.4545 22.6439 42.473 22.6189 42.4821 22.5901C42.497 22.5521 42.5055 22.5119 42.5072 22.4712C42.5108 22.3468 42.5404 22.2245 42.5941 22.1122C42.6502 21.9992 42.7279 21.8982 42.8227 21.815C42.905 21.7395 42.9873 21.6709 43.0765 21.6023C43.2098 21.5053 43.3264 21.3871 43.4218 21.2525C43.4944 21.1582 43.5338 21.0424 43.5338 20.9233C43.5338 20.8042 43.4944 20.6884 43.4218 20.5941C43.3807 20.5297 43.3348 20.4686 43.2846 20.4112C43.0448 20.1375 42.7842 19.883 42.5049 19.6498C42.3017 19.4749 42.0871 19.3137 41.8625 19.1674H41.851C41.8353 19.1586 41.8219 19.146 41.8122 19.1308C41.8018 19.1111 41.7978 19.0888 41.8007 19.0668C41.8031 19.0452 41.8128 19.025 41.8282 19.0096C41.8409 18.9952 41.8576 18.9849 41.8762 18.9799H41.9219C42.068 18.9589 42.2167 18.9643 42.3609 18.9959C42.6253 19.06 42.8839 19.1464 43.1337 19.2542C43.44 19.38 43.7419 19.5195 44.0482 19.6566L44.5649 19.8853C44.9663 20.0546 45.3573 20.2477 45.7356 20.4637C45.9333 20.5578 46.1191 20.6753 46.2889 20.8135C46.4127 20.9371 46.493 21.0976 46.5175 21.2708C46.5401 21.4388 46.508 21.6095 46.426 21.7578C46.3884 21.8397 46.3261 21.9077 46.2477 21.9522C46.1655 21.9981 46.072 22.0203 45.9779 22.0162C45.8549 22.0141 45.732 22.0272 45.6121 22.055C45.5173 22.0705 45.429 22.1134 45.3583 22.1785C45.2925 22.2392 45.2477 22.3193 45.2303 22.4071C45.2125 22.4999 45.2025 22.594 45.2005 22.6884H47.1325H47.1462C47.1684 22.657 47.1854 22.6223 47.1966 22.5855C47.2894 22.3087 47.3478 22.0215 47.3703 21.7304C47.401 21.4533 47.4132 21.1745 47.4069 20.8959C47.4085 20.7491 47.3706 20.6046 47.2972 20.4775C47.1508 20.2405 46.9451 20.0458 46.7004 19.9127C46.228 19.649 45.8023 19.3091 45.4406 18.9067C45.2475 18.6957 45.0886 18.4558 44.9696 18.1957C44.8946 18.0229 44.8483 17.8391 44.8324 17.6515C44.8311 17.623 44.8392 17.5949 44.8553 17.5715C44.8676 17.5567 44.8829 17.5447 44.9003 17.5364C44.9177 17.5281 44.9367 17.5237 44.9559 17.5235C44.9912 17.5213 45.0264 17.5167 45.0611 17.5097C45.4148 17.4629 45.7562 17.3488 46.0671 17.1737C46.3503 17.0155 46.5731 16.7678 46.7004 16.4695C46.8396 16.1346 46.9282 15.7809 46.9633 15.42C46.9842 15.1828 46.9926 14.9447 46.9885 14.7067V13.9773ZM40.5044 19.7618C40.3281 19.8849 40.144 19.9964 39.9533 20.0956L40.0745 20.1711C40.214 20.258 40.3603 20.3471 40.4929 20.4454C40.5737 20.5019 40.6468 20.5688 40.7101 20.6444C40.758 20.6938 40.7892 20.7569 40.7993 20.825C40.8098 20.8933 40.7977 20.9631 40.765 21.0239C40.7022 21.1438 40.6255 21.2558 40.5364 21.3577C40.3279 21.5989 40.1058 21.8279 39.871 22.0436L39.8024 22.1099C39.7682 22.1437 39.7411 22.1839 39.7227 22.2283C39.7042 22.2726 39.6948 22.3202 39.695 22.3683C39.6902 22.4772 39.6604 22.5836 39.6081 22.6792C39.5867 22.7193 39.5562 22.7538 39.5189 22.7798C39.4803 22.8075 39.4356 22.8256 39.3886 22.8324H38.1494H38.138C38.1034 22.8252 38.0697 22.8145 38.0374 22.8004C37.976 22.777 37.9245 22.7335 37.891 22.6769C37.8591 22.6242 37.8478 22.5615 37.859 22.5009C37.8682 22.3999 37.9081 22.3041 37.9733 22.2265C38.0432 22.1459 38.1343 22.0864 38.2363 22.055C38.3667 22.0123 38.5006 21.9809 38.6364 21.9613C38.666 21.9559 38.6945 21.9458 38.721 21.9316C38.7466 21.9159 38.7684 21.8948 38.785 21.8699C38.8914 21.7235 38.9689 21.5582 39.0136 21.3829C39.0183 21.3633 39.0183 21.343 39.0135 21.3235C39.0088 21.304 38.9994 21.286 38.9862 21.2708C38.896 21.1769 38.79 21.0995 38.673 21.0422C38.4277 20.9087 38.1742 20.7911 37.9139 20.6901C37.9135 20.6954 37.9135 20.7008 37.9139 20.7061C37.9282 20.7385 37.936 20.7735 37.9368 20.809C37.936 20.8437 37.9282 20.8779 37.9139 20.9096C37.8996 20.94 37.8794 20.9672 37.8545 20.9896C37.7596 21.1119 37.6498 21.2217 37.5275 21.3166C37.197 21.5849 36.8436 21.8236 36.4712 22.0299C36.3977 22.0673 36.3212 22.0987 36.2426 22.1236C36.2069 22.1346 36.1741 22.1533 36.1465 22.1785C36.1194 22.2027 36.099 22.2334 36.0871 22.2677C36.0264 22.4086 35.9497 22.5421 35.8585 22.6655C35.8201 22.7243 35.7674 22.7723 35.7053 22.805C35.6553 22.8302 35.601 22.8457 35.5452 22.8507L35.5224 22.8919H34.4615C34.427 22.8905 34.3932 22.8814 34.3627 22.8652C34.3322 22.849 34.3058 22.826 34.2854 22.7981C34.2707 22.7686 34.2631 22.7362 34.2631 22.7032C34.2631 22.6703 34.2707 22.6378 34.2854 22.6083C34.335 22.5007 34.4144 22.4095 34.5141 22.3454C34.6622 22.2346 34.8297 22.1524 35.0079 22.1031C35.1372 22.0662 35.2572 22.0023 35.36 21.9156L35.4675 21.8333C35.528 21.7892 35.586 21.7419 35.6412 21.6915C35.8254 21.5429 35.968 21.3491 36.0551 21.1291C36.0893 21.0275 36.0964 20.9187 36.0757 20.8135C36.0565 20.7065 36.0109 20.6059 35.943 20.5209C35.9214 20.4918 35.8932 20.4683 35.8607 20.4523C35.8273 20.4361 35.7904 20.4282 35.7533 20.4294C35.7268 20.4298 35.7012 20.4386 35.6801 20.4546C35.6029 20.5147 35.5324 20.5829 35.4698 20.6581L35.4538 20.6741C35.4349 20.6956 35.4142 20.7155 35.392 20.7335C35.3641 20.7637 35.3286 20.7858 35.2891 20.7975C35.2466 20.8102 35.2013 20.8102 35.1588 20.7975L35.1154 20.7793C35.1402 20.8661 35.1502 20.9566 35.1451 21.0468C35.1373 21.1822 35.0973 21.3139 35.0285 21.4309C34.9277 21.6246 34.8099 21.809 34.6764 21.9819C34.6499 22.0141 34.6191 22.0426 34.5849 22.0665C34.5609 22.0872 34.534 22.1041 34.5049 22.1168C34.4718 22.1284 34.4371 22.1346 34.402 22.1351C34.3669 22.135 34.3321 22.1288 34.2992 22.1168C34.2668 22.1045 34.2372 22.0859 34.2123 22.0619C34.1365 21.9908 34.0745 21.9063 34.0294 21.8127L33.9745 21.7167C33.9607 21.8095 33.9329 21.8997 33.8922 21.9842C33.8303 22.0807 33.7445 22.1595 33.643 22.2128C33.3626 22.3846 33.0653 22.5271 32.7559 22.6381C32.5261 22.7257 32.2899 22.7953 32.0494 22.8461C31.8611 22.8873 31.6661 22.8873 31.4778 22.8461C31.415 22.8374 31.3561 22.8104 31.3086 22.7684C31.2594 22.7288 31.2261 22.6728 31.2148 22.6106V22.5077C31.2236 22.4504 31.2481 22.3965 31.2857 22.3523C31.3581 22.2573 31.4209 22.1555 31.4732 22.0482C31.5578 21.8893 31.6533 21.7365 31.759 21.5909C31.908 21.3824 31.998 21.1375 32.0196 20.8821C32.0196 20.8044 32.0334 20.729 32.0379 20.6535C32.0379 20.6421 32.0379 20.6329 32.0379 20.6215C32.0379 20.5529 32.0379 20.4843 32.0517 20.4157C32.0554 20.3515 32.0662 20.2879 32.0837 20.226C32.0954 20.1614 32.1203 20.0999 32.1568 20.0453C32.2063 19.9827 32.2697 19.9326 32.342 19.899C32.6115 19.7573 32.8699 19.5952 33.1148 19.4143C33.2819 19.2823 33.4351 19.1337 33.5721 18.9707C33.8862 18.617 34.2524 18.3133 34.6581 18.0699C34.8227 17.9693 34.9873 17.871 35.1543 17.775C35.3829 17.6469 35.6252 17.5303 35.8699 17.4252C36.1763 17.2903 36.4918 17.1714 36.8119 17.0662C37.132 16.961 37.4978 16.8376 37.8384 16.7301C37.8864 16.7159 37.9353 16.7052 37.9848 16.6981C38.0241 16.6912 38.0643 16.6912 38.1037 16.6981L38.3552 16.737L38.7507 16.7964C38.8877 16.8189 39.0259 16.8334 39.1645 16.8398H39.6881C39.7703 16.8467 39.8529 16.8467 39.935 16.8398H40.0745C40.1515 16.833 40.2279 16.8208 40.3032 16.8033C40.5844 16.7644 40.8633 16.7141 41.1445 16.6638L41.6361 16.5701L41.9791 16.5037C42.0545 16.49 42.1322 16.4717 42.2077 16.4534C42.3312 16.426 42.4592 16.3986 42.5849 16.3803C42.6451 16.3757 42.7054 16.3757 42.7656 16.3803H42.9645L43.4218 16.458C43.6184 16.4992 43.815 16.538 44.0139 16.5723C44.1498 16.5991 44.2873 16.6167 44.4255 16.6249H44.6175C44.6937 16.6298 44.77 16.6298 44.8462 16.6249H45.0176C45.2913 16.607 45.5533 16.5074 45.7699 16.3391C45.9162 16.2241 46.0469 16.0903 46.1585 15.9413C46.2472 15.8349 46.3275 15.7218 46.3986 15.6029C46.4913 15.4403 46.5563 15.2633 46.5907 15.0793C46.6067 15.0039 46.6181 14.9262 46.6295 14.8507C46.6295 14.8164 46.6295 14.7798 46.6455 14.7455L46.6593 14.6449C46.6707 14.5695 46.6821 14.4917 46.6981 14.4163C46.7141 14.3408 46.7141 14.3271 46.7187 14.2883V14.27C46.7213 14.2354 46.7259 14.2011 46.7324 14.1671C46.7541 13.9952 46.7955 13.8264 46.8559 13.6641C46.8608 13.6405 46.8728 13.619 46.8902 13.6023C46.9159 13.5773 46.9503 13.5634 46.9862 13.5635C47.0085 13.5633 47.0306 13.5688 47.0502 13.5795C47.0683 13.5888 47.0834 13.6031 47.0937 13.6206C47.1013 13.6356 47.1059 13.6519 47.1074 13.6687C47.1232 13.7207 47.1332 13.7744 47.1371 13.8287V14.7181C47.141 14.9615 47.1326 15.2049 47.112 15.4474C47.0759 15.8244 46.9826 16.1937 46.8353 16.5426C46.6857 16.8636 46.4363 17.1275 46.1242 17.2948C45.7928 17.4833 45.4278 17.6052 45.0496 17.6538H44.9765C44.9919 17.8115 45.0321 17.9658 45.0954 18.1111C45.2061 18.3549 45.3551 18.5795 45.5366 18.7764C45.8852 19.1641 46.2954 19.4917 46.7507 19.7458C47.023 19.8946 47.2517 20.1122 47.4138 20.3769C47.5003 20.5287 47.546 20.7005 47.5464 20.8753C47.5526 21.1601 47.5396 21.445 47.5075 21.7281C47.4838 22.0301 47.4231 22.328 47.3269 22.6152C47.3111 22.6677 47.288 22.7177 47.2583 22.7638C47.2384 22.7956 47.2098 22.8209 47.176 22.837C47.1421 22.8544 47.1043 22.863 47.0662 22.8621H45.0565C45.0348 22.8592 45.0143 22.8505 44.9971 22.837C44.9779 22.823 44.9642 22.8028 44.9582 22.7798C44.9573 22.7654 44.9573 22.7509 44.9582 22.7364C44.9582 22.6182 44.9697 22.5003 44.9925 22.3843C45.0149 22.2575 45.0774 22.1413 45.1708 22.0528C45.269 21.9626 45.3914 21.903 45.5229 21.8813C45.6579 21.8504 45.7961 21.8366 45.9345 21.8401C45.9911 21.8422 46.0473 21.8288 46.0968 21.8013C46.1437 21.7743 46.1812 21.7336 46.2043 21.6847C46.2708 21.5658 46.2973 21.4287 46.2797 21.2937C46.261 21.1587 46.2002 21.0331 46.106 20.9347C45.9751 20.8018 45.8293 20.6844 45.6715 20.5849C45.3016 20.3736 44.9199 20.1835 44.5284 20.0156L44.0025 19.7755C43.7053 19.6406 43.4103 19.5035 43.1085 19.3777C42.869 19.2746 42.6212 19.192 42.3677 19.1308C42.3022 19.1174 42.2357 19.1097 42.1688 19.1079C42.3484 19.2316 42.5209 19.3652 42.6855 19.508C42.972 19.7461 43.2388 20.0068 43.4835 20.2877C43.5361 20.3517 43.5864 20.418 43.6321 20.4866C43.7231 20.6098 43.7727 20.7587 43.7739 20.9119C43.773 21.0655 43.7225 21.2146 43.6298 21.3371L43.5521 21.2891L43.6275 21.3394C43.5232 21.4903 43.3941 21.6225 43.2457 21.7304C43.1611 21.7944 43.0834 21.863 43.0056 21.9339C42.9268 22.0012 42.8623 22.0836 42.8159 22.1762C42.772 22.2677 42.7479 22.3674 42.745 22.4689C42.7432 22.5278 42.7308 22.5859 42.7084 22.6404C42.6864 22.7023 42.6467 22.7564 42.5941 22.7958C42.5364 22.835 42.4693 22.8579 42.3998 22.8621H40.7513L40.7261 22.8141C40.699 22.7655 40.6894 22.709 40.6987 22.6541C40.6987 22.6358 40.6987 22.6724 40.6987 22.6541C40.7025 22.5874 40.7102 22.521 40.7216 22.4552C40.7216 22.4346 40.7216 22.4163 40.733 22.398C40.7444 22.3022 40.7815 22.2114 40.8404 22.1351C40.8998 22.055 40.9785 21.9913 41.0691 21.9499C41.2126 21.8801 41.3675 21.8367 41.5264 21.8218C41.691 21.799 41.8579 21.7853 42.0225 21.7784C41.9951 21.8516 42.0568 21.7784 42.0225 21.7784C42.0569 21.6858 42.1047 21.5988 42.1643 21.52C42.1963 21.4743 42.226 21.4286 42.2557 21.3829C42.2859 21.3364 42.3033 21.2827 42.306 21.2274C42.309 21.1717 42.2963 21.1162 42.2694 21.0673C42.1901 20.9167 42.0775 20.7861 41.9402 20.6855C41.6741 20.4794 41.3928 20.2937 41.0988 20.1299C40.9254 20.0384 40.7575 19.9368 40.5958 19.8258C40.5635 19.8073 40.5329 19.7859 40.5044 19.7618Z" fill="white" style="fill:white;fill-opacity:1;"/>
</g>
</svg>
